{"glyphs":{"0":{"ha":3215,"x_min":0,"x_max":0,"o":"m 1622 676 b 1681 721 1653 676 1674 689 b 1683 771 1683 735 1683 753 b 1678 865 1683 800 1689 838 b 1619 896 1669 889 1643 896 b 1569 857 1597 894 1575 885 b 1565 763 1563 831 1565 794 b 1568 724 1565 750 1565 738 b 1622 676 1572 693 1590 676 z m 643 -47 l 683 -47 l 686 63 l 708 -47 l 740 -47 l 760 65 l 764 -47 l 801 -47 l 801 224 l 754 224 l 724 53 l 690 224 l 647 224 z m 838 -47 l 879 -47 l 879 85 l 926 -47 l 960 -47 l 960 224 l 918 224 l 918 93 l 872 224 l 838 224 z m 990 -47 l 1038 -47 l 1038 1 l 990 1 z m 996 -256 b 1028 -333 996 -283 988 -333 b 1054 -292 1051 -333 1054 -310 l 1040 -292 b 1039 -312 1040 -299 1042 -306 b 1017 -315 1035 -322 1021 -324 b 1011 -276 1010 -306 1011 -285 b 1015 -237 1011 -267 1010 -246 b 1039 -239 1021 -229 1035 -229 b 1040 -258 1042 -246 1040 -254 l 1054 -258 b 1032 -224 1054 -242 1054 -224 b 996 -256 1007 -218 996 -236 z m 1054 47 b 1065 -18 1054 24 1057 1 b 1131 -51 1076 -43 1104 -54 b 1178 4 1160 -43 1176 -19 b 1146 93 1182 39 1171 69 l 1125 118 b 1099 150 1115 128 1104 135 b 1118 185 1096 160 1096 186 b 1135 132 1136 182 1132 150 l 1176 135 b 1142 221 1176 167 1174 206 b 1057 174 1103 239 1058 213 b 1068 111 1053 151 1057 128 b 1093 83 1072 100 1085 93 b 1135 15 1108 65 1135 43 b 1124 -7 1135 4 1132 -6 b 1107 1 1115 -11 1110 -6 b 1096 50 1096 17 1096 35 z m 1067 -275 b 1099 -333 1067 -297 1061 -333 b 1129 -276 1131 -333 1129 -300 b 1099 -224 1129 -254 1131 -224 b 1067 -275 1067 -218 1067 -246 z m 1069 679 l 1099 679 l 1099 778 b 1157 790 1117 778 1143 776 b 1168 871 1181 808 1181 844 b 1115 894 1157 892 1136 894 l 1069 894 z m 1071 514 b 1076 463 1071 493 1071 476 b 1150 433 1088 433 1125 421 b 1186 550 1196 447 1186 513 l 1186 649 l 1157 649 l 1157 569 l 1157 500 b 1117 453 1157 475 1149 443 b 1099 504 1099 463 1099 486 l 1099 649 l 1071 649 z m 1081 -267 l 1081 -251 b 1104 -236 1081 -239 1089 -228 b 1113 -281 1115 -239 1113 -269 b 1089 -318 1113 -296 1114 -332 b 1081 -267 1076 -314 1081 -278 z m 1099 801 l 1099 872 b 1131 871 1108 872 1118 875 b 1149 833 1149 867 1149 847 b 1131 803 1149 819 1146 807 b 1099 801 1118 800 1108 801 z m 1108 -194 l 1125 -194 l 1125 -143 l 1146 -143 l 1146 -133 l 1125 -133 l 1125 -96 l 1150 -96 l 1150 -85 l 1108 -85 z m 1143 -332 l 1156 -332 l 1156 -251 l 1174 -332 l 1186 -332 l 1203 -251 l 1203 -332 l 1214 -332 l 1213 -224 l 1197 -224 l 1181 -310 l 1160 -224 l 1143 -224 z m 1160 -136 b 1190 -194 1160 -161 1157 -194 b 1221 -140 1221 -194 1221 -164 b 1193 -82 1221 -119 1224 -87 b 1160 -136 1160 -82 1160 -110 z m 1175 -133 l 1175 -115 b 1197 -97 1175 -101 1186 -89 b 1206 -144 1210 -101 1206 -133 b 1186 -185 1206 -161 1206 -189 b 1175 -133 1168 -178 1175 -143 z m 1197 679 l 1282 679 l 1282 699 l 1226 699 l 1226 778 l 1271 778 l 1271 801 l 1226 801 l 1226 872 l 1279 872 l 1279 894 l 1197 894 z m 1199 89 b 1200 13 1199 63 1197 39 b 1228 -43 1203 -7 1208 -33 b 1294 -39 1246 -54 1278 -54 l 1296 -47 l 1332 -47 l 1332 93 l 1261 93 l 1261 53 l 1289 53 b 1261 -7 1289 39 1293 -19 b 1246 50 1240 -1 1246 36 l 1246 147 b 1271 185 1246 168 1250 188 b 1285 128 1283 179 1285 175 l 1329 128 b 1300 218 1329 157 1332 199 b 1239 224 1283 228 1260 228 b 1200 167 1215 213 1204 189 b 1199 89 1197 142 1199 115 z m 1210 492 b 1269 431 1213 458 1233 431 b 1318 496 1304 431 1325 463 b 1275 554 1315 524 1294 538 b 1242 608 1258 569 1233 585 b 1269 624 1243 619 1254 629 b 1292 585 1286 621 1290 601 l 1315 594 b 1297 640 1315 611 1311 629 b 1244 649 1282 649 1260 651 b 1219 567 1210 638 1203 594 b 1263 525 1229 550 1250 538 b 1286 501 1275 519 1279 510 b 1283 460 1294 490 1297 468 b 1250 463 1275 450 1260 453 b 1240 500 1242 471 1242 486 z m 1233 -332 l 1244 -332 l 1247 -251 l 1263 -332 l 1275 -332 l 1292 -251 l 1294 -332 l 1304 -332 l 1301 -224 l 1288 -224 l 1269 -310 l 1250 -224 l 1233 -224 z m 1238 -194 l 1250 -194 l 1250 -143 l 1263 -143 l 1278 -194 l 1294 -194 l 1278 -140 b 1278 -87 1297 -133 1294 -97 b 1238 -85 1265 -82 1250 -85 z m 1247 267 l 1263 267 l 1263 319 b 1294 326 1275 319 1283 318 b 1297 368 1301 335 1301 356 b 1247 381 1288 385 1263 381 z m 1250 -133 l 1250 -96 b 1278 -112 1265 -96 1278 -97 b 1250 -133 1278 -131 1265 -133 z m 1263 329 l 1263 372 b 1286 354 1278 372 1286 372 b 1278 332 1286 344 1286 336 b 1263 329 1275 329 1267 329 z m 1304 679 l 1336 679 l 1336 779 l 1358 779 l 1389 679 l 1415 679 l 1389 788 b 1389 886 1424 800 1421 868 b 1304 894 1365 899 1332 894 z m 1315 267 l 1356 267 l 1356 279 l 1326 279 l 1326 381 l 1315 381 z m 1322 -332 l 1365 -332 l 1365 -322 l 1339 -322 l 1339 -278 l 1360 -278 l 1360 -267 l 1339 -267 l 1339 -233 l 1365 -233 l 1365 -224 l 1322 -224 z m 1329 -96 l 1349 -96 l 1349 -194 l 1365 -194 l 1365 -96 l 1386 -96 l 1386 -85 l 1329 -85 z m 1336 801 l 1336 872 b 1367 869 1344 872 1356 875 b 1383 840 1381 865 1383 850 b 1367 803 1386 824 1381 810 b 1336 801 1356 801 1344 801 z m 1340 -82 l 1379 -82 l 1456 258 l 1414 258 z m 1344 433 l 1428 433 l 1428 453 l 1374 453 l 1374 532 l 1417 532 l 1417 554 l 1374 554 l 1374 624 l 1428 624 l 1428 649 l 1344 649 z m 1367 267 l 1408 267 l 1408 279 l 1381 279 l 1381 319 l 1404 319 l 1404 332 l 1381 332 l 1381 372 l 1408 372 l 1408 381 l 1367 381 z m 1376 -332 l 1393 -332 l 1393 -278 l 1406 -278 l 1418 -332 l 1433 -332 l 1417 -276 b 1418 -225 1436 -269 1433 -236 b 1376 -224 1407 -218 1392 -224 z m 1393 -267 l 1393 -233 b 1417 -251 1407 -233 1417 -236 b 1393 -267 1417 -267 1407 -267 z m 1393 -194 l 1407 -194 l 1407 -143 l 1438 -143 l 1438 -194 l 1453 -194 l 1453 -85 l 1438 -85 l 1438 -133 l 1407 -133 l 1407 -85 l 1393 -85 z m 1415 267 l 1429 267 l 1433 299 l 1457 299 l 1463 267 l 1478 267 l 1457 381 l 1439 381 z m 1433 307 l 1446 361 l 1457 307 z m 1433 739 b 1494 676 1436 704 1457 676 b 1544 743 1531 676 1551 708 b 1501 801 1539 767 1518 783 b 1465 856 1483 814 1461 831 b 1494 875 1468 868 1481 875 b 1518 833 1511 869 1514 847 l 1542 842 b 1522 886 1540 857 1536 878 b 1471 892 1508 896 1485 899 b 1446 811 1433 885 1428 842 b 1486 772 1457 797 1475 783 b 1511 747 1500 763 1506 753 b 1511 706 1519 735 1522 714 b 1475 708 1501 697 1485 699 b 1464 747 1468 717 1465 731 z m 1446 -256 b 1475 -333 1446 -283 1436 -333 b 1503 -292 1501 -333 1503 -310 l 1488 -292 b 1486 -312 1488 -299 1492 -306 b 1465 -315 1485 -322 1471 -324 b 1461 -276 1457 -306 1461 -285 b 1465 -237 1461 -267 1457 -246 b 1486 -239 1471 -229 1485 -229 b 1488 -258 1492 -246 1488 -254 l 1503 -258 b 1481 -224 1503 -242 1501 -224 b 1446 -256 1457 -218 1446 -236 z m 1465 -49 l 1546 -49 b 1596 22 1568 -49 1596 -28 b 1571 92 1596 44 1593 74 b 1593 151 1590 103 1593 129 b 1543 222 1593 201 1564 222 l 1465 222 z m 1468 -194 l 1511 -194 l 1511 -186 l 1485 -186 l 1485 -143 l 1506 -143 l 1506 -133 l 1485 -133 l 1485 -96 l 1511 -96 l 1511 -85 l 1468 -85 z m 1485 299 b 1514 267 1486 282 1497 267 b 1540 304 1535 267 1546 285 b 1514 332 1539 317 1525 324 b 1501 361 1506 339 1497 349 b 1526 349 1503 374 1518 379 l 1540 351 b 1525 379 1540 361 1535 374 b 1494 375 1514 383 1501 381 b 1501 328 1478 361 1486 339 b 1526 293 1508 318 1526 307 b 1508 279 1526 282 1519 279 b 1501 304 1501 282 1501 296 z m 1508 -8 l 1508 68 l 1526 68 b 1550 36 1543 68 1547 51 b 1531 -8 1551 14 1546 -8 z m 1508 107 l 1508 183 l 1525 183 b 1546 142 1543 183 1546 163 b 1526 107 1546 126 1543 107 z m 1508 519 b 1511 475 1508 504 1508 490 b 1569 431 1514 446 1539 431 b 1622 474 1599 431 1619 446 b 1625 525 1629 490 1625 507 b 1619 618 1625 553 1632 592 b 1564 649 1613 642 1590 649 b 1511 613 1540 649 1519 638 b 1508 519 1506 585 1508 550 z m 1519 -332 l 1535 -332 l 1535 -224 l 1519 -224 z m 1540 500 l 1540 538 b 1540 607 1540 560 1536 585 b 1563 624 1544 618 1550 624 b 1589 618 1569 629 1579 624 b 1597 585 1599 610 1597 597 l 1597 507 b 1597 483 1597 500 1599 490 b 1579 456 1596 474 1590 463 b 1553 456 1572 453 1563 453 b 1540 500 1539 463 1540 483 z m 1546 -332 l 1563 -332 l 1568 -303 l 1590 -303 l 1596 -332 l 1610 -332 l 1585 -224 l 1569 -224 z m 1553 267 l 1599 267 l 1599 279 l 1569 279 l 1569 319 l 1590 319 l 1590 332 l 1569 332 l 1569 372 l 1597 372 l 1597 381 l 1553 381 z m 1558 -194 l 1569 -194 l 1569 -143 l 1590 -143 l 1590 -133 l 1569 -133 l 1569 -96 l 1600 -96 l 1600 -85 l 1558 -85 z m 1569 -296 l 1579 -242 l 1589 -296 z m 1597 744 l 1597 783 b 1599 850 1597 804 1590 833 b 1619 872 1603 865 1608 871 b 1643 865 1629 875 1636 875 b 1653 828 1653 856 1653 842 l 1653 731 b 1638 701 1653 721 1651 708 b 1613 701 1632 699 1619 699 b 1597 744 1596 710 1597 731 z m 1610 -168 b 1646 -194 1613 -189 1625 -200 b 1667 -135 1669 -186 1667 -154 l 1667 -85 l 1653 -85 l 1653 -133 b 1636 -186 1653 -147 1657 -186 b 1622 -133 1617 -186 1622 -147 l 1622 -85 l 1610 -85 l 1610 -143 b 1610 -168 1610 -150 1608 -161 z m 1619 -332 l 1664 -332 l 1664 -322 l 1635 -322 l 1635 -224 l 1619 -224 z m 1619 -49 l 1722 -49 l 1722 -4 l 1665 -4 l 1665 222 l 1619 222 z m 1635 381 l 1658 267 l 1674 267 l 1697 381 l 1683 381 l 1667 299 l 1651 381 z m 1657 433 l 1681 433 l 1681 579 l 1744 433 l 1765 433 l 1765 649 l 1739 649 l 1739 504 l 1678 649 l 1657 649 z m 1683 -194 l 1725 -194 l 1725 -186 l 1700 -186 l 1700 -85 l 1683 -85 z m 1701 -224 l 1725 -332 l 1736 -332 l 1761 -224 l 1749 -224 l 1731 -303 l 1714 -224 z m 1708 267 l 1725 267 l 1725 381 l 1708 381 z m 1714 679 l 1739 679 l 1739 824 l 1799 679 l 1819 679 l 1819 894 l 1793 894 l 1793 750 l 1732 894 l 1714 894 z m 1736 -194 l 1779 -194 l 1779 -186 l 1751 -186 l 1751 -85 l 1736 -85 z m 1739 299 b 1769 267 1742 282 1749 267 b 1793 304 1788 267 1799 285 b 1771 332 1792 317 1778 326 b 1756 361 1764 339 1750 349 b 1779 349 1761 374 1776 379 l 1793 351 b 1778 379 1792 361 1788 374 b 1749 375 1771 383 1758 381 b 1754 328 1731 361 1742 339 b 1779 293 1765 318 1782 307 b 1765 279 1779 282 1774 279 b 1754 304 1758 282 1754 296 z m 1746 -49 l 1851 -49 l 1851 -4 l 1790 -4 l 1790 68 l 1839 68 l 1839 117 l 1790 117 l 1790 175 l 1851 175 l 1851 222 l 1746 222 z m 1774 -332 l 1818 -332 l 1818 -322 l 1789 -322 l 1789 -278 l 1813 -278 l 1813 -267 l 1789 -267 l 1789 -233 l 1818 -233 l 1818 -224 l 1774 -224 z m 1799 433 l 1879 433 l 1879 453 l 1828 453 l 1828 649 l 1799 649 z m 1807 267 l 1824 267 l 1824 381 l 1807 381 z m 1818 -194 l 1831 -194 l 1838 -167 l 1860 -167 l 1863 -194 l 1879 -194 l 1856 -85 l 1838 -85 z m 1829 -332 l 1844 -332 l 1844 -278 l 1856 -278 l 1869 -332 l 1885 -332 l 1868 -276 b 1872 -225 1888 -271 1888 -236 b 1829 -224 1860 -218 1843 -224 z m 1833 372 l 1854 372 l 1854 267 l 1867 267 l 1867 372 l 1885 372 l 1885 381 l 1833 381 z m 1838 -157 l 1847 -106 l 1856 -157 z m 1840 679 l 1868 679 l 1879 731 l 1924 731 l 1935 679 l 1963 679 l 1917 894 l 1888 894 z m 1844 -267 l 1844 -233 b 1868 -251 1860 -233 1868 -236 b 1844 -267 1868 -267 1860 -267 z m 1875 46 b 1883 -19 1875 22 1875 1 b 1950 -53 1896 -46 1925 -56 b 1997 3 1978 -46 1996 -22 b 1965 93 2001 38 1988 67 l 1942 117 b 1919 149 1933 126 1925 133 b 1936 183 1915 160 1917 185 b 1953 131 1953 179 1953 149 l 1996 133 b 1960 219 1996 165 1992 206 b 1875 172 1924 236 1876 213 b 1888 108 1872 150 1875 126 b 1910 81 1892 100 1901 93 b 1953 14 1925 64 1953 43 b 1942 -8 1953 3 1953 -7 b 1925 1 1933 -12 1928 -7 b 1917 49 1917 15 1917 32 z m 1885 753 l 1903 850 l 1919 753 z m 1890 -194 l 1906 -194 l 1906 -119 l 1935 -194 l 1944 -194 l 1944 -85 l 1931 -85 l 1931 -157 l 1900 -85 l 1890 -85 z m 1890 649 l 1919 550 b 1935 510 1928 538 1931 525 b 1935 476 1936 500 1935 486 l 1935 433 l 1965 433 l 1965 485 b 1967 514 1965 493 1963 504 l 1982 557 b 2011 649 1992 589 2001 618 l 1982 649 l 1949 544 l 1917 649 z m 1897 -300 b 1928 -333 1897 -318 1907 -333 b 1949 -299 1947 -333 1956 -315 b 1929 -267 1949 -283 1936 -276 b 1913 -239 1919 -258 1907 -251 b 1929 -233 1917 -233 1922 -229 b 1939 -254 1936 -236 1936 -246 l 1949 -249 b 1936 -224 1949 -237 1947 -228 b 1907 -228 1929 -218 1917 -219 b 1911 -275 1890 -237 1897 -261 b 1939 -307 1919 -281 1939 -296 b 1919 -318 1939 -315 1931 -324 b 1911 -297 1913 -315 1911 -303 z m 1963 -194 b 2006 -187 1974 -194 1994 -197 b 2017 -140 2022 -179 2017 -157 b 2011 -93 2017 -125 2022 -101 b 1963 -85 1996 -82 1975 -85 z m 1965 -332 l 1979 -332 l 1979 -224 l 1965 -224 z m 1978 -186 l 1978 -96 b 2003 -112 1992 -96 2001 -96 l 2003 -168 b 1978 -186 1999 -186 1989 -186 z m 1985 679 l 2069 679 l 2069 699 l 2015 699 l 2015 894 l 1985 894 z m 1994 -275 b 2026 -333 1994 -297 1992 -333 b 2057 -276 2058 -333 2057 -300 b 2029 -224 2057 -254 2061 -224 b 1994 -275 1994 -218 1994 -246 z m 2010 175 l 2049 175 l 2049 -49 l 2096 -49 l 2096 175 l 2133 175 l 2133 222 l 2010 222 z m 2014 -267 l 2014 -251 b 2036 -236 2014 -239 2018 -228 b 2043 -281 2046 -239 2043 -269 b 2018 -318 2043 -296 2043 -332 b 2014 -267 2006 -314 2014 -278 z m 2026 433 l 2057 433 l 2057 463 l 2026 463 z m 2026 649 l 2036 478 l 2046 478 l 2057 649 z m 2074 -332 l 2082 -332 l 2082 -256 l 2117 -332 l 2128 -332 l 2128 -224 l 2115 -224 l 2115 -296 l 2082 -224 l 2074 -224 z m 2156 -49 l 2203 -49 l 2203 222 l 2156 222 z m 2225 222 l 2265 -49 l 2310 -49 l 2356 222 l 2310 222 l 2288 35 l 2268 222 z m 2379 -49 l 2485 -49 l 2485 -4 l 2424 -4 l 2424 68 l 2474 68 l 2474 117 l 2424 117 l 2424 175 l 2485 175 l 2485 222 l 2379 222 z "}," ":{"ha":306,"x_min":0,"x_max":0,"o":""},"A":{"ha":882,"x_min":0,"x_max":0,"o":"m 746 872 b 735 771 743 869 740 833 b 674 846 722 797 703 822 b 472 890 615 893 547 900 b 69 539 204 858 67 667 b 242 458 74 401 228 392 b 224 465 244 471 233 478 b 146 486 192 426 147 443 b 571 839 140 588 329 839 b 649 822 600 839 626 833 b 508 394 757 764 582 494 b 344 188 456 322 397 251 b 297 175 317 182 299 178 b 310 149 293 171 300 158 b 190 1 258 88 215 36 b 188 -22 183 -6 181 -8 b 232 -64 194 -39 217 -58 b 250 -60 246 -69 247 -64 b 419 150 271 -24 339 54 b 644 178 481 161 574 175 b 593 -125 624 75 604 -12 b 625 -196 592 -144 582 -162 b 661 -206 635 -203 654 -215 b 663 -196 663 -203 663 -199 b 726 176 675 -51 700 49 b 757 163 733 171 749 161 b 733 214 774 164 760 196 b 813 801 761 350 790 521 b 746 872 817 844 760 882 z m 469 211 b 618 404 519 272 572 339 b 711 556 653 454 688 506 b 660 250 700 467 683 363 l 656 229 b 469 211 601 228 532 221 z "},"Á":{"ha":882,"x_min":0,"x_max":0,"o":"m 746 872 b 735 771 743 869 740 833 b 674 846 722 797 703 822 b 472 890 615 893 547 900 b 69 539 204 858 67 667 b 242 458 74 401 228 392 b 224 465 244 471 233 478 b 146 486 192 426 147 443 b 571 839 140 588 329 839 b 649 822 600 839 626 833 b 508 394 757 764 582 494 b 344 188 456 322 397 251 b 297 175 317 182 299 178 b 310 149 293 171 300 158 b 190 1 258 88 215 36 b 188 -22 183 -6 181 -8 b 232 -64 194 -39 217 -58 b 250 -60 246 -69 247 -64 b 419 150 271 -24 339 54 b 644 178 481 161 574 175 b 593 -125 624 75 604 -12 b 625 -196 592 -144 582 -162 b 661 -206 635 -203 654 -215 b 663 -196 663 -203 663 -199 b 726 176 675 -51 700 49 b 757 163 733 171 749 161 b 733 214 774 164 760 196 b 813 801 761 350 790 521 b 746 872 817 844 760 882 z m 469 211 b 618 404 519 272 572 339 b 711 556 653 454 688 506 b 660 250 700 467 683 363 l 656 229 b 469 211 601 228 532 221 z m 678 986 b 688 944 671 974 663 965 b 708 935 692 940 700 932 b 715 940 711 936 713 939 b 906 1078 750 994 838 1065 b 918 1082 910 1078 914 1078 b 849 1158 929 1094 875 1156 b 678 986 828 1160 724 1072 z "},"Ă":{"ha":882,"x_min":0,"x_max":0,"o":"m 746 872 b 735 771 743 869 740 833 b 674 846 722 797 703 822 b 472 890 615 893 547 900 b 69 539 204 858 67 667 b 242 458 74 401 228 392 b 224 465 244 471 233 478 b 146 486 192 426 147 443 b 571 839 140 588 329 839 b 649 822 600 839 626 833 b 508 394 757 764 582 494 b 344 188 456 322 397 251 b 297 175 317 182 299 178 b 310 149 293 171 300 158 b 190 1 258 88 215 36 b 188 -22 183 -6 181 -8 b 232 -64 194 -39 217 -58 b 250 -60 246 -69 247 -64 b 419 150 271 -24 339 54 b 644 178 481 161 574 175 b 593 -125 624 75 604 -12 b 625 -196 592 -144 582 -162 b 661 -206 635 -203 654 -215 b 663 -196 663 -203 663 -199 b 726 176 675 -51 700 49 b 757 163 733 171 749 161 b 733 214 774 164 760 196 b 813 801 761 350 790 521 b 746 872 817 844 760 882 z m 469 211 b 618 404 519 272 572 339 b 711 556 653 454 688 506 b 660 250 700 467 683 363 l 656 229 b 469 211 601 228 532 221 z m 663 1063 b 794 907 617 981 708 907 b 972 1065 878 907 972 996 b 882 1033 972 1133 935 1113 b 763 971 865 1008 807 971 b 733 1054 733 971 708 1007 b 663 1063 750 1086 706 1139 z "},"Ắ":{"ha":882,"x_min":0,"x_max":0,"o":"m 746 872 b 735 771 743 869 740 833 b 674 846 722 797 703 822 b 472 890 615 893 547 900 b 69 539 204 858 67 667 b 242 458 74 401 228 392 b 224 465 244 471 233 478 b 146 486 192 426 147 443 b 571 839 140 588 329 839 b 649 822 600 839 626 833 b 508 394 757 764 582 494 b 344 188 456 322 397 251 b 297 175 317 182 299 178 b 310 149 293 171 300 158 b 190 1 258 88 215 36 b 188 -22 183 -6 181 -8 b 232 -64 194 -39 217 -58 b 250 -60 246 -69 247 -64 b 419 150 271 -24 339 54 b 644 178 481 161 574 175 b 593 -125 624 75 604 -12 b 625 -196 592 -144 582 -162 b 661 -206 635 -203 654 -215 b 663 -196 663 -203 663 -199 b 726 176 675 -51 700 49 b 757 163 733 171 749 161 b 733 214 774 164 760 196 b 813 801 761 350 790 521 b 746 872 817 844 760 882 z m 469 211 b 618 404 519 272 572 339 b 711 556 653 454 688 506 b 660 250 700 467 683 363 l 656 229 b 469 211 601 228 532 221 z m 663 1063 b 794 907 617 981 708 907 b 972 1065 878 907 972 996 b 882 1033 972 1133 935 1113 b 763 971 865 1008 807 971 b 733 1054 733 971 708 1007 b 663 1063 750 1086 706 1139 z m 732 1175 b 742 1133 725 1163 717 1154 b 763 1124 746 1129 754 1121 b 769 1129 765 1125 767 1128 b 960 1267 804 1183 892 1254 b 972 1271 964 1267 968 1267 b 903 1347 983 1283 929 1344 b 732 1175 882 1349 778 1261 z "},"Ặ":{"ha":882,"x_min":0,"x_max":0,"o":"m 746 872 b 735 771 743 869 740 833 b 674 846 722 797 703 822 b 472 890 615 893 547 900 b 69 539 204 858 67 667 b 242 458 74 401 228 392 b 224 465 244 471 233 478 b 146 486 192 426 147 443 b 571 839 140 588 329 839 b 649 822 600 839 626 833 b 508 394 757 764 582 494 b 344 188 456 322 397 251 b 297 175 317 182 299 178 b 310 149 293 171 300 158 b 190 1 258 88 215 36 b 188 -22 183 -6 181 -8 b 232 -64 194 -39 217 -58 b 250 -60 246 -69 247 -64 b 419 150 271 -24 339 54 b 644 178 481 161 574 175 b 593 -125 624 75 604 -12 b 625 -196 592 -144 582 -162 b 661 -206 635 -203 654 -215 b 663 -196 663 -203 663 -199 b 726 176 675 -51 700 49 b 757 163 733 171 749 161 b 733 214 774 164 760 196 b 813 801 761 350 790 521 b 746 872 817 844 760 882 z m 333 -171 b 378 -262 322 -218 342 -258 b 461 -185 414 -267 450 -232 b 417 -94 472 -139 453 -99 b 333 -171 381 -90 343 -125 z m 469 211 b 618 404 519 272 572 339 b 711 556 653 454 688 506 b 660 250 700 467 683 363 l 656 229 b 469 211 601 228 532 221 z m 663 1063 b 794 907 617 981 708 907 b 972 1065 878 907 972 996 b 882 1033 972 1133 935 1113 b 763 971 865 1008 807 971 b 733 1054 733 971 708 1007 b 663 1063 750 1086 706 1139 z "},"Ằ":{"ha":882,"x_min":0,"x_max":0,"o":"m 746 872 b 735 771 743 869 740 833 b 674 846 722 797 703 822 b 472 890 615 893 547 900 b 69 539 204 858 67 667 b 242 458 74 401 228 392 b 224 465 244 471 233 478 b 146 486 192 426 147 443 b 571 839 140 588 329 839 b 649 822 600 839 626 833 b 508 394 757 764 582 494 b 344 188 456 322 397 251 b 297 175 317 182 299 178 b 310 149 293 171 300 158 b 190 1 258 88 215 36 b 188 -22 183 -6 181 -8 b 232 -64 194 -39 217 -58 b 250 -60 246 -69 247 -64 b 419 150 271 -24 339 54 b 644 178 481 161 574 175 b 593 -125 624 75 604 -12 b 625 -196 592 -144 582 -162 b 661 -206 635 -203 654 -215 b 663 -196 663 -203 663 -199 b 726 176 675 -51 700 49 b 757 163 733 171 749 161 b 733 214 774 164 760 196 b 813 801 761 350 790 521 b 746 872 817 844 760 882 z m 469 211 b 618 404 519 272 572 339 b 711 556 653 454 688 506 b 660 250 700 467 683 363 l 656 229 b 469 211 601 228 532 221 z m 663 1063 b 794 907 617 981 708 907 b 972 1065 878 907 972 996 b 882 1033 972 1133 935 1113 b 763 971 865 1008 807 971 b 733 1054 733 971 708 1007 b 663 1063 750 1086 706 1139 z m 700 1236 b 713 1232 704 1232 708 1232 b 904 1094 781 1219 868 1149 l 910 1089 b 931 1099 918 1086 926 1094 b 942 1140 956 1119 947 1128 b 769 1313 896 1226 790 1314 b 700 1236 743 1310 689 1249 z "},"Ẳ":{"ha":882,"x_min":0,"x_max":0,"o":"m 746 872 b 735 771 743 869 740 833 b 674 846 722 797 703 822 b 472 890 615 893 547 900 b 69 539 204 858 67 667 b 242 458 74 401 228 392 b 224 465 244 471 233 478 b 146 486 192 426 147 443 b 571 839 140 588 329 839 b 649 822 600 839 626 833 b 508 394 757 764 582 494 b 344 188 456 322 397 251 b 297 175 317 182 299 178 b 310 149 293 171 300 158 b 190 1 258 88 215 36 b 188 -22 183 -6 181 -8 b 232 -64 194 -39 217 -58 b 250 -60 246 -69 247 -64 b 419 150 271 -24 339 54 b 644 178 481 161 574 175 b 593 -125 624 75 604 -12 b 625 -196 592 -144 582 -162 b 661 -206 635 -203 654 -215 b 663 -196 663 -203 663 -199 b 726 176 675 -51 700 49 b 757 163 733 171 749 161 b 733 214 774 164 760 196 b 813 801 761 350 790 521 b 746 872 817 844 760 882 z m 469 211 b 618 404 519 272 572 339 b 711 556 653 454 688 506 b 660 250 700 467 683 363 l 656 229 b 469 211 601 228 532 221 z m 663 1063 b 794 907 617 981 708 907 b 972 1065 878 907 972 996 b 882 1033 972 1133 935 1113 b 763 971 865 1008 807 971 b 733 1054 733 971 708 1007 b 663 1063 750 1086 706 1139 z m 721 1261 b 754 1249 726 1239 754 1247 b 813 1313 750 1278 783 1304 b 821 1165 842 1268 843 1213 b 789 1118 801 1128 790 1126 b 792 1110 789 1115 790 1113 b 811 1097 797 1104 804 1101 b 874 1108 849 1082 856 1093 b 900 1310 942 1174 946 1260 b 757 1350 869 1343 800 1368 b 721 1261 722 1335 710 1297 z "},"Ẵ":{"ha":882,"x_min":0,"x_max":0,"o":"m 746 872 b 735 771 743 869 740 833 b 674 846 722 797 703 822 b 472 890 615 893 547 900 b 69 539 204 858 67 667 b 242 458 74 401 228 392 b 224 465 244 471 233 478 b 146 486 192 426 147 443 b 571 839 140 588 329 839 b 649 822 600 839 626 833 b 508 394 757 764 582 494 b 344 188 456 322 397 251 b 297 175 317 182 299 178 b 310 149 293 171 300 158 b 190 1 258 88 215 36 b 188 -22 183 -6 181 -8 b 232 -64 194 -39 217 -58 b 250 -60 246 -69 247 -64 b 419 150 271 -24 339 54 b 644 178 481 161 574 175 b 593 -125 624 75 604 -12 b 625 -196 592 -144 582 -162 b 661 -206 635 -203 654 -215 b 663 -196 663 -203 663 -199 b 726 176 675 -51 700 49 b 757 163 733 171 749 161 b 733 214 774 164 760 196 b 813 801 761 350 790 521 b 746 872 817 844 760 882 z m 469 211 b 618 404 519 272 572 339 b 711 556 653 454 688 506 b 660 250 700 467 683 363 l 656 229 b 469 211 601 228 532 221 z m 657 1200 b 696 1193 661 1192 688 1182 b 763 1261 703 1206 724 1233 b 797 1164 764 1218 764 1182 b 861 1156 817 1156 840 1151 b 1043 1283 901 1165 1014 1264 b 997 1304 1065 1297 1026 1331 b 864 1200 978 1286 896 1218 b 814 1300 864 1240 864 1281 b 756 1300 794 1306 774 1308 b 657 1200 711 1286 654 1208 z m 663 1063 b 794 907 617 981 708 907 b 972 1065 878 907 972 996 b 882 1033 972 1133 935 1113 b 763 971 865 1008 807 971 b 733 1054 733 971 708 1007 b 663 1063 750 1086 706 1139 z "},"Ǎ":{"ha":882,"x_min":0,"x_max":0,"o":"m 746 872 b 735 771 743 869 740 833 b 674 846 722 797 703 822 b 472 890 615 893 547 900 b 69 539 204 858 67 667 b 242 458 74 401 228 392 b 224 465 244 471 233 478 b 146 486 192 426 147 443 b 571 839 140 588 329 839 b 649 822 600 839 626 833 b 508 394 757 764 582 494 b 344 188 456 322 397 251 b 297 175 317 182 299 178 b 310 149 293 171 300 158 b 190 1 258 88 215 36 b 188 -22 183 -6 181 -8 b 232 -64 194 -39 217 -58 b 250 -60 246 -69 247 -64 b 419 150 271 -24 339 54 b 644 178 481 161 574 175 b 593 -125 624 75 604 -12 b 625 -196 592 -144 582 -162 b 661 -206 635 -203 654 -215 b 663 -196 663 -203 663 -199 b 726 176 675 -51 700 49 b 757 163 733 171 749 161 b 733 214 774 164 760 196 b 813 801 761 350 790 521 b 746 872 817 844 760 882 z m 469 211 b 618 404 519 272 572 339 b 711 556 653 454 688 506 b 660 250 700 467 683 363 l 656 229 b 469 211 601 228 532 221 z m 650 1125 b 696 1029 649 1106 678 1092 b 708 964 707 996 699 983 b 807 908 728 926 792 889 b 808 933 808 910 808 921 b 919 1038 824 956 857 997 b 938 1060 932 1046 944 1046 b 886 1096 932 1072 904 1097 b 878 1089 883 1096 879 1092 b 790 1004 842 1067 815 1038 b 721 1106 775 1039 754 1076 b 661 1135 704 1121 683 1133 b 650 1125 654 1133 650 1131 z "},"Â":{"ha":882,"x_min":0,"x_max":0,"o":"m 746 872 b 735 771 743 869 740 833 b 674 846 722 797 703 822 b 472 890 615 893 547 900 b 69 539 204 858 67 667 b 242 458 74 401 228 392 b 224 465 244 471 233 478 b 146 486 192 426 147 443 b 571 839 140 588 329 839 b 649 822 600 839 626 833 b 508 394 757 764 582 494 b 344 188 456 322 397 251 b 297 175 317 182 299 178 b 310 149 293 171 300 158 b 190 1 258 88 215 36 b 188 -22 183 -6 181 -8 b 232 -64 194 -39 217 -58 b 250 -60 246 -69 247 -64 b 419 150 271 -24 339 54 b 644 178 481 161 574 175 b 593 -125 624 75 604 -12 b 625 -196 592 -144 582 -162 b 661 -206 635 -203 654 -215 b 663 -196 663 -203 663 -199 b 726 176 675 -51 700 49 b 757 163 733 171 749 161 b 733 214 774 164 760 196 b 813 801 761 350 790 521 b 746 872 817 844 760 882 z m 469 211 b 618 404 519 272 572 339 b 711 556 653 454 688 506 b 660 250 700 467 683 363 l 656 229 b 469 211 601 228 532 221 z m 615 971 b 665 933 621 956 649 931 b 675 939 669 933 671 938 b 763 1025 708 964 738 992 b 829 925 775 989 799 951 b 890 893 846 908 867 896 b 900 904 899 896 900 900 b 854 1001 904 922 874 938 b 844 1064 846 1033 853 1046 b 746 1122 825 1101 758 1139 b 744 1096 744 1118 742 1108 b 633 992 728 1072 696 1031 b 615 971 619 983 608 983 z "},"Ấ":{"ha":882,"x_min":0,"x_max":0,"o":"m 746 872 b 735 771 743 869 740 833 b 674 846 722 797 703 822 b 472 890 615 893 547 900 b 69 539 204 858 67 667 b 242 458 74 401 228 392 b 224 465 244 471 233 478 b 146 486 192 426 147 443 b 571 839 140 588 329 839 b 649 822 600 839 626 833 b 508 394 757 764 582 494 b 344 188 456 322 397 251 b 297 175 317 182 299 178 b 310 149 293 171 300 158 b 190 1 258 88 215 36 b 188 -22 183 -6 181 -8 b 232 -64 194 -39 217 -58 b 250 -60 246 -69 247 -64 b 419 150 271 -24 339 54 b 644 178 481 161 574 175 b 593 -125 624 75 604 -12 b 625 -196 592 -144 582 -162 b 661 -206 635 -203 654 -215 b 663 -196 663 -203 663 -199 b 726 176 675 -51 700 49 b 757 163 733 171 749 161 b 733 214 774 164 760 196 b 813 801 761 350 790 521 b 746 872 817 844 760 882 z m 469 211 b 618 404 519 272 572 339 b 711 556 653 454 688 506 b 660 250 700 467 683 363 l 656 229 b 469 211 601 228 532 221 z m 615 971 b 665 933 621 956 649 931 b 675 939 669 933 671 938 b 763 1025 708 964 738 992 b 829 925 775 989 799 951 b 890 893 846 908 867 896 b 900 904 899 896 900 900 b 854 1001 904 922 874 938 b 844 1064 846 1033 853 1046 b 746 1122 825 1101 758 1139 b 744 1096 744 1118 742 1108 b 633 992 728 1072 696 1031 b 615 971 619 983 608 983 z m 742 1240 b 751 1199 735 1228 726 1219 b 772 1189 756 1194 764 1186 b 779 1194 775 1190 776 1193 b 969 1332 814 1249 901 1319 b 982 1336 974 1332 978 1332 b 913 1413 993 1349 939 1410 b 742 1240 892 1414 788 1326 z "},"Ậ":{"ha":882,"x_min":0,"x_max":0,"o":"m 746 872 b 735 771 743 869 740 833 b 674 846 722 797 703 822 b 472 890 615 893 547 900 b 69 539 204 858 67 667 b 242 458 74 401 228 392 b 224 465 244 471 233 478 b 146 486 192 426 147 443 b 571 839 140 588 329 839 b 649 822 600 839 626 833 b 508 394 757 764 582 494 b 344 188 456 322 397 251 b 297 175 317 182 299 178 b 310 149 293 171 300 158 b 190 1 258 88 215 36 b 188 -22 183 -6 181 -8 b 232 -64 194 -39 217 -58 b 250 -60 246 -69 247 -64 b 419 150 271 -24 339 54 b 644 178 481 161 574 175 b 593 -125 624 75 604 -12 b 625 -196 592 -144 582 -162 b 661 -206 635 -203 654 -215 b 663 -196 663 -203 663 -199 b 726 176 675 -51 700 49 b 757 163 733 171 749 161 b 733 214 774 164 760 196 b 813 801 761 350 790 521 b 746 872 817 844 760 882 z m 333 -171 b 378 -262 322 -218 342 -258 b 461 -185 414 -267 450 -232 b 417 -94 472 -139 453 -99 b 333 -171 381 -90 343 -125 z m 469 211 b 618 404 519 272 572 339 b 711 556 653 454 688 506 b 660 250 700 467 683 363 l 656 229 b 469 211 601 228 532 221 z m 615 971 b 665 933 621 956 649 931 b 675 939 669 933 671 938 b 763 1025 708 964 738 992 b 829 925 775 989 799 951 b 890 893 846 908 867 896 b 900 904 899 896 900 900 b 854 1001 904 922 874 938 b 844 1064 846 1033 853 1046 b 746 1122 825 1101 758 1139 b 744 1096 744 1118 742 1108 b 633 992 728 1072 696 1031 b 615 971 619 983 608 983 z "},"Ầ":{"ha":882,"x_min":0,"x_max":0,"o":"m 746 872 b 735 771 743 869 740 833 b 674 846 722 797 703 822 b 472 890 615 893 547 900 b 69 539 204 858 67 667 b 242 458 74 401 228 392 b 224 465 244 471 233 478 b 146 486 192 426 147 443 b 571 839 140 588 329 839 b 649 822 600 839 626 833 b 508 394 757 764 582 494 b 344 188 456 322 397 251 b 297 175 317 182 299 178 b 310 149 293 171 300 158 b 190 1 258 88 215 36 b 188 -22 183 -6 181 -8 b 232 -64 194 -39 217 -58 b 250 -60 246 -69 247 -64 b 419 150 271 -24 339 54 b 644 178 481 161 574 175 b 593 -125 624 75 604 -12 b 625 -196 592 -144 582 -162 b 661 -206 635 -203 654 -215 b 663 -196 663 -203 663 -199 b 726 176 675 -51 700 49 b 757 163 733 171 749 161 b 733 214 774 164 760 196 b 813 801 761 350 790 521 b 746 872 817 844 760 882 z m 469 211 b 618 404 519 272 572 339 b 711 556 653 454 688 506 b 660 250 700 467 683 363 l 656 229 b 469 211 601 228 532 221 z m 615 971 b 665 933 621 956 649 931 b 675 939 669 933 671 938 b 763 1025 708 964 738 992 b 829 925 775 989 799 951 b 890 893 846 908 867 896 b 900 904 899 896 900 900 b 854 1001 904 922 874 938 b 844 1064 846 1033 853 1046 b 746 1122 825 1101 758 1139 b 744 1096 744 1118 742 1108 b 633 992 728 1072 696 1031 b 615 971 619 983 608 983 z m 710 1301 b 722 1297 714 1297 718 1297 b 914 1160 790 1285 878 1214 l 919 1154 b 940 1164 928 1151 936 1160 b 951 1206 965 1185 957 1193 b 779 1378 906 1292 800 1379 b 710 1301 753 1375 699 1314 z "},"Ẩ":{"ha":882,"x_min":0,"x_max":0,"o":"m 746 872 b 735 771 743 869 740 833 b 674 846 722 797 703 822 b 472 890 615 893 547 900 b 69 539 204 858 67 667 b 242 458 74 401 228 392 b 224 465 244 471 233 478 b 146 486 192 426 147 443 b 571 839 140 588 329 839 b 649 822 600 839 626 833 b 508 394 757 764 582 494 b 344 188 456 322 397 251 b 297 175 317 182 299 178 b 310 149 293 171 300 158 b 190 1 258 88 215 36 b 188 -22 183 -6 181 -8 b 232 -64 194 -39 217 -58 b 250 -60 246 -69 247 -64 b 419 150 271 -24 339 54 b 644 178 481 161 574 175 b 593 -125 624 75 604 -12 b 625 -196 592 -144 582 -162 b 661 -206 635 -203 654 -215 b 663 -196 663 -203 663 -199 b 726 176 675 -51 700 49 b 757 163 733 171 749 161 b 733 214 774 164 760 196 b 813 801 761 350 790 521 b 746 872 817 844 760 882 z m 469 211 b 618 404 519 272 572 339 b 711 556 653 454 688 506 b 660 250 700 467 683 363 l 656 229 b 469 211 601 228 532 221 z m 615 971 b 665 933 621 956 649 931 b 675 939 669 933 671 938 b 763 1025 708 964 738 992 b 829 925 775 989 799 951 b 890 893 846 908 867 896 b 900 904 899 896 900 900 b 854 1001 904 922 874 938 b 844 1064 846 1033 853 1046 b 746 1122 825 1101 758 1139 b 744 1096 744 1118 742 1108 b 633 992 728 1072 696 1031 b 615 971 619 983 608 983 z m 731 1326 b 764 1314 736 1304 764 1313 b 822 1378 760 1343 793 1369 b 831 1231 851 1333 853 1278 b 799 1183 811 1193 800 1192 b 801 1175 799 1181 800 1178 b 821 1163 807 1169 814 1167 b 883 1174 858 1147 865 1158 b 910 1375 951 1239 956 1325 b 767 1415 879 1408 810 1433 b 731 1326 732 1400 719 1363 z "},"Ẫ":{"ha":882,"x_min":0,"x_max":0,"o":"m 746 872 b 735 771 743 869 740 833 b 674 846 722 797 703 822 b 472 890 615 893 547 900 b 69 539 204 858 67 667 b 242 458 74 401 228 392 b 224 465 244 471 233 478 b 146 486 192 426 147 443 b 571 839 140 588 329 839 b 649 822 600 839 626 833 b 508 394 757 764 582 494 b 344 188 456 322 397 251 b 297 175 317 182 299 178 b 310 149 293 171 300 158 b 190 1 258 88 215 36 b 188 -22 183 -6 181 -8 b 232 -64 194 -39 217 -58 b 250 -60 246 -69 247 -64 b 419 150 271 -24 339 54 b 644 178 481 161 574 175 b 593 -125 624 75 604 -12 b 625 -196 592 -144 582 -162 b 661 -206 635 -203 654 -215 b 663 -196 663 -203 663 -199 b 726 176 675 -51 700 49 b 757 163 733 171 749 161 b 733 214 774 164 760 196 b 813 801 761 350 790 521 b 746 872 817 844 760 882 z m 469 211 b 618 404 519 272 572 339 b 711 556 653 454 688 506 b 660 250 700 467 683 363 l 656 229 b 469 211 601 228 532 221 z m 615 971 b 665 933 621 956 649 931 b 675 939 669 933 671 938 b 763 1025 708 964 738 992 b 829 925 775 989 799 951 b 890 893 846 908 867 896 b 900 904 899 896 900 900 b 854 1001 904 922 874 938 b 844 1064 846 1033 853 1046 b 746 1122 825 1101 758 1139 b 744 1096 744 1118 742 1108 b 633 992 728 1072 696 1031 b 615 971 619 983 608 983 z m 667 1265 b 706 1258 671 1257 697 1247 b 772 1326 713 1271 733 1299 b 807 1229 774 1283 774 1247 b 871 1221 826 1221 850 1217 b 1053 1349 911 1231 1024 1329 b 1007 1369 1075 1363 1036 1396 b 874 1265 988 1351 906 1283 b 824 1365 874 1306 874 1346 b 765 1365 804 1371 783 1374 b 667 1265 721 1351 664 1274 z "},"Ä":{"ha":882,"x_min":0,"x_max":0,"o":"m 746 872 b 735 771 743 869 740 833 b 674 846 722 797 703 822 b 472 890 615 893 547 900 b 69 539 204 858 67 667 b 242 458 74 401 228 392 b 224 465 244 471 233 478 b 146 486 192 426 147 443 b 571 839 140 588 329 839 b 649 822 600 839 626 833 b 508 394 757 764 582 494 b 344 188 456 322 397 251 b 297 175 317 182 299 178 b 310 149 293 171 300 158 b 190 1 258 88 215 36 b 188 -22 183 -6 181 -8 b 232 -64 194 -39 217 -58 b 250 -60 246 -69 247 -64 b 419 150 271 -24 339 54 b 644 178 481 161 574 175 b 593 -125 624 75 604 -12 b 625 -196 592 -144 582 -162 b 661 -206 635 -203 654 -215 b 663 -196 663 -203 663 -199 b 726 176 675 -51 700 49 b 757 163 733 171 749 161 b 733 214 774 164 760 196 b 813 801 761 350 790 521 b 746 872 817 844 760 882 z m 469 211 b 618 404 519 272 572 339 b 711 556 653 454 688 506 b 660 250 700 467 683 363 l 656 229 b 469 211 601 228 532 221 z m 643 1022 b 688 932 632 976 651 936 b 771 1008 724 928 761 963 b 726 1100 782 1056 763 1096 b 643 1022 690 1104 654 1069 z m 824 1022 b 868 932 813 976 832 936 b 951 1008 904 928 942 963 b 907 1100 963 1056 943 1096 b 824 1022 871 1104 835 1069 z "},"Ǟ":{"ha":882,"x_min":0,"x_max":0,"o":"m 746 872 b 735 771 743 869 740 833 b 674 846 722 797 703 822 b 472 890 615 893 547 900 b 69 539 204 858 67 667 b 242 458 74 401 228 392 b 224 465 244 471 233 478 b 146 486 192 426 147 443 b 571 839 140 588 329 839 b 649 822 600 839 626 833 b 508 394 757 764 582 494 b 344 188 456 322 397 251 b 297 175 317 182 299 178 b 310 149 293 171 300 158 b 190 1 258 88 215 36 b 188 -22 183 -6 181 -8 b 232 -64 194 -39 217 -58 b 250 -60 246 -69 247 -64 b 419 150 271 -24 339 54 b 644 178 481 161 574 175 b 593 -125 624 75 604 -12 b 625 -196 592 -144 582 -162 b 661 -206 635 -203 654 -215 b 663 -196 663 -203 663 -199 b 726 176 675 -51 700 49 b 757 163 733 171 749 161 b 733 214 774 164 760 196 b 813 801 761 350 790 521 b 746 872 817 844 760 882 z m 469 211 b 618 404 519 272 572 339 b 711 556 653 454 688 506 b 660 250 700 467 683 363 l 656 229 b 469 211 601 228 532 221 z m 643 1022 b 688 932 632 976 651 936 b 771 1008 724 928 761 963 b 726 1100 782 1056 763 1096 b 643 1022 690 1104 654 1069 z m 658 1194 b 1011 1207 667 1194 875 1218 b 1056 1292 1042 1204 1088 1289 b 729 1282 1024 1294 868 1279 b 658 1194 683 1283 633 1194 z m 824 1022 b 868 932 813 976 832 936 b 951 1008 904 928 942 963 b 907 1100 963 1056 943 1096 b 824 1022 871 1104 835 1069 z "},"Ạ":{"ha":882,"x_min":0,"x_max":0,"o":"m 746 872 b 735 771 743 869 740 833 b 674 846 722 797 703 822 b 472 890 615 893 547 900 b 69 539 204 858 67 667 b 242 458 74 401 228 392 b 224 465 244 471 233 478 b 146 486 192 426 147 443 b 571 839 140 588 329 839 b 649 822 600 839 626 833 b 508 394 757 764 582 494 b 344 188 456 322 397 251 b 297 175 317 182 299 178 b 310 149 293 171 300 158 b 190 1 258 88 215 36 b 188 -22 183 -6 181 -8 b 232 -64 194 -39 217 -58 b 250 -60 246 -69 247 -64 b 419 150 271 -24 339 54 b 644 178 481 161 574 175 b 593 -125 624 75 604 -12 b 625 -196 592 -144 582 -162 b 661 -206 635 -203 654 -215 b 663 -196 663 -203 663 -199 b 726 176 675 -51 700 49 b 757 163 733 171 749 161 b 733 214 774 164 760 196 b 813 801 761 350 790 521 b 746 872 817 844 760 882 z m 333 -171 b 378 -262 322 -218 342 -258 b 461 -185 414 -267 450 -232 b 417 -94 472 -139 453 -99 b 333 -171 381 -90 343 -125 z m 469 211 b 618 404 519 272 572 339 b 711 556 653 454 688 506 b 660 250 700 467 683 363 l 656 229 b 469 211 601 228 532 221 z "},"À":{"ha":882,"x_min":0,"x_max":0,"o":"m 746 872 b 735 771 743 869 740 833 b 674 846 722 797 703 822 b 472 890 615 893 547 900 b 69 539 204 858 67 667 b 242 458 74 401 228 392 b 224 465 244 471 233 478 b 146 486 192 426 147 443 b 571 839 140 588 329 839 b 649 822 600 839 626 833 b 508 394 757 764 582 494 b 344 188 456 322 397 251 b 297 175 317 182 299 178 b 310 149 293 171 300 158 b 190 1 258 88 215 36 b 188 -22 183 -6 181 -8 b 232 -64 194 -39 217 -58 b 250 -60 246 -69 247 -64 b 419 150 271 -24 339 54 b 644 178 481 161 574 175 b 593 -125 624 75 604 -12 b 625 -196 592 -144 582 -162 b 661 -206 635 -203 654 -215 b 663 -196 663 -203 663 -199 b 726 176 675 -51 700 49 b 757 163 733 171 749 161 b 733 214 774 164 760 196 b 813 801 761 350 790 521 b 746 872 817 844 760 882 z m 469 211 b 618 404 519 272 572 339 b 711 556 653 454 688 506 b 660 250 700 467 683 363 l 656 229 b 469 211 601 228 532 221 z m 646 1047 b 658 1043 650 1043 654 1043 b 850 906 726 1031 814 960 l 856 900 b 876 910 864 897 872 906 b 888 951 901 931 893 939 b 715 1124 842 1038 736 1125 b 646 1047 689 1121 635 1060 z "},"Ả":{"ha":882,"x_min":0,"x_max":0,"o":"m 746 872 b 735 771 743 869 740 833 b 674 846 722 797 703 822 b 472 890 615 893 547 900 b 69 539 204 858 67 667 b 242 458 74 401 228 392 b 224 465 244 471 233 478 b 146 486 192 426 147 443 b 571 839 140 588 329 839 b 649 822 600 839 626 833 b 508 394 757 764 582 494 b 344 188 456 322 397 251 b 297 175 317 182 299 178 b 310 149 293 171 300 158 b 190 1 258 88 215 36 b 188 -22 183 -6 181 -8 b 232 -64 194 -39 217 -58 b 250 -60 246 -69 247 -64 b 419 150 271 -24 339 54 b 644 178 481 161 574 175 b 593 -125 624 75 604 -12 b 625 -196 592 -144 582 -162 b 661 -206 635 -203 654 -215 b 663 -196 663 -203 663 -199 b 726 176 675 -51 700 49 b 757 163 733 171 749 161 b 733 214 774 164 760 196 b 813 801 761 350 790 521 b 746 872 817 844 760 882 z m 469 211 b 618 404 519 272 572 339 b 711 556 653 454 688 506 b 660 250 700 467 683 363 l 656 229 b 469 211 601 228 532 221 z m 667 1072 b 700 1060 672 1050 700 1058 b 758 1124 696 1089 729 1115 b 767 976 788 1079 789 1024 b 735 929 747 939 736 938 b 738 921 735 926 736 924 b 757 908 743 915 750 913 b 819 919 794 893 801 904 b 846 1121 888 985 892 1071 b 703 1161 815 1154 746 1179 b 667 1072 668 1146 656 1108 z "},"Ā":{"ha":882,"x_min":0,"x_max":0,"o":"m 746 872 b 735 771 743 869 740 833 b 674 846 722 797 703 822 b 472 890 615 893 547 900 b 69 539 204 858 67 667 b 242 458 74 401 228 392 b 224 465 244 471 233 478 b 146 486 192 426 147 443 b 571 839 140 588 329 839 b 649 822 600 839 626 833 b 508 394 757 764 582 494 b 344 188 456 322 397 251 b 297 175 317 182 299 178 b 310 149 293 171 300 158 b 190 1 258 88 215 36 b 188 -22 183 -6 181 -8 b 232 -64 194 -39 217 -58 b 250 -60 246 -69 247 -64 b 419 150 271 -24 339 54 b 644 178 481 161 574 175 b 593 -125 624 75 604 -12 b 625 -196 592 -144 582 -162 b 661 -206 635 -203 654 -215 b 663 -196 663 -203 663 -199 b 726 176 675 -51 700 49 b 757 163 733 171 749 161 b 733 214 774 164 760 196 b 813 801 761 350 790 521 b 746 872 817 844 760 882 z m 469 211 b 618 404 519 272 572 339 b 711 556 653 454 688 506 b 660 250 700 467 683 363 l 656 229 b 469 211 601 228 532 221 z m 590 968 b 943 981 599 968 807 992 b 988 1065 974 978 1019 1063 b 661 1056 956 1068 800 1053 b 590 968 615 1057 565 968 z "},"Ą":{"ha":882,"x_min":0,"x_max":0,"o":"m 746 872 b 735 771 743 869 740 833 b 674 846 722 797 703 822 b 472 890 615 893 547 900 b 69 539 204 858 67 667 b 242 458 74 401 228 392 b 224 465 244 471 233 478 b 146 486 192 426 147 443 b 571 839 140 588 329 839 b 649 822 600 839 626 833 b 508 394 757 764 582 494 b 344 188 456 322 397 251 b 297 175 317 182 299 178 b 310 149 293 171 300 158 b 190 1 258 88 215 36 b 188 -22 183 -6 181 -8 b 232 -64 194 -39 217 -58 b 250 -60 246 -69 247 -64 b 419 150 271 -24 339 54 b 644 178 481 161 574 175 b 593 -125 624 75 604 -12 b 594 -161 592 -136 589 -147 b 564 -178 581 -161 574 -168 b 539 -357 501 -236 499 -312 b 668 -393 567 -387 629 -410 b 701 -314 700 -379 711 -346 b 671 -303 696 -294 671 -301 b 618 -360 675 -329 644 -353 b 611 -228 592 -319 590 -271 b 629 -199 618 -212 625 -204 b 661 -206 640 -206 656 -214 b 663 -196 663 -203 663 -199 b 726 176 675 -51 700 49 b 757 163 733 171 749 161 b 733 214 774 164 760 196 b 813 801 761 350 790 521 b 746 872 817 844 760 882 z m 469 211 b 618 404 519 272 572 339 b 711 556 653 454 688 506 b 660 250 700 467 683 363 l 656 229 b 469 211 601 228 532 221 z "},"Å":{"ha":882,"x_min":0,"x_max":0,"o":"m 746 872 b 735 771 743 869 740 833 b 674 846 722 797 703 822 b 472 890 615 893 547 900 b 69 539 204 858 67 667 b 242 458 74 401 228 392 b 224 465 244 471 233 478 b 146 486 192 426 147 443 b 571 839 140 588 329 839 b 649 822 600 839 626 833 b 508 394 757 764 582 494 b 344 188 456 322 397 251 b 297 175 317 182 299 178 b 310 149 293 171 300 158 b 190 1 258 88 215 36 b 188 -22 183 -6 181 -8 b 232 -64 194 -39 217 -58 b 250 -60 246 -69 247 -64 b 419 150 271 -24 339 54 b 644 178 481 161 574 175 b 593 -125 624 75 604 -12 b 625 -196 592 -144 582 -162 b 661 -206 635 -203 654 -215 b 663 -196 663 -203 663 -199 b 726 176 675 -51 700 49 b 757 163 733 171 749 161 b 733 214 774 164 760 196 b 813 801 761 350 790 521 b 746 872 817 844 760 882 z m 469 211 b 618 404 519 272 572 339 b 711 556 653 454 688 506 b 660 250 700 467 683 363 l 656 229 b 469 211 601 228 532 221 z m 647 1051 b 747 942 626 985 671 942 b 918 1051 821 942 899 985 b 822 1176 940 1119 897 1176 b 647 1051 746 1176 668 1119 z m 729 1060 b 813 1147 746 1108 782 1147 b 846 1060 843 1147 860 1108 b 761 975 829 1010 790 975 b 729 1060 729 975 714 1010 z "},"Ã":{"ha":882,"x_min":0,"x_max":0,"o":"m 746 872 b 735 771 743 869 740 833 b 674 846 722 797 703 822 b 472 890 615 893 547 900 b 69 539 204 858 67 667 b 242 458 74 401 228 392 b 224 465 244 471 233 478 b 146 486 192 426 147 443 b 571 839 140 588 329 839 b 649 822 600 839 626 833 b 508 394 757 764 582 494 b 344 188 456 322 397 251 b 297 175 317 182 299 178 b 310 149 293 171 300 158 b 190 1 258 88 215 36 b 188 -22 183 -6 181 -8 b 232 -64 194 -39 217 -58 b 250 -60 246 -69 247 -64 b 419 150 271 -24 339 54 b 644 178 481 161 574 175 b 593 -125 624 75 604 -12 b 625 -196 592 -144 582 -162 b 661 -206 635 -203 654 -215 b 663 -196 663 -203 663 -199 b 726 176 675 -51 700 49 b 757 163 733 171 749 161 b 733 214 774 164 760 196 b 813 801 761 350 790 521 b 746 872 817 844 760 882 z m 469 211 b 618 404 519 272 572 339 b 711 556 653 454 688 506 b 660 250 700 467 683 363 l 656 229 b 469 211 601 228 532 221 z m 603 1011 b 642 1004 607 1003 633 993 b 708 1072 649 1017 669 1044 b 743 975 710 1029 710 993 b 807 967 763 967 786 963 b 989 1094 847 976 960 1075 b 943 1115 1011 1108 972 1142 b 810 1011 924 1097 842 1029 b 760 1111 810 1051 810 1092 b 701 1111 740 1117 719 1119 b 603 1011 657 1097 600 1019 z "},"Æ":{"ha":1447,"x_min":0,"x_max":0,"o":"m 1372 729 b 1308 758 1353 754 1336 754 b 1053 782 1219 776 1135 783 b 979 790 1033 790 996 799 b 967 778 978 790 974 786 b 914 713 924 786 879 740 b 788 513 871 654 828 586 b 813 769 797 588 806 672 b 746 840 817 813 760 850 b 735 739 743 838 740 801 b 674 814 722 765 703 790 b 472 858 615 861 547 868 b 69 507 204 826 67 635 b 242 426 74 369 228 360 b 224 433 244 439 233 446 b 146 454 192 394 147 411 b 571 807 140 556 329 807 b 649 790 600 807 626 801 b 508 363 757 732 582 463 b 344 157 456 290 397 219 b 297 143 317 150 299 146 b 310 117 293 139 300 126 b 190 -29 258 56 215 4 b 188 -54 183 -37 181 -40 b 232 -96 194 -71 217 -90 b 250 -92 246 -101 247 -96 b 419 118 271 -56 339 22 b 640 146 479 129 569 142 b 713 -162 604 -7 615 -132 b 826 -161 757 -176 792 -175 b 882 -136 842 -158 860 -150 b 1056 61 951 -92 1006 -14 b 1035 104 1071 83 1082 92 b 965 89 986 115 976 106 b 858 -57 946 63 907 -1 b 761 132 731 -204 728 -43 b 764 143 764 133 765 138 b 824 358 779 224 803 304 b 1239 439 929 386 1171 429 b 1303 449 1300 449 1299 444 b 1294 469 1308 453 1299 465 b 1263 492 1286 479 1274 489 b 854 429 1242 497 990 458 b 1039 732 899 526 961 631 b 1268 729 1113 738 1189 738 b 1376 714 1351 719 1371 711 b 1372 729 1382 717 1375 725 z m 469 179 b 618 372 519 240 572 307 b 711 524 653 422 688 474 b 660 218 700 435 683 332 l 660 217 b 654 197 658 210 656 204 b 469 179 600 196 532 189 z "},"Ǣ":{"ha":1447,"x_min":0,"x_max":0,"o":"m 1372 729 b 1308 758 1353 754 1336 754 b 1053 782 1219 776 1135 783 b 979 790 1033 790 996 799 b 967 778 978 790 974 786 b 914 713 924 786 879 740 b 788 513 871 654 828 586 b 813 769 797 588 806 672 b 746 840 817 813 760 850 b 735 739 743 838 740 801 b 674 814 722 765 703 790 b 472 858 615 861 547 868 b 69 507 204 826 67 635 b 242 426 74 369 228 360 b 224 433 244 439 233 446 b 146 454 192 394 147 411 b 571 807 140 556 329 807 b 649 790 600 807 626 801 b 508 363 757 732 582 463 b 344 157 456 290 397 219 b 297 143 317 150 299 146 b 310 117 293 139 300 126 b 190 -29 258 56 215 4 b 188 -54 183 -37 181 -40 b 232 -96 194 -71 217 -90 b 250 -92 246 -101 247 -96 b 419 118 271 -56 339 22 b 640 146 479 129 569 142 b 713 -162 604 -7 615 -132 b 826 -161 757 -176 792 -175 b 882 -136 842 -158 860 -150 b 1056 61 951 -92 1006 -14 b 1035 104 1071 83 1082 92 b 965 89 986 115 976 106 b 858 -57 946 63 907 -1 b 761 132 731 -204 728 -43 b 764 143 764 133 765 138 b 824 358 779 224 803 304 b 1239 439 929 386 1171 429 b 1303 449 1300 449 1299 444 b 1294 469 1308 453 1299 465 b 1263 492 1286 479 1274 489 b 854 429 1242 497 990 458 b 1039 732 899 526 961 631 b 1268 729 1113 738 1189 738 b 1376 714 1351 719 1371 711 b 1372 729 1382 717 1375 725 z m 469 179 b 618 372 519 240 572 307 b 711 524 653 422 688 474 b 660 218 700 435 683 332 l 660 217 b 654 197 658 210 656 204 b 469 179 600 196 532 189 z m 740 933 b 1093 946 749 933 957 957 b 1138 1031 1124 943 1169 1028 b 811 1021 1106 1033 950 1018 b 740 933 765 1022 715 933 z "},"B":{"ha":836,"x_min":0,"x_max":0,"o":"m 832 779 b 550 868 772 839 665 868 b 69 519 200 868 61 658 b 171 400 74 456 110 407 b 243 440 206 397 238 413 b 225 447 246 453 235 460 b 185 425 213 432 197 425 b 617 819 69 425 210 819 b 758 774 675 819 726 806 b 410 256 915 617 485 364 b 629 674 492 489 629 668 b 519 692 631 686 539 719 b 286 158 410 538 332 343 b 271 78 279 132 274 104 b 336 29 267 28 307 25 b 253 -157 261 -43 221 -118 b 335 -189 269 -176 310 -186 b 703 -46 456 -203 625 -142 b 746 53 725 -19 746 17 b 633 174 746 88 726 133 b 663 182 656 181 660 178 b 586 192 667 189 636 211 b 521 226 564 206 536 219 b 832 779 501 290 1043 568 z m 326 -118 b 593 158 279 -71 369 32 b 658 72 632 138 658 106 b 326 -118 658 -24 403 -194 z m 363 54 b 382 165 363 71 365 103 b 399 224 386 185 393 204 b 413 211 400 218 404 214 b 550 175 446 196 485 196 b 363 54 481 143 415 100 z "},"Ḅ":{"ha":836,"x_min":0,"x_max":0,"o":"m 832 779 b 550 868 772 839 665 868 b 69 519 200 868 61 658 b 171 400 74 456 110 407 b 243 440 206 397 238 413 b 225 447 246 453 235 460 b 185 425 213 432 197 425 b 617 819 69 425 210 819 b 758 774 675 819 726 806 b 410 256 915 617 485 364 b 629 674 492 489 629 668 b 519 692 631 686 539 719 b 286 158 410 538 332 343 b 271 78 279 132 274 104 b 336 29 267 28 307 25 b 253 -157 261 -43 221 -118 b 335 -189 269 -176 310 -186 b 703 -46 456 -203 625 -142 b 746 53 725 -19 746 17 b 633 174 746 88 726 133 b 663 182 656 181 660 178 b 586 192 667 189 636 211 b 521 226 564 206 536 219 b 832 779 501 290 1043 568 z m 276 -328 b 321 -419 265 -375 285 -415 b 404 -342 357 -424 393 -389 b 360 -251 415 -296 396 -256 b 276 -328 324 -247 286 -282 z m 326 -118 b 593 158 279 -71 369 32 b 658 72 632 138 658 106 b 326 -118 658 -24 403 -194 z m 363 54 b 382 165 363 71 365 103 b 399 224 386 185 393 204 b 413 211 400 218 404 214 b 550 175 446 196 485 196 b 363 54 481 143 415 100 z "},"Ƀ":{"ha":836,"x_min":0,"x_max":0,"o":"m 832 779 b 550 868 772 839 665 868 b 69 519 200 868 61 658 b 171 400 74 456 110 407 b 243 440 206 397 238 413 b 225 447 246 453 235 460 b 185 425 213 432 197 425 b 617 819 69 425 210 819 b 758 774 675 819 726 806 b 410 256 915 617 485 364 b 629 674 492 489 629 668 b 519 692 631 686 539 719 b 286 158 410 538 332 343 b 271 78 279 132 274 104 b 275 49 269 65 271 56 l 154 49 b 126 -28 119 47 107 -28 l 285 -28 b 253 -157 244 -81 229 -128 b 335 -189 269 -176 310 -186 b 703 -46 456 -203 625 -142 b 746 53 725 -19 746 17 b 633 174 746 88 726 133 b 663 182 656 181 660 178 b 586 192 667 189 636 211 b 521 226 564 206 536 219 b 832 779 501 290 1043 568 z m 326 -118 b 342 -28 306 -97 311 -67 l 457 -28 b 485 49 471 -28 524 49 l 424 49 b 593 158 467 82 524 119 b 658 72 632 138 658 106 b 326 -118 658 -24 403 -194 z m 363 54 b 382 165 363 71 365 103 b 399 224 386 185 393 204 b 413 211 400 218 404 214 b 550 175 446 196 485 196 b 363 54 481 143 415 100 z "},"C":{"ha":757,"x_min":0,"x_max":0,"o":"m 778 301 b 764 306 775 304 768 308 b 456 -83 758 303 686 -10 b 169 257 267 -143 153 33 b 588 650 201 678 678 1010 b 454 376 564 557 510 449 b 356 365 353 247 357 346 b 333 360 354 379 329 389 b 400 251 342 303 351 281 b 485 256 429 233 453 232 b 675 710 585 325 713 560 b 275 724 664 829 475 921 b 79 139 129 579 39 350 b 426 -158 122 -79 300 -174 b 788 275 560 -143 706 -14 b 778 301 790 285 796 289 z "},"Ć":{"ha":757,"x_min":0,"x_max":0,"o":"m 778 301 b 764 306 775 304 768 308 b 456 -83 758 303 686 -10 b 169 257 267 -143 153 33 b 588 650 201 678 678 1010 b 454 376 564 557 510 449 b 356 365 353 247 357 346 b 333 360 354 379 329 389 b 400 251 342 303 351 281 b 485 256 429 233 453 232 b 675 710 585 325 713 560 b 275 724 664 829 475 921 b 79 139 129 579 39 350 b 426 -158 122 -79 300 -174 b 788 275 560 -143 706 -14 b 778 301 790 285 796 289 z m 483 951 b 493 910 476 939 468 931 b 514 900 497 906 506 897 b 521 906 517 901 518 904 b 711 1043 556 960 643 1031 b 724 1047 715 1043 719 1043 b 654 1124 735 1060 681 1121 b 483 951 633 1125 529 1038 z "},"Č":{"ha":757,"x_min":0,"x_max":0,"o":"m 778 301 b 764 306 775 304 768 308 b 456 -83 758 303 686 -10 b 169 257 267 -143 153 33 b 588 650 201 678 678 1010 b 454 376 564 557 510 449 b 356 365 353 247 357 346 b 333 360 354 379 329 389 b 400 251 342 303 351 281 b 485 256 429 233 453 232 b 675 710 585 325 713 560 b 275 724 664 829 475 921 b 79 139 129 579 39 350 b 426 -158 122 -79 300 -174 b 788 275 560 -143 706 -14 b 778 301 790 285 796 289 z m 456 1090 b 501 994 454 1071 483 1057 b 514 929 513 961 504 949 b 613 874 533 892 597 854 b 614 899 614 875 614 886 b 725 1003 629 921 663 963 b 743 1025 738 1011 750 1011 b 692 1061 738 1038 710 1063 b 683 1054 689 1061 685 1057 b 596 969 647 1032 621 1003 b 526 1071 581 1004 560 1042 b 467 1100 510 1086 489 1099 b 456 1090 460 1099 456 1096 z "},"Ç":{"ha":763,"x_min":0,"x_max":0,"o":"m 778 279 b 764 283 775 282 768 286 b 456 -106 758 281 686 -33 b 169 235 267 -165 153 11 b 588 626 201 656 678 988 b 454 354 564 535 510 426 b 356 342 353 224 357 322 b 333 336 354 356 329 367 b 400 228 342 281 351 258 b 485 232 429 210 453 210 b 675 688 585 303 713 538 b 275 700 664 807 475 897 b 79 117 129 556 39 328 b 346 -178 114 -58 235 -154 b 326 -297 342 -218 336 -264 b 404 -289 313 -350 363 -274 b 428 -361 429 -299 435 -336 b 310 -304 381 -365 336 -343 b 288 -258 288 -274 293 -264 b 279 -258 285 -257 282 -257 b 261 -268 272 -260 267 -264 b 243 -321 232 -290 239 -301 b 388 -431 264 -404 329 -443 b 482 -335 428 -421 478 -376 b 382 -269 486 -283 432 -253 b 396 -183 383 -261 389 -237 b 426 -182 406 -183 417 -182 b 788 253 560 -165 706 -36 b 778 279 790 261 796 267 z "},"Ĉ":{"ha":757,"x_min":0,"x_max":0,"o":"m 778 301 b 764 306 775 304 768 308 b 456 -83 758 303 686 -10 b 169 257 267 -143 153 33 b 588 650 201 678 678 1010 b 454 376 564 557 510 449 b 356 365 353 247 357 346 b 333 360 354 379 329 389 b 400 251 342 303 351 281 b 485 256 429 233 453 232 b 675 710 585 325 713 560 b 275 724 664 829 475 921 b 79 139 129 579 39 350 b 426 -158 122 -79 300 -174 b 788 275 560 -143 706 -14 b 778 301 790 285 796 289 z m 421 936 b 471 899 426 921 454 896 b 481 904 475 899 476 903 b 568 990 514 929 543 957 b 635 890 581 954 604 917 b 696 858 651 874 672 861 b 706 869 704 861 706 865 b 660 967 710 888 679 903 b 650 1029 651 999 658 1011 b 551 1088 631 1067 564 1104 b 550 1061 550 1083 547 1074 b 439 957 533 1038 501 996 b 421 936 425 949 414 949 z "},"Ċ":{"ha":757,"x_min":0,"x_max":0,"o":"m 778 301 b 764 306 775 304 768 308 b 456 -83 758 303 686 -10 b 169 257 267 -143 153 33 b 588 650 201 678 678 1010 b 454 376 564 557 510 449 b 356 365 353 247 357 346 b 333 360 354 379 329 389 b 400 251 342 303 351 281 b 485 256 429 233 453 232 b 675 710 585 325 713 560 b 275 724 664 829 475 921 b 79 139 129 579 39 350 b 426 -158 122 -79 300 -174 b 788 275 560 -143 706 -14 b 778 301 790 285 796 289 z m 529 1022 b 574 932 518 976 538 936 b 657 1008 610 928 647 963 b 613 1100 668 1056 649 1096 b 529 1022 576 1104 540 1069 z "},"D":{"ha":881,"x_min":0,"x_max":0,"o":"m 617 789 b 226 244 183 956 -135 244 b 292 281 275 244 293 281 b 282 290 292 286 286 289 b 238 263 274 293 257 264 b 165 371 208 261 168 306 b 763 461 151 697 774 978 b 556 25 760 318 694 150 b 290 -22 415 -101 286 -106 b 368 92 292 29 325 61 b 422 92 389 86 414 85 b 431 121 425 93 425 93 b 433 133 432 125 433 129 b 611 204 493 167 557 193 b 621 207 614 206 618 206 b 583 250 628 217 601 249 b 551 242 579 251 556 243 b 450 199 521 232 486 217 b 589 696 522 499 594 683 b 503 714 582 713 517 726 b 494 686 500 711 500 711 b 343 143 438 468 365 239 l 339 128 b 357 -135 174 -1 233 -124 b 831 310 514 -150 761 46 b 617 789 890 543 800 719 z "},"Ð":{"ha":918,"x_min":0,"x_max":0,"o":"m 617 767 b 226 222 183 933 -135 222 b 292 258 275 222 293 258 b 282 269 290 264 286 268 b 238 240 274 271 257 242 b 165 350 208 239 168 283 b 763 439 151 676 774 957 b 556 3 760 296 694 128 b 290 -44 415 -124 286 -128 b 368 69 292 8 325 39 b 422 69 389 64 414 63 b 431 99 425 72 425 71 b 433 113 432 103 433 107 b 611 183 493 144 557 172 b 621 186 614 183 618 183 b 583 229 628 194 601 226 b 551 219 579 229 556 221 b 450 176 521 210 486 194 b 515 425 472 271 494 354 b 671 433 600 433 667 431 b 665 453 676 438 668 449 b 615 474 644 478 632 474 b 529 471 588 474 558 472 b 589 675 567 594 592 667 b 503 692 582 690 517 704 b 494 665 500 690 500 690 b 439 464 476 597 458 529 b 263 424 378 457 318 444 b 242 414 243 417 242 417 b 256 386 239 404 249 392 b 288 365 263 378 275 365 b 296 369 290 365 293 368 b 424 411 336 388 381 401 b 343 121 389 286 357 179 l 339 107 b 357 -157 174 -24 233 -146 b 831 288 514 -171 761 24 b 617 767 890 521 800 697 z "},"Ď":{"ha":881,"x_min":0,"x_max":0,"o":"m 617 789 b 226 244 183 956 -135 244 b 292 281 275 244 293 281 b 282 290 292 286 286 289 b 238 263 274 293 257 264 b 165 371 208 261 168 306 b 763 461 151 697 774 978 b 556 25 760 318 694 150 b 290 -22 415 -101 286 -106 b 368 92 292 29 325 61 b 422 92 389 86 414 85 b 431 121 425 93 425 93 b 433 133 432 125 433 129 b 611 204 493 167 557 193 b 621 207 614 206 618 206 b 583 250 628 217 601 249 b 551 242 579 251 556 243 b 450 199 521 232 486 217 b 589 696 522 499 594 683 b 503 714 582 713 517 726 b 494 686 500 711 500 711 b 343 143 438 468 365 239 l 339 128 b 357 -135 174 -1 233 -124 b 831 310 514 -150 761 46 b 617 789 890 543 800 719 z m 517 1090 b 563 994 515 1071 544 1057 b 575 929 574 961 565 949 b 674 874 594 892 658 854 b 675 899 675 875 675 886 b 786 1003 690 921 724 963 b 804 1025 799 1011 811 1011 b 753 1061 799 1038 771 1063 b 744 1054 750 1061 746 1057 b 657 969 708 1032 682 1003 b 588 1071 642 1004 621 1042 b 528 1100 571 1086 550 1099 b 517 1090 521 1099 517 1096 z "},"Ḓ":{"ha":881,"x_min":0,"x_max":0,"o":"m 617 789 b 226 244 183 956 -135 244 b 292 281 275 244 293 281 b 282 290 292 286 286 289 b 238 263 274 293 257 264 b 165 371 208 261 168 306 b 763 461 151 697 774 978 b 556 25 760 318 694 150 b 290 -22 415 -101 286 -106 b 368 92 292 29 325 61 b 422 92 389 86 414 85 b 431 121 425 93 425 93 b 433 133 432 125 433 129 b 611 204 493 167 557 193 b 621 207 614 206 618 206 b 583 250 628 217 601 249 b 551 242 579 251 556 243 b 450 199 521 232 486 217 b 589 696 522 499 594 683 b 503 714 582 713 517 726 b 494 686 500 711 500 711 b 343 143 438 468 365 239 l 339 128 b 357 -135 174 -1 233 -124 b 831 310 514 -150 761 46 b 617 789 890 543 800 719 z m 517 1090 b 563 994 515 1071 544 1057 b 575 929 574 961 565 949 b 674 874 594 892 658 854 b 675 899 675 875 675 886 b 786 1003 690 921 724 963 b 804 1025 799 1011 811 1011 b 753 1061 799 1038 771 1063 b 744 1054 750 1061 746 1057 b 657 969 708 1032 682 1003 b 588 1071 642 1004 621 1042 b 528 1100 571 1086 550 1099 b 517 1090 521 1099 517 1096 z "},"Đ":{"ha":918,"x_min":0,"x_max":0,"o":"m 617 767 b 226 222 183 933 -135 222 b 292 258 275 222 293 258 b 282 269 290 264 286 268 b 238 240 274 271 257 242 b 165 350 208 239 168 283 b 763 439 151 676 774 957 b 556 3 760 296 694 128 b 290 -44 415 -124 286 -128 b 368 69 292 8 325 39 b 422 69 389 64 414 63 b 431 99 425 72 425 71 b 433 113 432 103 433 107 b 611 183 493 144 557 172 b 621 186 614 183 618 183 b 583 229 628 194 601 226 b 551 219 579 229 556 221 b 450 176 521 210 486 194 b 515 425 472 271 494 354 b 671 433 600 433 667 431 b 665 453 676 438 668 449 b 615 474 644 478 632 474 b 529 471 588 474 558 472 b 589 675 567 594 592 667 b 503 692 582 690 517 704 b 494 665 500 690 500 690 b 439 464 476 597 458 529 b 263 424 378 457 318 444 b 242 414 243 417 242 417 b 256 386 239 404 249 392 b 288 365 263 378 275 365 b 296 369 290 365 293 368 b 424 411 336 388 381 401 b 343 121 389 286 357 179 l 339 107 b 357 -157 174 -24 233 -146 b 831 288 514 -171 761 24 b 617 767 890 521 800 697 z "},"Ḍ":{"ha":881,"x_min":0,"x_max":0,"o":"m 617 789 b 226 244 183 956 -135 244 b 292 281 275 244 293 281 b 282 290 292 286 286 289 b 238 263 274 293 257 264 b 165 371 208 261 168 306 b 763 461 151 697 774 978 b 556 25 760 318 694 150 b 290 -22 415 -101 286 -106 b 368 92 292 29 325 61 b 422 92 389 86 414 85 b 431 121 425 93 425 93 b 433 133 432 125 433 129 b 611 204 493 167 557 193 b 621 207 614 206 618 206 b 583 250 628 217 601 249 b 551 242 579 251 556 243 b 450 199 521 232 486 217 b 589 696 522 499 594 683 b 503 714 582 713 517 726 b 494 686 500 711 500 711 b 343 143 438 468 365 239 l 339 128 b 357 -135 174 -1 233 -124 b 831 310 514 -150 761 46 b 617 789 890 543 800 719 z m 303 -240 b 347 -332 292 -287 311 -328 b 431 -254 383 -336 419 -301 b 386 -164 442 -208 422 -168 b 303 -240 350 -160 313 -194 z "},"Ḏ":{"ha":881,"x_min":0,"x_max":0,"o":"m 617 789 b 226 244 183 956 -135 244 b 292 281 275 244 293 281 b 282 290 292 286 286 289 b 238 263 274 293 257 264 b 165 371 208 261 168 306 b 763 461 151 697 774 978 b 556 25 760 318 694 150 b 290 -22 415 -101 286 -106 b 368 92 292 29 325 61 b 422 92 389 86 414 85 b 431 121 425 93 425 93 b 433 133 432 125 433 129 b 611 204 493 167 557 193 b 621 207 614 206 618 206 b 583 250 628 217 601 249 b 551 242 579 251 556 243 b 450 199 521 232 486 217 b 589 696 522 499 594 683 b 503 714 582 713 517 726 b 494 686 500 711 500 711 b 343 143 438 468 365 239 l 339 128 b 357 -135 174 -1 233 -124 b 831 310 514 -150 761 46 b 617 789 890 543 800 719 z m 167 -262 b 493 -253 199 -265 354 -250 b 564 -165 539 -254 589 -165 b 211 -178 556 -165 347 -189 b 167 -262 181 -175 135 -260 z "},"Ɖ":{"ha":918,"x_min":0,"x_max":0,"o":"m 617 767 b 226 222 183 933 -135 222 b 292 258 275 222 293 258 b 282 269 290 264 286 268 b 238 240 274 271 257 242 b 165 350 208 239 168 283 b 763 439 151 676 774 957 b 556 3 760 296 694 128 b 290 -44 415 -124 286 -128 b 368 69 292 8 325 39 b 422 69 389 64 414 63 b 431 99 425 72 425 71 b 433 113 432 103 433 107 b 611 183 493 144 557 172 b 621 186 614 183 618 183 b 583 229 628 194 601 226 b 551 219 579 229 556 221 b 450 176 521 210 486 194 b 515 425 472 271 494 354 b 671 433 600 433 667 431 b 665 453 676 438 668 449 b 615 474 644 478 632 474 b 529 471 588 474 558 472 b 589 675 567 594 592 667 b 503 692 582 690 517 704 b 494 665 500 690 500 690 b 439 464 476 597 458 529 b 263 424 378 457 318 444 b 242 414 243 417 242 417 b 256 386 239 404 249 392 b 288 365 263 378 275 365 b 296 369 290 365 293 368 b 424 411 336 388 381 401 b 343 121 389 286 357 179 l 339 107 b 357 -157 174 -24 233 -146 b 831 288 514 -171 761 24 b 617 767 890 521 800 697 z "},"E":{"ha":914,"x_min":0,"x_max":0,"o":"m 1047 757 b 983 788 1028 782 1011 782 b 728 810 894 804 810 811 b 654 819 708 819 671 826 b 642 806 653 819 649 814 b 78 322 194 765 26 494 b 204 228 97 260 143 219 b 265 283 239 233 265 254 b 246 286 265 296 253 300 b 211 256 236 268 225 258 b 546 732 97 229 128 621 l 546 731 b 589 742 560 735 574 738 b 404 428 536 671 460 558 b 278 383 356 414 313 399 b 271 365 272 381 265 379 b 331 321 279 350 311 319 b 372 343 338 322 335 326 b 388 -135 314 168 222 -83 b 501 -133 432 -149 467 -147 b 557 -108 517 -129 535 -122 b 731 90 626 -64 681 15 b 710 132 746 111 757 121 b 640 117 661 143 651 133 b 533 -29 621 92 582 28 b 499 386 344 -246 429 210 b 914 468 604 415 846 458 b 978 476 975 476 974 474 b 969 499 983 482 974 493 b 936 521 961 507 949 518 b 529 458 917 525 665 488 b 714 760 574 556 636 658 b 943 758 788 767 864 767 b 1051 742 1026 749 1046 739 b 1047 757 1057 744 1050 754 z m 544 731 b 546 731 544 731 544 731 z "},"É":{"ha":914,"x_min":0,"x_max":0,"o":"m 1047 757 b 983 788 1028 782 1011 782 b 728 810 894 804 810 811 b 654 819 708 819 671 826 b 642 806 653 819 649 814 b 78 322 194 765 26 494 b 204 228 97 260 143 219 b 265 283 239 233 265 254 b 246 286 265 296 253 300 b 211 256 236 268 225 258 b 546 732 97 229 128 621 l 546 731 b 589 742 560 735 574 738 b 404 428 536 671 460 558 b 278 383 356 414 313 399 b 271 365 272 381 265 379 b 331 321 279 350 311 319 b 372 343 338 322 335 326 b 388 -135 314 168 222 -83 b 501 -133 432 -149 467 -147 b 557 -108 517 -129 535 -122 b 731 90 626 -64 681 15 b 710 132 746 111 757 121 b 640 117 661 143 651 133 b 533 -29 621 92 582 28 b 499 386 344 -246 429 210 b 914 468 604 415 846 458 b 978 476 975 476 974 474 b 969 499 983 482 974 493 b 936 521 961 507 949 518 b 529 458 917 525 665 488 b 714 760 574 556 636 658 b 943 758 788 767 864 767 b 1051 742 1026 749 1046 739 b 1047 757 1057 744 1050 754 z m 544 731 b 546 731 544 731 544 731 z m 728 939 b 738 897 721 926 713 918 b 758 888 742 893 750 885 b 765 893 761 889 763 892 b 956 1031 800 947 888 1018 b 968 1035 960 1031 964 1031 b 899 1111 979 1047 925 1108 b 728 939 878 1113 774 1025 z "},"Ě":{"ha":914,"x_min":0,"x_max":0,"o":"m 1047 757 b 983 788 1028 782 1011 782 b 728 810 894 804 810 811 b 654 819 708 819 671 826 b 642 806 653 819 649 814 b 78 322 194 765 26 494 b 204 228 97 260 143 219 b 265 283 239 233 265 254 b 246 286 265 296 253 300 b 211 256 236 268 225 258 b 546 732 97 229 128 621 l 546 731 b 589 742 560 735 574 738 b 404 428 536 671 460 558 b 278 383 356 414 313 399 b 271 365 272 381 265 379 b 331 321 279 350 311 319 b 372 343 338 322 335 326 b 388 -135 314 168 222 -83 b 501 -133 432 -149 467 -147 b 557 -108 517 -129 535 -122 b 731 90 626 -64 681 15 b 710 132 746 111 757 121 b 640 117 661 143 651 133 b 533 -29 621 92 582 28 b 499 386 344 -246 429 210 b 914 468 604 415 846 458 b 978 476 975 476 974 474 b 969 499 983 482 974 493 b 936 521 961 507 949 518 b 529 458 917 525 665 488 b 714 760 574 556 636 658 b 943 758 788 767 864 767 b 1051 742 1026 749 1046 739 b 1047 757 1057 744 1050 754 z m 544 731 b 546 731 544 731 544 731 z m 700 1078 b 746 982 699 1058 728 1044 b 758 917 757 949 749 936 b 857 861 778 879 842 842 b 858 886 858 863 858 874 b 969 990 874 908 907 950 b 988 1013 982 999 994 999 b 936 1049 982 1025 954 1050 b 928 1042 933 1049 929 1044 b 840 957 892 1019 865 990 b 771 1058 825 992 804 1029 b 711 1088 754 1074 733 1086 b 700 1078 704 1086 700 1083 z "},"Ȩ":{"ha":914,"x_min":0,"x_max":0,"o":"m 1047 757 b 983 788 1028 782 1011 782 b 728 810 894 804 810 811 b 654 819 708 819 671 826 b 642 806 653 819 649 814 b 78 322 194 765 26 494 b 204 228 97 260 143 219 b 265 283 239 233 265 254 b 246 286 265 296 253 300 b 211 256 236 268 225 258 b 546 732 97 229 128 621 l 546 731 b 589 742 560 735 574 738 b 404 428 536 671 460 558 b 278 383 356 414 313 399 b 271 365 272 381 265 379 b 331 321 279 350 311 319 b 372 343 338 322 335 326 b 388 -135 314 168 222 -83 b 415 -142 397 -137 407 -140 b 368 -228 394 -175 374 -206 b 440 -264 354 -281 399 -249 b 464 -336 465 -274 471 -311 b 332 -307 417 -350 349 -332 b 310 -261 310 -275 315 -267 b 265 -324 306 -258 256 -292 b 424 -406 290 -406 365 -418 b 518 -310 464 -396 514 -351 b 424 -221 522 -258 474 -228 b 463 -143 425 -214 435 -181 b 501 -133 476 -142 489 -139 b 557 -108 517 -129 535 -122 b 731 90 626 -64 681 15 b 710 132 746 111 757 121 b 640 117 661 143 651 133 b 533 -29 621 92 582 28 b 499 386 344 -246 429 210 b 914 468 604 415 846 458 b 978 476 975 476 974 474 b 969 499 983 482 974 493 b 936 521 961 507 949 518 b 529 458 917 525 665 488 b 714 760 574 556 636 658 b 943 758 788 767 864 767 b 1051 742 1026 749 1046 739 b 1047 757 1057 744 1050 754 z m 544 731 b 546 731 544 731 544 731 z "},"Ê":{"ha":914,"x_min":0,"x_max":0,"o":"m 1047 757 b 983 788 1028 782 1011 782 b 728 810 894 804 810 811 b 654 819 708 819 671 826 b 642 806 653 819 649 814 b 78 322 194 765 26 494 b 204 228 97 260 143 219 b 265 283 239 233 265 254 b 246 286 265 296 253 300 b 211 256 236 268 225 258 b 546 732 97 229 128 621 l 546 731 b 589 742 560 735 574 738 b 404 428 536 671 460 558 b 278 383 356 414 313 399 b 271 365 272 381 265 379 b 331 321 279 350 311 319 b 372 343 338 322 335 326 b 388 -135 314 168 222 -83 b 501 -133 432 -149 467 -147 b 557 -108 517 -129 535 -122 b 731 90 626 -64 681 15 b 710 132 746 111 757 121 b 640 117 661 143 651 133 b 533 -29 621 92 582 28 b 499 386 344 -246 429 210 b 914 468 604 415 846 458 b 978 476 975 476 974 474 b 969 499 983 482 974 493 b 936 521 961 507 949 518 b 529 458 917 525 665 488 b 714 760 574 556 636 658 b 943 758 788 767 864 767 b 1051 742 1026 749 1046 739 b 1047 757 1057 744 1050 754 z m 544 731 b 546 731 544 731 544 731 z m 665 924 b 715 886 671 908 699 883 b 725 892 719 886 721 890 b 813 978 758 917 788 944 b 879 878 825 942 849 904 b 940 846 896 861 917 849 b 950 857 949 849 950 853 b 904 954 954 875 924 890 b 894 1017 896 986 903 999 b 796 1075 875 1054 808 1092 b 794 1049 794 1071 792 1061 b 683 944 778 1025 746 983 b 665 924 669 936 658 936 z "},"Ế":{"ha":914,"x_min":0,"x_max":0,"o":"m 1047 757 b 983 788 1028 782 1011 782 b 728 810 894 804 810 811 b 654 819 708 819 671 826 b 642 806 653 819 649 814 b 78 322 194 765 26 494 b 204 228 97 260 143 219 b 265 283 239 233 265 254 b 246 286 265 296 253 300 b 211 256 236 268 225 258 b 546 732 97 229 128 621 l 546 731 b 589 742 560 735 574 738 b 404 428 536 671 460 558 b 278 383 356 414 313 399 b 271 365 272 381 265 379 b 331 321 279 350 311 319 b 372 343 338 322 335 326 b 388 -135 314 168 222 -83 b 501 -133 432 -149 467 -147 b 557 -108 517 -129 535 -122 b 731 90 626 -64 681 15 b 710 132 746 111 757 121 b 640 117 661 143 651 133 b 533 -29 621 92 582 28 b 499 386 344 -246 429 210 b 914 468 604 415 846 458 b 978 476 975 476 974 474 b 969 499 983 482 974 493 b 936 521 961 507 949 518 b 529 458 917 525 665 488 b 714 760 574 556 636 658 b 943 758 788 767 864 767 b 1051 742 1026 749 1046 739 b 1047 757 1057 744 1050 754 z m 544 731 b 546 731 544 731 544 731 z m 665 924 b 715 886 671 908 699 883 b 725 892 719 886 721 890 b 813 978 758 917 788 944 b 879 878 825 942 849 904 b 940 846 896 861 917 849 b 950 857 949 849 950 853 b 904 954 954 875 924 890 b 894 1017 896 986 903 999 b 796 1075 875 1054 808 1092 b 794 1049 794 1071 792 1061 b 683 944 778 1025 746 983 b 665 924 669 936 658 936 z m 792 1193 b 801 1151 785 1181 776 1172 b 822 1142 806 1147 814 1139 b 829 1147 825 1143 826 1146 b 1019 1285 864 1201 951 1272 b 1032 1289 1024 1285 1028 1285 b 963 1365 1043 1301 989 1363 b 792 1193 942 1367 838 1279 z "},"Ệ":{"ha":914,"x_min":0,"x_max":0,"o":"m 1047 757 b 983 788 1028 782 1011 782 b 728 810 894 804 810 811 b 654 819 708 819 671 826 b 642 806 653 819 649 814 b 78 322 194 765 26 494 b 204 228 97 260 143 219 b 265 283 239 233 265 254 b 246 286 265 296 253 300 b 211 256 236 268 225 258 b 546 732 97 229 128 621 l 546 731 b 589 742 560 735 574 738 b 404 428 536 671 460 558 b 278 383 356 414 313 399 b 271 365 272 381 265 379 b 331 321 279 350 311 319 b 372 343 338 322 335 326 b 388 -135 314 168 222 -83 b 501 -133 432 -149 467 -147 b 557 -108 517 -129 535 -122 b 731 90 626 -64 681 15 b 710 132 746 111 757 121 b 640 117 661 143 651 133 b 533 -29 621 92 582 28 b 499 386 344 -246 429 210 b 914 468 604 415 846 458 b 978 476 975 476 974 474 b 969 499 983 482 974 493 b 936 521 961 507 949 518 b 529 458 917 525 665 488 b 714 760 574 556 636 658 b 943 758 788 767 864 767 b 1051 742 1026 749 1046 739 b 1047 757 1057 744 1050 754 z m 328 -303 b 372 -394 317 -350 336 -390 b 456 -317 408 -399 444 -364 b 411 -226 467 -271 447 -231 b 328 -303 375 -222 338 -257 z m 544 731 b 546 731 544 731 544 731 z m 665 924 b 715 886 671 908 699 883 b 725 892 719 886 721 890 b 813 978 758 917 788 944 b 879 878 825 942 849 904 b 940 846 896 861 917 849 b 950 857 949 849 950 853 b 904 954 954 875 924 890 b 894 1017 896 986 903 999 b 796 1075 875 1054 808 1092 b 794 1049 794 1071 792 1061 b 683 944 778 1025 746 983 b 665 924 669 936 658 936 z "},"Ề":{"ha":914,"x_min":0,"x_max":0,"o":"m 1047 757 b 983 788 1028 782 1011 782 b 728 810 894 804 810 811 b 654 819 708 819 671 826 b 642 806 653 819 649 814 b 78 322 194 765 26 494 b 204 228 97 260 143 219 b 265 283 239 233 265 254 b 246 286 265 296 253 300 b 211 256 236 268 225 258 b 546 732 97 229 128 621 l 546 731 b 589 742 560 735 574 738 b 404 428 536 671 460 558 b 278 383 356 414 313 399 b 271 365 272 381 265 379 b 331 321 279 350 311 319 b 372 343 338 322 335 326 b 388 -135 314 168 222 -83 b 501 -133 432 -149 467 -147 b 557 -108 517 -129 535 -122 b 731 90 626 -64 681 15 b 710 132 746 111 757 121 b 640 117 661 143 651 133 b 533 -29 621 92 582 28 b 499 386 344 -246 429 210 b 914 468 604 415 846 458 b 978 476 975 476 974 474 b 969 499 983 482 974 493 b 936 521 961 507 949 518 b 529 458 917 525 665 488 b 714 760 574 556 636 658 b 943 758 788 767 864 767 b 1051 742 1026 749 1046 739 b 1047 757 1057 744 1050 754 z m 544 731 b 546 731 544 731 544 731 z m 665 924 b 715 886 671 908 699 883 b 725 892 719 886 721 890 b 813 978 758 917 788 944 b 879 878 825 942 849 904 b 940 846 896 861 917 849 b 950 857 949 849 950 853 b 904 954 954 875 924 890 b 894 1017 896 986 903 999 b 796 1075 875 1054 808 1092 b 794 1049 794 1071 792 1061 b 683 944 778 1025 746 983 b 665 924 669 936 658 936 z m 760 1254 b 772 1250 764 1250 768 1250 b 964 1113 840 1238 928 1167 l 969 1107 b 990 1117 978 1104 986 1113 b 1001 1158 1015 1138 1007 1146 b 829 1331 956 1244 850 1332 b 760 1254 803 1328 749 1267 z "},"Ể":{"ha":914,"x_min":0,"x_max":0,"o":"m 1047 757 b 983 788 1028 782 1011 782 b 728 810 894 804 810 811 b 654 819 708 819 671 826 b 642 806 653 819 649 814 b 78 322 194 765 26 494 b 204 228 97 260 143 219 b 265 283 239 233 265 254 b 246 286 265 296 253 300 b 211 256 236 268 225 258 b 546 732 97 229 128 621 l 546 731 b 589 742 560 735 574 738 b 404 428 536 671 460 558 b 278 383 356 414 313 399 b 271 365 272 381 265 379 b 331 321 279 350 311 319 b 372 343 338 322 335 326 b 388 -135 314 168 222 -83 b 501 -133 432 -149 467 -147 b 557 -108 517 -129 535 -122 b 731 90 626 -64 681 15 b 710 132 746 111 757 121 b 640 117 661 143 651 133 b 533 -29 621 92 582 28 b 499 386 344 -246 429 210 b 914 468 604 415 846 458 b 978 476 975 476 974 474 b 969 499 983 482 974 493 b 936 521 961 507 949 518 b 529 458 917 525 665 488 b 714 760 574 556 636 658 b 943 758 788 767 864 767 b 1051 742 1026 749 1046 739 b 1047 757 1057 744 1050 754 z m 544 731 b 546 731 544 731 544 731 z m 665 924 b 715 886 671 908 699 883 b 725 892 719 886 721 890 b 813 978 758 917 788 944 b 879 878 825 942 849 904 b 940 846 896 861 917 849 b 950 857 949 849 950 853 b 904 954 954 875 924 890 b 894 1017 896 986 903 999 b 796 1075 875 1054 808 1092 b 794 1049 794 1071 792 1061 b 683 944 778 1025 746 983 b 665 924 669 936 658 936 z m 781 1279 b 814 1267 786 1257 814 1265 b 872 1331 810 1296 843 1322 b 881 1183 901 1286 903 1231 b 849 1136 861 1146 850 1144 b 851 1128 849 1133 850 1131 b 871 1115 857 1122 864 1119 b 933 1126 908 1100 915 1111 b 960 1328 1001 1192 1006 1278 b 817 1368 929 1361 860 1386 b 781 1279 782 1353 769 1315 z "},"Ễ":{"ha":914,"x_min":0,"x_max":0,"o":"m 1047 757 b 983 788 1028 782 1011 782 b 728 810 894 804 810 811 b 654 819 708 819 671 826 b 642 806 653 819 649 814 b 78 322 194 765 26 494 b 204 228 97 260 143 219 b 265 283 239 233 265 254 b 246 286 265 296 253 300 b 211 256 236 268 225 258 b 546 732 97 229 128 621 l 546 731 b 589 742 560 735 574 738 b 404 428 536 671 460 558 b 278 383 356 414 313 399 b 271 365 272 381 265 379 b 331 321 279 350 311 319 b 372 343 338 322 335 326 b 388 -135 314 168 222 -83 b 501 -133 432 -149 467 -147 b 557 -108 517 -129 535 -122 b 731 90 626 -64 681 15 b 710 132 746 111 757 121 b 640 117 661 143 651 133 b 533 -29 621 92 582 28 b 499 386 344 -246 429 210 b 914 468 604 415 846 458 b 978 476 975 476 974 474 b 969 499 983 482 974 493 b 936 521 961 507 949 518 b 529 458 917 525 665 488 b 714 760 574 556 636 658 b 943 758 788 767 864 767 b 1051 742 1026 749 1046 739 b 1047 757 1057 744 1050 754 z m 544 731 b 546 731 544 731 544 731 z m 665 924 b 715 886 671 908 699 883 b 725 892 719 886 721 890 b 813 978 758 917 788 944 b 879 878 825 942 849 904 b 940 846 896 861 917 849 b 950 857 949 849 950 853 b 904 954 954 875 924 890 b 894 1017 896 986 903 999 b 796 1075 875 1054 808 1092 b 794 1049 794 1071 792 1061 b 683 944 778 1025 746 983 b 665 924 669 936 658 936 z m 717 1218 b 756 1211 721 1210 747 1200 b 822 1279 763 1224 783 1251 b 857 1182 824 1236 824 1200 b 921 1174 876 1174 900 1169 b 1103 1301 961 1183 1074 1282 b 1057 1322 1125 1315 1086 1349 b 924 1218 1038 1304 956 1236 b 874 1318 924 1258 924 1299 b 815 1318 854 1324 833 1326 b 717 1218 771 1304 714 1226 z "},"Ë":{"ha":914,"x_min":0,"x_max":0,"o":"m 1047 757 b 983 788 1028 782 1011 782 b 728 810 894 804 810 811 b 654 819 708 819 671 826 b 642 806 653 819 649 814 b 78 322 194 765 26 494 b 204 228 97 260 143 219 b 265 283 239 233 265 254 b 246 286 265 296 253 300 b 211 256 236 268 225 258 b 546 732 97 229 128 621 l 546 731 b 589 742 560 735 574 738 b 404 428 536 671 460 558 b 278 383 356 414 313 399 b 271 365 272 381 265 379 b 331 321 279 350 311 319 b 372 343 338 322 335 326 b 388 -135 314 168 222 -83 b 501 -133 432 -149 467 -147 b 557 -108 517 -129 535 -122 b 731 90 626 -64 681 15 b 710 132 746 111 757 121 b 640 117 661 143 651 133 b 533 -29 621 92 582 28 b 499 386 344 -246 429 210 b 914 468 604 415 846 458 b 978 476 975 476 974 474 b 969 499 983 482 974 493 b 936 521 961 507 949 518 b 529 458 917 525 665 488 b 714 760 574 556 636 658 b 943 758 788 767 864 767 b 1051 742 1026 749 1046 739 b 1047 757 1057 744 1050 754 z m 544 731 b 546 731 544 731 544 731 z m 693 975 b 738 885 682 929 701 889 b 821 961 774 881 811 915 b 776 1053 832 1008 813 1049 b 693 975 740 1057 704 1022 z m 874 975 b 918 885 863 929 882 889 b 1001 961 954 881 992 915 b 957 1053 1013 1008 993 1049 b 874 975 921 1057 885 1022 z "},"Ė":{"ha":914,"x_min":0,"x_max":0,"o":"m 1047 757 b 983 788 1028 782 1011 782 b 728 810 894 804 810 811 b 654 819 708 819 671 826 b 642 806 653 819 649 814 b 78 322 194 765 26 494 b 204 228 97 260 143 219 b 265 283 239 233 265 254 b 246 286 265 296 253 300 b 211 256 236 268 225 258 b 546 732 97 229 128 621 l 546 731 b 589 742 560 735 574 738 b 404 428 536 671 460 558 b 278 383 356 414 313 399 b 271 365 272 381 265 379 b 331 321 279 350 311 319 b 372 343 338 322 335 326 b 388 -135 314 168 222 -83 b 501 -133 432 -149 467 -147 b 557 -108 517 -129 535 -122 b 731 90 626 -64 681 15 b 710 132 746 111 757 121 b 640 117 661 143 651 133 b 533 -29 621 92 582 28 b 499 386 344 -246 429 210 b 914 468 604 415 846 458 b 978 476 975 476 974 474 b 969 499 983 482 974 493 b 936 521 961 507 949 518 b 529 458 917 525 665 488 b 714 760 574 556 636 658 b 943 758 788 767 864 767 b 1051 742 1026 749 1046 739 b 1047 757 1057 744 1050 754 z m 544 731 b 546 731 544 731 544 731 z m 774 1010 b 818 919 763 964 782 924 b 901 996 854 915 892 950 b 857 1088 913 1043 893 1083 b 774 1010 821 1092 785 1057 z "},"Ẹ":{"ha":914,"x_min":0,"x_max":0,"o":"m 1047 757 b 983 788 1028 782 1011 782 b 728 810 894 804 810 811 b 654 819 708 819 671 826 b 642 806 653 819 649 814 b 78 322 194 765 26 494 b 204 228 97 260 143 219 b 265 283 239 233 265 254 b 246 286 265 296 253 300 b 211 256 236 268 225 258 b 546 732 97 229 128 621 l 546 731 b 589 742 560 735 574 738 b 404 428 536 671 460 558 b 278 383 356 414 313 399 b 271 365 272 381 265 379 b 331 321 279 350 311 319 b 372 343 338 322 335 326 b 388 -135 314 168 222 -83 b 501 -133 432 -149 467 -147 b 557 -108 517 -129 535 -122 b 731 90 626 -64 681 15 b 710 132 746 111 757 121 b 640 117 661 143 651 133 b 533 -29 621 92 582 28 b 499 386 344 -246 429 210 b 914 468 604 415 846 458 b 978 476 975 476 974 474 b 969 499 983 482 974 493 b 936 521 961 507 949 518 b 529 458 917 525 665 488 b 714 760 574 556 636 658 b 943 758 788 767 864 767 b 1051 742 1026 749 1046 739 b 1047 757 1057 744 1050 754 z m 328 -303 b 372 -394 317 -350 336 -390 b 456 -317 408 -399 444 -364 b 411 -226 467 -271 447 -231 b 328 -303 375 -222 338 -257 z m 544 731 b 546 731 544 731 544 731 z "},"È":{"ha":914,"x_min":0,"x_max":0,"o":"m 1047 757 b 983 788 1028 782 1011 782 b 728 810 894 804 810 811 b 654 819 708 819 671 826 b 642 806 653 819 649 814 b 78 322 194 765 26 494 b 204 228 97 260 143 219 b 265 283 239 233 265 254 b 246 286 265 296 253 300 b 211 256 236 268 225 258 b 546 732 97 229 128 621 l 546 731 b 589 742 560 735 574 738 b 404 428 536 671 460 558 b 278 383 356 414 313 399 b 271 365 272 381 265 379 b 331 321 279 350 311 319 b 372 343 338 322 335 326 b 388 -135 314 168 222 -83 b 501 -133 432 -149 467 -147 b 557 -108 517 -129 535 -122 b 731 90 626 -64 681 15 b 710 132 746 111 757 121 b 640 117 661 143 651 133 b 533 -29 621 92 582 28 b 499 386 344 -246 429 210 b 914 468 604 415 846 458 b 978 476 975 476 974 474 b 969 499 983 482 974 493 b 936 521 961 507 949 518 b 529 458 917 525 665 488 b 714 760 574 556 636 658 b 943 758 788 767 864 767 b 1051 742 1026 749 1046 739 b 1047 757 1057 744 1050 754 z m 544 731 b 546 731 544 731 544 731 z m 696 1000 b 708 996 700 996 704 996 b 900 858 776 983 864 913 l 906 853 b 926 863 914 850 922 858 b 938 904 951 883 943 892 b 765 1076 892 990 786 1078 b 696 1000 739 1074 685 1013 z "},"Ẻ":{"ha":914,"x_min":0,"x_max":0,"o":"m 1047 757 b 983 788 1028 782 1011 782 b 728 810 894 804 810 811 b 654 819 708 819 671 826 b 642 806 653 819 649 814 b 78 322 194 765 26 494 b 204 228 97 260 143 219 b 265 283 239 233 265 254 b 246 286 265 296 253 300 b 211 256 236 268 225 258 b 546 732 97 229 128 621 l 546 731 b 589 742 560 735 574 738 b 404 428 536 671 460 558 b 278 383 356 414 313 399 b 271 365 272 381 265 379 b 331 321 279 350 311 319 b 372 343 338 322 335 326 b 388 -135 314 168 222 -83 b 501 -133 432 -149 467 -147 b 557 -108 517 -129 535 -122 b 731 90 626 -64 681 15 b 710 132 746 111 757 121 b 640 117 661 143 651 133 b 533 -29 621 92 582 28 b 499 386 344 -246 429 210 b 914 468 604 415 846 458 b 978 476 975 476 974 474 b 969 499 983 482 974 493 b 936 521 961 507 949 518 b 529 458 917 525 665 488 b 714 760 574 556 636 658 b 943 758 788 767 864 767 b 1051 742 1026 749 1046 739 b 1047 757 1057 744 1050 754 z m 544 731 b 546 731 544 731 544 731 z m 717 1025 b 750 1013 722 1003 750 1011 b 808 1076 746 1042 779 1068 b 817 929 838 1032 839 976 b 785 882 797 892 786 890 b 788 874 785 879 786 876 b 807 861 793 868 800 865 b 869 872 844 846 851 857 b 896 1074 938 938 942 1024 b 753 1114 865 1107 796 1132 b 717 1025 718 1099 706 1061 z "},"Ē":{"ha":914,"x_min":0,"x_max":0,"o":"m 1047 757 b 983 788 1028 782 1011 782 b 728 810 894 804 810 811 b 654 819 708 819 671 826 b 642 806 653 819 649 814 b 78 322 194 765 26 494 b 204 228 97 260 143 219 b 265 283 239 233 265 254 b 246 286 265 296 253 300 b 211 256 236 268 225 258 b 546 732 97 229 128 621 l 546 731 b 589 742 560 735 574 738 b 404 428 536 671 460 558 b 278 383 356 414 313 399 b 271 365 272 381 265 379 b 331 321 279 350 311 319 b 372 343 338 322 335 326 b 388 -135 314 168 222 -83 b 501 -133 432 -149 467 -147 b 557 -108 517 -129 535 -122 b 731 90 626 -64 681 15 b 710 132 746 111 757 121 b 640 117 661 143 651 133 b 533 -29 621 92 582 28 b 499 386 344 -246 429 210 b 914 468 604 415 846 458 b 978 476 975 476 974 474 b 969 499 983 482 974 493 b 936 521 961 507 949 518 b 529 458 917 525 665 488 b 714 760 574 556 636 658 b 943 758 788 767 864 767 b 1051 742 1026 749 1046 739 b 1047 757 1057 744 1050 754 z m 544 731 b 546 731 544 731 544 731 z m 640 921 b 993 933 649 921 857 944 b 1038 1018 1024 931 1069 1015 b 711 1008 1006 1021 850 1006 b 640 921 665 1010 615 921 z "},"Ę":{"ha":914,"x_min":0,"x_max":0,"o":"m 1047 757 b 983 788 1028 782 1011 782 b 728 810 894 804 810 811 b 654 819 708 819 671 826 b 642 806 653 819 649 814 b 78 322 194 765 26 494 b 204 228 97 260 143 219 b 265 283 239 233 265 254 b 246 286 265 296 253 300 b 211 256 236 268 225 258 b 546 732 97 229 128 621 l 546 731 b 589 742 560 735 574 738 b 404 428 536 671 460 558 b 278 383 356 414 313 399 b 271 365 272 381 265 379 b 331 321 279 350 311 319 b 372 343 338 322 335 326 b 388 -135 314 168 222 -83 b 446 -144 408 -142 428 -144 b 456 -279 419 -193 425 -246 b 585 -315 483 -310 546 -332 b 618 -236 617 -301 628 -268 b 588 -225 613 -217 588 -224 b 535 -282 592 -251 561 -275 b 528 -150 508 -242 507 -193 b 557 -108 544 -117 556 -115 b 731 90 626 -64 681 15 b 710 132 746 111 757 121 b 640 117 661 143 651 133 b 533 -29 621 92 582 28 b 499 386 344 -246 429 210 b 914 468 604 415 846 458 b 978 476 975 476 974 474 b 969 499 983 482 974 493 b 936 521 961 507 949 518 b 529 458 917 525 665 488 b 714 760 574 556 636 658 b 943 758 788 767 864 767 b 1051 742 1026 749 1046 739 b 1047 757 1057 744 1050 754 z m 544 731 b 546 731 544 731 544 731 z "},"Ǝ":{"ha":954,"x_min":0,"x_max":0,"o":"m -32 -51 b 32 -82 -12 -76 4 -76 b 288 -104 121 -99 206 -106 b 361 -114 307 -114 344 -121 b 374 -100 363 -114 367 -108 b 938 383 821 -60 989 211 b 811 478 918 446 872 486 b 750 422 776 472 750 451 b 769 419 750 410 763 406 b 804 450 779 438 790 447 b 469 -26 918 476 888 85 l 469 -25 b 426 -36 456 -29 442 -32 b 611 278 479 35 556 147 b 738 322 660 292 703 307 b 744 340 743 325 750 326 b 685 385 736 356 704 386 b 643 363 678 383 681 379 b 628 840 701 538 793 789 b 514 839 583 854 549 853 b 458 814 499 835 481 828 b 285 615 389 769 335 690 b 306 574 269 594 258 585 b 375 589 354 563 364 572 b 482 735 394 614 433 678 b 517 319 671 951 586 496 b 101 238 411 290 169 247 b 38 229 40 229 42 232 b 46 207 32 224 42 213 b 79 185 54 199 67 188 b 486 247 99 181 350 218 b 301 -54 442 150 379 47 b 72 -53 228 -61 151 -61 b -36 -36 -11 -43 -31 -33 b -32 -51 -42 -39 -35 -49 z m 469 -25 b 471 -25 471 -25 471 -25 z "},"Ẽ":{"ha":914,"x_min":0,"x_max":0,"o":"m 1047 757 b 983 788 1028 782 1011 782 b 728 810 894 804 810 811 b 654 819 708 819 671 826 b 642 806 653 819 649 814 b 78 322 194 765 26 494 b 204 228 97 260 143 219 b 265 283 239 233 265 254 b 246 286 265 296 253 300 b 211 256 236 268 225 258 b 546 732 97 229 128 621 l 546 731 b 589 742 560 735 574 738 b 404 428 536 671 460 558 b 278 383 356 414 313 399 b 271 365 272 381 265 379 b 331 321 279 350 311 319 b 372 343 338 322 335 326 b 388 -135 314 168 222 -83 b 501 -133 432 -149 467 -147 b 557 -108 517 -129 535 -122 b 731 90 626 -64 681 15 b 710 132 746 111 757 121 b 640 117 661 143 651 133 b 533 -29 621 92 582 28 b 499 386 344 -246 429 210 b 914 468 604 415 846 458 b 978 476 975 476 974 474 b 969 499 983 482 974 493 b 936 521 961 507 949 518 b 529 458 917 525 665 488 b 714 760 574 556 636 658 b 943 758 788 767 864 767 b 1051 742 1026 749 1046 739 b 1047 757 1057 744 1050 754 z m 544 731 b 546 731 544 731 544 731 z m 653 964 b 692 957 657 956 683 946 b 758 1025 699 969 719 997 b 793 928 760 982 760 946 b 857 919 813 919 836 915 b 1039 1047 897 929 1010 1028 b 993 1068 1061 1061 1022 1094 b 860 964 974 1050 892 982 b 810 1064 860 1004 860 1044 b 751 1064 790 1069 769 1072 b 653 964 707 1050 650 972 z "},"Ə":{"ha":940,"x_min":0,"x_max":0,"o":"m 94 408 b 108 404 97 406 104 401 b 417 793 114 407 186 719 b 703 453 606 853 719 676 b 285 60 671 32 194 -300 b 418 333 308 153 363 261 b 517 344 519 463 515 364 b 539 350 518 331 543 321 b 472 458 531 407 521 429 b 388 454 443 476 419 478 b 197 0 288 385 160 150 b 597 -14 208 -119 397 -211 b 793 571 743 131 833 360 b 446 868 750 789 572 883 b 85 435 313 853 167 724 b 94 408 82 425 76 421 z "},"Ʒ":{"ha":954,"x_min":0,"x_max":0,"o":"m -32 -51 b 32 -82 -12 -76 4 -76 b 288 -104 121 -99 206 -106 b 361 -114 307 -114 344 -121 b 374 -100 363 -114 367 -108 b 938 383 821 -60 989 211 b 811 478 918 446 872 486 b 750 422 776 472 750 451 b 769 419 750 410 763 406 b 804 450 779 438 790 447 b 469 -26 918 476 888 85 l 469 -25 b 426 -36 456 -29 442 -32 b 611 278 479 35 556 147 b 738 322 660 292 703 307 b 744 340 743 325 750 326 b 685 385 736 356 704 386 b 643 363 678 383 681 379 b 628 840 701 538 793 789 b 514 839 583 854 549 853 b 458 814 499 835 481 828 b 285 615 389 769 335 690 b 306 574 269 594 258 585 b 375 589 354 563 364 572 b 482 735 394 614 433 678 b 517 319 671 951 586 496 b 101 238 411 290 169 247 b 38 229 40 229 42 232 b 46 207 32 224 42 213 b 79 185 54 199 67 188 b 486 247 99 181 350 218 b 301 -54 442 150 379 47 b 72 -53 228 -61 151 -61 b -36 -36 -11 -43 -31 -33 b -32 -51 -42 -39 -35 -49 z m 469 -25 b 471 -25 471 -25 471 -25 z "},"Ǯ":{"ha":954,"x_min":0,"x_max":0,"o":"m -32 -51 b 32 -82 -12 -76 4 -76 b 288 -104 121 -99 206 -106 b 361 -114 307 -114 344 -121 b 374 -100 363 -114 367 -108 b 938 383 821 -60 989 211 b 811 478 918 446 872 486 b 750 422 776 472 750 451 b 769 419 750 410 763 406 b 804 450 779 438 790 447 b 469 -26 918 476 888 85 l 469 -25 b 426 -36 456 -29 442 -32 b 611 278 479 35 556 147 b 738 322 660 292 703 307 b 744 340 743 325 750 326 b 685 385 736 356 704 386 b 643 363 678 383 681 379 b 628 840 701 538 793 789 b 514 839 583 854 549 853 b 458 814 499 835 481 828 b 285 615 389 769 335 690 b 306 574 269 594 258 585 b 375 589 354 563 364 572 b 482 735 394 614 433 678 b 517 319 671 951 586 496 b 101 238 411 290 169 247 b 38 229 40 229 42 232 b 46 207 32 224 42 213 b 79 185 54 199 67 188 b 486 247 99 181 350 218 b 301 -54 442 150 379 47 b 72 -53 228 -61 151 -61 b -36 -36 -11 -43 -31 -33 b -32 -51 -42 -39 -35 -49 z m 469 -25 b 471 -25 471 -25 471 -25 z m 532 1093 b 578 997 531 1074 560 1060 b 590 932 589 964 581 951 b 689 876 610 894 674 857 b 690 901 690 878 690 889 b 801 1006 706 924 739 965 b 819 1028 814 1014 826 1014 b 768 1064 814 1040 786 1065 b 760 1057 765 1064 761 1060 b 672 972 724 1035 697 1006 b 603 1074 657 1007 636 1044 b 543 1103 586 1089 565 1101 b 532 1093 536 1101 532 1099 z "},"F":{"ha":997,"x_min":0,"x_max":0,"o":"m 961 401 b 869 404 939 410 893 407 b 854 403 864 404 860 403 b 878 524 865 444 874 485 b 790 757 888 618 872 699 b 549 793 735 797 665 815 b 168 565 390 763 261 675 b 182 215 -3 363 78 215 b 253 265 219 215 251 235 b 233 268 254 276 242 283 b 153 279 207 225 161 236 b 783 696 114 492 700 925 b 756 382 813 617 792 499 b 553 303 681 363 604 332 b 497 244 532 290 494 268 b 503 228 499 238 500 232 b 621 75 592 218 633 133 b 607 43 615 50 607 47 b 618 36 607 39 613 38 b 576 -78 610 17 575 -74 b 660 -110 581 -99 649 -150 b 839 350 675 -56 788 185 b 954 360 881 357 919 361 b 1003 353 989 357 993 350 b 961 401 1018 358 989 393 z m 542 238 b 606 272 554 244 572 257 b 735 322 644 290 689 308 b 651 114 707 246 676 172 b 576 224 643 158 617 201 b 542 238 567 229 554 235 z "},"G":{"ha":710,"x_min":0,"x_max":0,"o":"m 508 825 b 169 615 394 825 263 763 b 200 63 64 447 0 151 b 481 129 310 15 400 51 b 450 50 471 101 460 72 b 274 -90 408 54 265 -10 b 347 -146 276 -128 306 -142 b 469 -96 396 -151 438 -126 b 624 238 575 6 624 238 b 521 264 618 251 539 292 b 507 219 519 263 515 244 b 267 71 450 158 372 69 b 497 785 89 74 169 689 b 549 794 514 790 532 794 b 529 407 661 794 651 515 b 458 415 499 382 469 378 b 456 438 454 429 457 435 b 438 396 439 464 403 440 b 535 342 468 357 501 342 b 508 825 714 342 881 825 z m 313 -115 b 429 10 279 -69 374 -11 b 313 -115 404 -35 360 -94 z "},"Ğ":{"ha":710,"x_min":0,"x_max":0,"o":"m 508 825 b 169 615 394 825 263 763 b 200 63 64 447 0 151 b 481 129 310 15 400 51 b 450 50 471 101 460 72 b 274 -90 408 54 265 -10 b 347 -146 276 -128 306 -142 b 469 -96 396 -151 438 -126 b 624 238 575 6 624 238 b 521 264 618 251 539 292 b 507 219 519 263 515 244 b 267 71 450 158 372 69 b 497 785 89 74 169 689 b 549 794 514 790 532 794 b 529 407 661 794 651 515 b 458 415 499 382 469 378 b 456 438 454 429 457 435 b 438 396 439 464 403 440 b 535 342 468 357 501 342 b 508 825 714 342 881 825 z m 313 -115 b 429 10 279 -69 374 -11 b 313 -115 404 -35 360 -94 z m 444 1028 b 576 872 399 946 490 872 b 754 1031 660 872 754 961 b 664 999 754 1099 717 1078 b 544 936 647 974 589 936 b 515 1019 515 936 490 972 b 444 1028 532 1051 488 1104 z "},"Ǧ":{"ha":710,"x_min":0,"x_max":0,"o":"m 508 825 b 169 615 394 825 263 763 b 200 63 64 447 0 151 b 481 129 310 15 400 51 b 450 50 471 101 460 72 b 274 -90 408 54 265 -10 b 347 -146 276 -128 306 -142 b 469 -96 396 -151 438 -126 b 624 238 575 6 624 238 b 521 264 618 251 539 292 b 507 219 519 263 515 244 b 267 71 450 158 372 69 b 497 785 89 74 169 689 b 549 794 514 790 532 794 b 529 407 661 794 651 515 b 458 415 499 382 469 378 b 456 438 454 429 457 435 b 438 396 439 464 403 440 b 535 342 468 357 501 342 b 508 825 714 342 881 825 z m 313 -115 b 429 10 279 -69 374 -11 b 313 -115 404 -35 360 -94 z m 432 1090 b 478 994 431 1071 460 1057 b 490 929 489 961 481 949 b 589 874 510 892 574 854 b 590 899 590 875 590 886 b 701 1003 606 921 639 963 b 719 1025 714 1011 726 1011 b 668 1061 714 1038 686 1063 b 660 1054 665 1061 661 1057 b 572 969 624 1032 597 1003 b 503 1071 557 1004 536 1042 b 443 1100 486 1086 465 1099 b 432 1090 436 1099 432 1096 z "},"Ĝ":{"ha":710,"x_min":0,"x_max":0,"o":"m 508 825 b 169 615 394 825 263 763 b 200 63 64 447 0 151 b 481 129 310 15 400 51 b 450 50 471 101 460 72 b 274 -90 408 54 265 -10 b 347 -146 276 -128 306 -142 b 469 -96 396 -151 438 -126 b 624 238 575 6 624 238 b 521 264 618 251 539 292 b 507 219 519 263 515 244 b 267 71 450 158 372 69 b 497 785 89 74 169 689 b 549 794 514 790 532 794 b 529 407 661 794 651 515 b 458 415 499 382 469 378 b 456 438 454 429 457 435 b 438 396 439 464 403 440 b 535 342 468 357 501 342 b 508 825 714 342 881 825 z m 313 -115 b 429 10 279 -69 374 -11 b 313 -115 404 -35 360 -94 z m 397 936 b 447 899 403 921 431 896 b 457 904 451 899 453 903 b 544 990 490 929 519 957 b 611 890 557 954 581 917 b 672 858 628 874 649 861 b 682 869 681 861 682 865 b 636 967 686 888 656 903 b 626 1029 628 999 635 1011 b 528 1088 607 1067 540 1104 b 526 1061 526 1083 524 1074 b 415 957 510 1038 478 996 b 397 936 401 949 390 949 z "},"Ģ":{"ha":710,"x_min":0,"x_max":0,"o":"m 508 825 b 169 615 394 825 263 763 b 200 63 64 447 0 151 b 481 129 310 15 400 51 b 450 50 471 101 460 72 b 274 -90 408 54 265 -10 b 347 -146 276 -128 306 -142 b 469 -96 396 -151 438 -126 b 624 238 575 6 624 238 b 521 264 618 251 539 292 b 507 219 519 263 515 244 b 267 71 450 158 372 69 b 497 785 89 74 169 689 b 549 794 514 790 532 794 b 529 407 661 794 651 515 b 458 415 499 382 469 378 b 456 438 454 429 457 435 b 438 396 439 464 403 440 b 535 342 468 357 501 342 b 508 825 714 342 881 825 z m 49 -265 b 71 -285 54 -274 63 -281 b 156 -260 82 -289 125 -294 b 192 -157 179 -232 189 -193 b 192 -117 193 -144 196 -129 b 124 -65 183 -87 135 -53 b 121 -76 121 -68 121 -74 b 101 -187 122 -114 115 -154 b 51 -244 92 -210 74 -237 b 49 -265 49 -246 33 -244 z m 313 -115 b 429 10 279 -69 374 -11 b 313 -115 404 -35 360 -94 z "},"Ġ":{"ha":710,"x_min":0,"x_max":0,"o":"m 508 825 b 169 615 394 825 263 763 b 200 63 64 447 0 151 b 481 129 310 15 400 51 b 450 50 471 101 460 72 b 274 -90 408 54 265 -10 b 347 -146 276 -128 306 -142 b 469 -96 396 -151 438 -126 b 624 238 575 6 624 238 b 521 264 618 251 539 292 b 507 219 519 263 515 244 b 267 71 450 158 372 69 b 497 785 89 74 169 689 b 549 794 514 790 532 794 b 529 407 661 794 651 515 b 458 415 499 382 469 378 b 456 438 454 429 457 435 b 438 396 439 464 403 440 b 535 342 468 357 501 342 b 508 825 714 342 881 825 z m 313 -115 b 429 10 279 -69 374 -11 b 313 -115 404 -35 360 -94 z m 506 1022 b 550 932 494 976 514 936 b 633 1008 586 928 624 963 b 589 1100 644 1056 625 1096 b 506 1022 553 1104 517 1069 z "},"Ḡ":{"ha":710,"x_min":0,"x_max":0,"o":"m 508 825 b 169 615 394 825 263 763 b 200 63 64 447 0 151 b 481 129 310 15 400 51 b 450 50 471 101 460 72 b 274 -90 408 54 265 -10 b 347 -146 276 -128 306 -142 b 469 -96 396 -151 438 -126 b 624 238 575 6 624 238 b 521 264 618 251 539 292 b 507 219 519 263 515 244 b 267 71 450 158 372 69 b 497 785 89 74 169 689 b 549 794 514 790 532 794 b 529 407 661 794 651 515 b 458 415 499 382 469 378 b 456 438 454 429 457 435 b 438 396 439 464 403 440 b 535 342 468 357 501 342 b 508 825 714 342 881 825 z m 313 -115 b 429 10 279 -69 374 -11 b 313 -115 404 -35 360 -94 z m 372 933 b 725 946 381 933 589 957 b 769 1031 756 943 801 1028 b 443 1021 738 1033 582 1018 b 372 933 397 1022 347 933 z "},"Ǥ":{"ha":710,"x_min":0,"x_max":0,"o":"m 508 825 b 169 615 394 825 263 763 b 200 63 64 447 0 151 b 481 129 310 15 400 51 b 450 50 471 101 460 72 b 274 -90 408 54 265 -10 b 347 -146 276 -128 306 -142 b 469 -96 396 -151 438 -126 b 622 233 567 -3 615 201 l 672 233 b 700 310 686 233 739 310 l 369 310 b 342 233 335 308 322 233 l 511 233 l 507 219 b 267 71 450 158 372 69 b 497 785 89 74 169 689 b 549 794 514 790 532 794 b 529 407 661 794 651 515 b 458 415 499 382 469 378 b 456 438 454 429 457 435 b 438 396 439 464 403 440 b 535 342 468 357 501 342 b 508 825 714 342 881 825 z m 313 -115 b 429 10 279 -69 374 -11 b 313 -115 404 -35 360 -94 z "},"H":{"ha":1199,"x_min":0,"x_max":0,"o":"m 1107 319 b 1201 601 1132 399 1164 492 b 1194 614 1201 607 1199 610 b 1136 631 1181 624 1153 631 b 1118 624 1119 629 1121 626 b 1026 357 1097 568 1063 468 b 822 354 968 354 893 354 b 858 540 839 417 853 482 b 786 788 868 638 856 724 b 549 826 721 847 639 844 b 168 599 390 796 261 710 b 182 249 -3 396 78 249 b 253 299 219 249 251 268 b 233 303 254 311 242 317 b 153 313 207 260 161 271 b 669 793 124 472 476 793 b 779 725 721 793 764 775 b 739 354 807 629 778 488 b 626 357 697 354 658 356 b 613 356 622 357 617 358 b 650 307 603 347 629 313 b 722 304 653 306 681 306 b 619 7 674 154 615 25 b 690 -31 622 -14 681 -71 b 807 304 703 19 761 156 b 1010 306 872 303 946 304 b 899 -122 958 140 907 -36 b 911 -146 897 -133 896 -136 b 974 -160 926 -154 956 -162 b 985 -156 978 -158 982 -158 b 1104 310 990 -149 972 -101 b 1107 318 1107 311 1108 313 z "},"Ħ":{"ha":1199,"x_min":0,"x_max":0,"o":"m 1107 319 b 1201 601 1132 399 1164 492 b 1194 614 1201 607 1199 610 b 1136 631 1181 624 1153 631 b 1118 624 1119 629 1121 626 b 1076 506 1107 594 1093 554 l 854 506 l 858 540 b 786 788 868 638 856 724 b 549 826 721 847 639 844 b 168 599 390 796 261 710 b 182 249 -3 396 78 249 b 253 299 219 249 251 268 b 233 303 254 311 242 317 b 153 313 207 260 161 271 b 669 793 124 472 476 793 b 779 725 721 793 764 775 b 776 506 796 665 792 588 l 643 506 b 604 429 594 504 578 429 l 760 429 l 739 354 b 626 357 697 354 658 356 b 613 356 622 357 617 358 b 650 307 603 347 629 313 b 722 304 653 306 681 306 b 619 7 674 154 615 25 b 690 -31 622 -14 681 -71 b 807 304 703 19 761 156 b 1010 306 872 303 946 304 b 899 -122 958 140 907 -36 b 911 -146 897 -133 896 -136 b 974 -160 926 -154 956 -162 b 985 -156 978 -158 982 -158 b 1104 310 990 -149 972 -101 b 1107 318 1107 311 1108 313 z m 822 354 b 840 429 829 379 835 404 l 1050 429 b 1026 357 1043 406 1035 382 b 822 354 968 354 893 354 z "},"Ḫ":{"ha":1199,"x_min":0,"x_max":0,"o":"m 1107 319 b 1201 601 1132 399 1164 492 b 1194 614 1201 607 1199 610 b 1136 631 1181 624 1153 631 b 1118 624 1119 629 1121 626 b 1026 357 1097 568 1063 468 b 822 354 968 354 893 354 b 858 540 839 417 853 482 b 786 788 868 638 856 724 b 549 826 721 847 639 844 b 168 599 390 796 261 710 b 182 249 -3 396 78 249 b 253 299 219 249 251 268 b 233 303 254 311 242 317 b 153 313 207 260 161 271 b 669 793 124 472 476 793 b 779 725 721 793 764 775 b 739 354 807 629 778 488 b 626 357 697 354 658 356 b 613 356 622 357 617 358 b 650 307 603 347 629 313 b 722 304 653 306 681 306 b 619 7 674 154 615 25 b 690 -31 622 -14 681 -71 b 807 304 703 19 761 156 b 1010 306 872 303 946 304 b 899 -122 958 140 907 -36 b 911 -146 897 -133 896 -136 b 974 -160 926 -154 956 -162 b 985 -156 978 -158 982 -158 b 1104 310 990 -149 972 -101 b 1107 318 1107 311 1108 313 z m 547 -106 b 753 -231 503 -189 621 -333 b 871 -94 785 -206 829 -165 b 824 -94 881 -75 842 -62 b 683 -183 789 -154 738 -183 b 644 -94 651 -183 636 -136 b 547 -106 649 -72 569 -67 z "},"Ĥ":{"ha":1199,"x_min":0,"x_max":0,"o":"m 1107 319 b 1201 601 1132 399 1164 492 b 1194 614 1201 607 1199 610 b 1136 631 1181 624 1153 631 b 1118 624 1119 629 1121 626 b 1026 357 1097 568 1063 468 b 822 354 968 354 893 354 b 858 540 839 417 853 482 b 786 788 868 638 856 724 b 549 826 721 847 639 844 b 168 599 390 796 261 710 b 182 249 -3 396 78 249 b 253 299 219 249 251 268 b 233 303 254 311 242 317 b 153 313 207 260 161 271 b 669 793 124 472 476 793 b 779 725 721 793 764 775 b 739 354 807 629 778 488 b 626 357 697 354 658 356 b 613 356 622 357 617 358 b 650 307 603 347 629 313 b 722 304 653 306 681 306 b 619 7 674 154 615 25 b 690 -31 622 -14 681 -71 b 807 304 703 19 761 156 b 1010 306 872 303 946 304 b 899 -122 958 140 907 -36 b 911 -146 897 -133 896 -136 b 974 -160 926 -154 956 -162 b 985 -156 978 -158 982 -158 b 1104 310 990 -149 972 -101 b 1107 318 1107 311 1108 313 z m 907 819 b 957 782 913 804 940 779 b 967 788 961 782 963 786 b 1054 874 1000 813 1029 840 b 1121 774 1067 838 1090 800 b 1182 742 1138 757 1158 744 b 1192 753 1190 744 1192 749 b 1146 850 1196 771 1165 786 b 1136 913 1138 882 1144 894 b 1038 971 1117 950 1050 988 b 1036 944 1036 967 1033 957 b 925 840 1019 921 988 879 b 907 819 911 832 900 832 z "},"Ḥ":{"ha":1199,"x_min":0,"x_max":0,"o":"m 1107 319 b 1201 601 1132 399 1164 492 b 1194 614 1201 607 1199 610 b 1136 631 1181 624 1153 631 b 1118 624 1119 629 1121 626 b 1026 357 1097 568 1063 468 b 822 354 968 354 893 354 b 858 540 839 417 853 482 b 786 788 868 638 856 724 b 549 826 721 847 639 844 b 168 599 390 796 261 710 b 182 249 -3 396 78 249 b 253 299 219 249 251 268 b 233 303 254 311 242 317 b 153 313 207 260 161 271 b 669 793 124 472 476 793 b 779 725 721 793 764 775 b 739 354 807 629 778 488 b 626 357 697 354 658 356 b 613 356 622 357 617 358 b 650 307 603 347 629 313 b 722 304 653 306 681 306 b 619 7 674 154 615 25 b 690 -31 622 -14 681 -71 b 807 304 703 19 761 156 b 1010 306 872 303 946 304 b 899 -122 958 140 907 -36 b 911 -146 897 -133 896 -136 b 974 -160 926 -154 956 -162 b 985 -156 978 -158 982 -158 b 1104 310 990 -149 972 -101 b 1107 318 1107 311 1108 313 z m 656 -171 b 700 -262 644 -218 664 -258 b 783 -185 736 -267 772 -232 b 739 -94 794 -139 775 -99 b 656 -171 703 -90 665 -125 z "},"I":{"ha":711,"x_min":0,"x_max":0,"o":"m 488 879 b 214 743 392 878 292 821 l 215 742 b 139 649 188 713 161 682 b 183 301 -14 431 79 292 b 249 357 219 304 250 326 b 229 358 249 369 238 374 b 149 361 207 314 160 321 b 603 733 100 538 533 1038 b 419 -14 653 511 414 21 b 496 -54 424 -35 485 -94 b 692 575 514 19 674 364 b 488 879 710 778 615 879 z "},"Ĳ":{"ha":1701,"x_min":0,"x_max":0,"o":"m 488 879 b 214 743 392 878 292 821 l 215 742 b 139 649 188 713 161 682 b 183 301 -14 431 79 292 b 249 357 219 304 250 326 b 229 358 249 369 238 374 b 149 361 207 314 160 321 b 603 733 100 538 533 1038 b 419 -14 653 511 414 21 b 496 -54 424 -35 485 -94 b 692 575 514 19 674 364 b 488 879 710 778 615 879 z m 864 306 b 1510 675 829 501 1413 1000 b 1451 260 1549 549 1503 381 b 1136 -144 1168 153 1040 -108 b 1208 -149 1154 -151 1181 -154 b 1392 -8 1279 -135 1346 -65 b 1557 251 1456 71 1518 158 b 1631 269 1618 268 1624 263 b 1583 289 1639 278 1606 290 b 1572 288 1579 289 1575 289 b 1590 694 1618 407 1647 579 b 879 593 1469 940 1069 819 b 893 242 708 389 789 242 b 964 292 931 242 963 261 b 944 296 965 304 953 310 b 864 306 918 253 872 264 z m 1247 -61 b 1431 213 1115 -186 1118 65 b 1247 -61 1386 118 1324 10 z "},"Í":{"ha":711,"x_min":0,"x_max":0,"o":"m 488 879 b 214 743 392 878 292 821 l 215 742 b 139 649 188 713 161 682 b 183 301 -14 431 79 292 b 249 357 219 304 250 326 b 229 358 249 369 238 374 b 149 361 207 314 160 321 b 603 733 100 538 533 1038 b 419 -14 653 511 414 21 b 496 -54 424 -35 485 -94 b 692 575 514 19 674 364 b 488 879 710 778 615 879 z m 531 951 b 540 910 524 939 515 931 b 561 900 544 906 553 897 b 568 906 564 901 565 904 b 758 1043 603 960 690 1031 b 771 1047 763 1043 767 1043 b 701 1124 782 1060 728 1121 b 531 951 681 1125 576 1038 z "},"Ǐ":{"ha":711,"x_min":0,"x_max":0,"o":"m 488 879 b 214 743 392 878 292 821 l 215 742 b 139 649 188 713 161 682 b 183 301 -14 431 79 292 b 249 357 219 304 250 326 b 229 358 249 369 238 374 b 149 361 207 314 160 321 b 603 733 100 538 533 1038 b 419 -14 653 511 414 21 b 496 -54 424 -35 485 -94 b 692 575 514 19 674 364 b 488 879 710 778 615 879 z m 503 1090 b 549 994 501 1071 531 1057 b 561 929 560 961 551 949 b 660 874 581 892 644 854 b 661 899 661 875 661 886 b 772 1003 676 921 710 963 b 790 1025 785 1011 797 1011 b 739 1061 785 1038 757 1063 b 731 1054 736 1061 732 1057 b 643 969 694 1032 668 1003 b 574 1071 628 1004 607 1042 b 514 1100 557 1086 536 1099 b 503 1090 507 1099 503 1096 z "},"Î":{"ha":711,"x_min":0,"x_max":0,"o":"m 488 879 b 214 743 392 878 292 821 l 215 742 b 139 649 188 713 161 682 b 183 301 -14 431 79 292 b 249 357 219 304 250 326 b 229 358 249 369 238 374 b 149 361 207 314 160 321 b 603 733 100 538 533 1038 b 419 -14 653 511 414 21 b 496 -54 424 -35 485 -94 b 692 575 514 19 674 364 b 488 879 710 778 615 879 z m 468 936 b 518 899 474 921 501 896 b 528 904 522 899 524 903 b 615 990 561 929 590 957 b 682 890 628 954 651 917 b 743 858 699 874 719 861 b 753 869 751 861 753 865 b 707 967 757 888 726 903 b 697 1029 699 999 706 1011 b 599 1088 678 1067 611 1104 b 597 1061 597 1083 594 1074 b 486 957 581 1038 549 996 b 468 936 472 949 461 949 z "},"Ï":{"ha":711,"x_min":0,"x_max":0,"o":"m 488 879 b 214 743 392 878 292 821 l 215 742 b 139 649 188 713 161 682 b 183 301 -14 431 79 292 b 249 357 219 304 250 326 b 229 358 249 369 238 374 b 149 361 207 314 160 321 b 603 733 100 538 533 1038 b 419 -14 653 511 414 21 b 496 -54 424 -35 485 -94 b 692 575 514 19 674 364 b 488 879 710 778 615 879 z m 496 988 b 540 897 485 942 504 901 b 624 974 576 893 614 928 b 579 1065 635 1021 615 1061 b 496 988 543 1069 507 1035 z m 676 988 b 721 897 665 942 685 901 b 804 974 757 893 794 928 b 760 1065 815 1021 796 1061 b 676 988 724 1069 688 1035 z "},"Ḯ":{"ha":711,"x_min":0,"x_max":0,"o":"m 488 879 b 214 743 392 878 292 821 l 215 742 b 139 649 188 713 161 682 b 183 301 -14 431 79 292 b 249 357 219 304 250 326 b 229 358 249 369 238 374 b 149 361 207 314 160 321 b 603 733 100 538 533 1038 b 419 -14 653 511 414 21 b 496 -54 424 -35 485 -94 b 692 575 514 19 674 364 b 488 879 710 778 615 879 z m 496 988 b 540 897 485 942 504 901 b 624 974 576 893 614 928 b 579 1065 635 1021 615 1061 b 496 988 543 1069 507 1035 z m 599 1178 b 608 1136 592 1165 583 1157 b 629 1126 613 1132 621 1124 b 636 1132 632 1128 633 1131 b 826 1269 671 1186 758 1257 b 839 1274 831 1269 835 1269 b 769 1350 850 1286 796 1347 b 599 1178 749 1351 644 1264 z m 676 988 b 721 897 665 942 685 901 b 804 974 757 893 794 928 b 760 1065 815 1021 796 1061 b 676 988 724 1069 688 1035 z "},"İ":{"ha":711,"x_min":0,"x_max":0,"o":"m 488 879 b 214 743 392 878 292 821 l 215 742 b 139 649 188 713 161 682 b 183 301 -14 431 79 292 b 249 357 219 304 250 326 b 229 358 249 369 238 374 b 149 361 207 314 160 321 b 603 733 100 538 533 1038 b 419 -14 653 511 414 21 b 496 -54 424 -35 485 -94 b 692 575 514 19 674 364 b 488 879 710 778 615 879 z m 576 1022 b 621 932 565 976 585 936 b 704 1008 657 928 694 963 b 660 1100 715 1056 696 1096 b 576 1022 624 1104 588 1069 z "},"Ị":{"ha":711,"x_min":0,"x_max":0,"o":"m 488 879 b 214 743 392 878 292 821 l 215 742 b 139 649 188 713 161 682 b 183 301 -14 431 79 292 b 249 357 219 304 250 326 b 229 358 249 369 238 374 b 149 361 207 314 160 321 b 603 733 100 538 533 1038 b 419 -14 653 511 414 21 b 496 -54 424 -35 485 -94 b 692 575 514 19 674 364 b 488 879 710 778 615 879 z m 318 -206 b 363 -297 307 -253 326 -293 b 446 -219 399 -301 435 -267 b 401 -129 457 -174 438 -133 b 318 -206 365 -125 328 -160 z "},"Ì":{"ha":711,"x_min":0,"x_max":0,"o":"m 488 879 b 214 743 392 878 292 821 l 215 742 b 139 649 188 713 161 682 b 183 301 -14 431 79 292 b 249 357 219 304 250 326 b 229 358 249 369 238 374 b 149 361 207 314 160 321 b 603 733 100 538 533 1038 b 419 -14 653 511 414 21 b 496 -54 424 -35 485 -94 b 692 575 514 19 674 364 b 488 879 710 778 615 879 z m 499 1013 b 511 1008 503 1008 507 1008 b 703 871 579 996 667 925 l 708 865 b 729 875 717 863 725 871 b 740 917 754 896 746 904 b 568 1089 694 1003 589 1090 b 499 1013 542 1086 488 1025 z "},"Ỉ":{"ha":711,"x_min":0,"x_max":0,"o":"m 488 879 b 214 743 392 878 292 821 l 215 742 b 139 649 188 713 161 682 b 183 301 -14 431 79 292 b 249 357 219 304 250 326 b 229 358 249 369 238 374 b 149 361 207 314 160 321 b 603 733 100 538 533 1038 b 419 -14 653 511 414 21 b 496 -54 424 -35 485 -94 b 692 575 514 19 674 364 b 488 879 710 778 615 879 z m 519 1038 b 553 1025 525 1015 553 1024 b 611 1089 549 1054 582 1081 b 619 942 640 1044 642 989 b 588 894 600 904 589 903 b 590 886 588 892 589 889 b 610 874 596 881 603 878 b 672 885 647 858 654 869 b 699 1086 740 950 744 1036 b 556 1126 668 1119 599 1144 b 519 1038 521 1111 508 1074 z "},"Ī":{"ha":711,"x_min":0,"x_max":0,"o":"m 488 879 b 214 743 392 878 292 821 l 215 742 b 139 649 188 713 161 682 b 183 301 -14 431 79 292 b 249 357 219 304 250 326 b 229 358 249 369 238 374 b 149 361 207 314 160 321 b 603 733 100 538 533 1038 b 419 -14 653 511 414 21 b 496 -54 424 -35 485 -94 b 692 575 514 19 674 364 b 488 879 710 778 615 879 z m 443 933 b 796 946 451 933 660 957 b 840 1031 826 943 872 1028 b 514 1021 808 1033 653 1018 b 443 933 468 1022 418 933 z "},"Į":{"ha":711,"x_min":0,"x_max":0,"o":"m 488 879 b 214 743 392 878 292 821 l 215 742 b 139 649 188 713 161 682 b 183 301 -14 431 79 292 b 249 357 219 304 250 326 b 229 358 249 369 238 374 b 149 361 207 314 160 321 b 603 733 100 538 533 1038 b 419 -14 653 511 414 21 b 432 -35 421 -19 425 -26 b 419 -46 428 -37 424 -42 b 394 -225 357 -104 354 -181 b 524 -261 422 -256 485 -278 b 557 -182 556 -247 567 -214 b 526 -171 551 -162 526 -169 b 474 -228 531 -197 500 -221 b 467 -96 447 -187 446 -139 b 485 -67 474 -81 481 -72 b 496 -54 490 -65 494 -61 b 692 575 514 19 674 364 b 488 879 710 778 615 879 z "},"Ĩ":{"ha":711,"x_min":0,"x_max":0,"o":"m 488 879 b 214 743 392 878 292 821 l 215 742 b 139 649 188 713 161 682 b 183 301 -14 431 79 292 b 249 357 219 304 250 326 b 229 358 249 369 238 374 b 149 361 207 314 160 321 b 603 733 100 538 533 1038 b 419 -14 653 511 414 21 b 496 -54 424 -35 485 -94 b 692 575 514 19 674 364 b 488 879 710 778 615 879 z m 456 976 b 494 969 460 968 486 958 b 561 1038 501 982 522 1010 b 596 940 563 994 563 958 b 660 932 615 932 639 928 b 842 1060 700 942 813 1040 b 796 1081 864 1074 825 1107 b 663 976 776 1063 694 994 b 613 1076 663 1017 663 1057 b 554 1076 593 1082 572 1085 b 456 976 510 1063 453 985 z "},"J":{"ha":990,"x_min":0,"x_max":0,"o":"m 872 289 b 861 288 868 289 864 289 b 879 694 907 407 936 579 b 168 593 758 940 358 819 b 182 242 -3 389 78 242 b 253 292 219 242 251 261 b 233 296 254 304 242 310 b 153 306 207 253 161 264 b 799 675 118 501 701 1000 b 740 260 838 549 792 381 b 425 -144 457 153 329 -108 b 497 -149 443 -151 469 -154 b 681 -8 568 -135 635 -65 b 846 251 744 71 807 158 b 919 269 907 268 913 263 b 872 289 928 278 894 290 z m 536 -61 b 719 213 404 -186 407 65 b 536 -61 675 118 613 10 z "},"Ĵ":{"ha":990,"x_min":0,"x_max":0,"o":"m 872 289 b 861 288 868 289 864 289 b 879 694 907 407 936 579 b 168 593 758 940 358 819 b 182 242 -3 389 78 242 b 253 292 219 242 251 261 b 233 296 254 304 242 310 b 153 306 207 253 161 264 b 799 675 118 501 701 1000 b 740 260 838 549 792 381 b 425 -144 457 153 329 -108 b 497 -149 443 -151 469 -154 b 681 -8 568 -135 635 -65 b 846 251 744 71 807 158 b 919 269 907 268 913 263 b 872 289 928 278 894 290 z m 536 -61 b 719 213 404 -186 407 65 b 536 -61 675 118 613 10 z m 538 936 b 588 899 543 921 571 896 b 597 904 592 899 593 903 b 685 990 631 929 660 957 b 751 890 697 954 721 917 b 813 858 768 874 789 861 b 822 869 821 861 822 865 b 776 967 826 888 796 903 b 767 1029 768 999 775 1011 b 668 1088 747 1067 681 1104 b 667 1061 667 1083 664 1074 b 556 957 650 1038 618 996 b 538 936 542 949 531 949 z "},"K":{"ha":1181,"x_min":0,"x_max":0,"o":"m 1296 833 b 1215 842 1274 849 1222 853 b 1224 808 1211 836 1224 833 b 838 339 1224 744 1053 465 b 882 507 857 396 874 454 b 639 850 913 696 817 851 b 549 840 613 850 582 847 b 168 613 390 810 261 722 b 182 263 -3 408 78 263 b 253 311 219 263 251 282 b 233 315 254 324 242 329 b 153 325 207 272 161 283 b 811 696 115 536 735 1024 b 588 -50 863 475 583 -14 b 658 -92 589 -71 642 -131 b 913 154 781 194 825 394 b 950 -117 940 76 950 -42 b 950 -150 950 -146 947 -146 b 1026 -171 958 -164 1003 -175 b 1040 -158 1040 -169 1040 -165 b 1001 100 1046 -85 1033 19 b 885 281 968 183 928 246 b 1310 781 1117 407 1283 696 b 1296 833 1317 801 1313 821 z "},"Ǩ":{"ha":1181,"x_min":0,"x_max":0,"o":"m 1296 833 b 1215 842 1274 849 1222 853 b 1224 808 1211 836 1224 833 b 838 339 1224 744 1053 465 b 882 507 857 396 874 454 b 639 850 913 696 817 851 b 549 840 613 850 582 847 b 168 613 390 810 261 722 b 182 263 -3 408 78 263 b 253 311 219 263 251 282 b 233 315 254 324 242 329 b 153 325 207 272 161 283 b 811 696 115 536 735 1024 b 588 -50 863 475 583 -14 b 658 -92 589 -71 642 -131 b 913 154 781 194 825 394 b 950 -117 940 76 950 -42 b 950 -150 950 -146 947 -146 b 1026 -171 958 -164 1003 -175 b 1040 -158 1040 -169 1040 -165 b 1001 100 1046 -85 1033 19 b 885 281 968 183 928 246 b 1310 781 1117 407 1283 696 b 1296 833 1317 801 1313 821 z m 949 1061 b 994 965 947 1042 976 1028 b 1007 900 1006 932 997 919 b 1106 844 1026 863 1090 825 b 1107 869 1107 846 1107 857 b 1218 974 1122 892 1156 933 b 1236 996 1231 982 1243 982 b 1185 1032 1231 1008 1203 1033 b 1176 1025 1182 1032 1178 1028 b 1089 940 1140 1003 1114 974 b 1019 1042 1074 975 1053 1013 b 960 1071 1003 1057 982 1069 b 949 1061 953 1069 949 1067 z "},"Ķ":{"ha":1181,"x_min":0,"x_max":0,"o":"m 1296 833 b 1215 842 1274 849 1222 853 b 1224 808 1211 836 1224 833 b 838 339 1224 744 1053 465 b 882 507 857 396 874 454 b 639 850 913 696 817 851 b 549 840 613 850 582 847 b 168 613 390 810 261 722 b 182 263 -3 408 78 263 b 253 311 219 263 251 282 b 233 315 254 324 242 329 b 153 325 207 272 161 283 b 811 696 115 536 735 1024 b 588 -50 863 475 583 -14 b 658 -92 589 -71 642 -131 b 913 154 781 194 825 394 b 950 -117 940 76 950 -42 b 950 -150 950 -146 947 -146 b 1026 -171 958 -164 1003 -175 b 1040 -158 1040 -169 1040 -165 b 1001 100 1046 -85 1033 19 b 885 281 968 183 928 246 b 1310 781 1117 407 1283 696 b 1296 833 1317 801 1313 821 z m 671 -329 b 693 -349 676 -337 685 -344 b 778 -324 704 -353 747 -358 b 814 -221 801 -296 811 -257 b 814 -181 815 -208 818 -193 b 746 -129 806 -151 757 -117 b 743 -140 743 -132 743 -137 b 724 -251 744 -178 738 -218 b 674 -308 714 -274 696 -301 b 671 -329 671 -310 656 -308 z "},"Ḵ":{"ha":1181,"x_min":0,"x_max":0,"o":"m 1296 833 b 1215 842 1274 849 1222 853 b 1224 808 1211 836 1224 833 b 838 339 1224 744 1053 465 b 882 507 857 396 874 454 b 639 850 913 696 817 851 b 549 840 613 850 582 847 b 168 613 390 810 261 722 b 182 263 -3 408 78 263 b 253 311 219 263 251 282 b 233 315 254 324 242 329 b 153 325 207 272 161 283 b 811 696 115 536 735 1024 b 588 -50 863 475 583 -14 b 658 -92 589 -71 642 -131 b 913 154 781 194 825 394 b 950 -117 940 76 950 -42 b 950 -150 950 -146 947 -146 b 1026 -171 958 -164 1003 -175 b 1040 -158 1040 -169 1040 -165 b 1001 100 1046 -85 1033 19 b 885 281 968 183 928 246 b 1310 781 1117 407 1283 696 b 1296 833 1317 801 1313 821 z m 563 -257 b 889 -247 594 -260 750 -244 b 960 -160 935 -249 985 -160 b 607 -172 951 -160 743 -183 b 563 -257 576 -169 531 -254 z "},"L":{"ha":1056,"x_min":0,"x_max":0,"o":"m 1014 -28 b 1006 -12 1013 -22 1008 -17 b 947 14 982 18 967 13 b 717 10 888 15 799 19 b 858 499 763 133 843 326 b 786 746 868 596 856 682 b 549 785 721 807 639 803 b 168 557 390 754 261 668 b 182 207 -3 354 78 207 b 253 257 219 207 251 226 b 233 261 254 269 242 275 b 153 271 207 218 161 229 b 669 751 124 431 476 751 b 779 683 721 751 764 733 b 624 -10 835 488 658 97 b 539 -69 585 -22 554 -42 b 529 -97 533 -79 528 -94 b 539 -112 529 -104 535 -110 b 556 -110 554 -125 554 -115 b 610 -68 567 -90 590 -78 l 633 -60 b 690 -72 653 -82 683 -100 b 699 -44 693 -64 694 -54 b 1011 -36 832 -24 1000 -42 b 1014 -28 1014 -35 1014 -31 z "},"Ĺ":{"ha":1056,"x_min":0,"x_max":0,"o":"m 1014 -28 b 1006 -12 1013 -22 1008 -17 b 947 14 982 18 967 13 b 717 10 888 15 799 19 b 858 499 763 133 843 326 b 786 746 868 596 856 682 b 549 785 721 807 639 803 b 168 557 390 754 261 668 b 182 207 -3 354 78 207 b 253 257 219 207 251 226 b 233 261 254 269 242 275 b 153 271 207 218 161 229 b 669 751 124 431 476 751 b 779 683 721 751 764 733 b 624 -10 835 488 658 97 b 539 -69 585 -22 554 -42 b 529 -97 533 -79 528 -94 b 539 -112 529 -104 535 -110 b 556 -110 554 -125 554 -115 b 610 -68 567 -90 590 -78 l 633 -60 b 690 -72 653 -82 683 -100 b 699 -44 693 -64 694 -54 b 1011 -36 832 -24 1000 -42 b 1014 -28 1014 -35 1014 -31 z m 694 917 b 704 875 688 904 679 896 b 725 865 708 871 717 863 b 732 871 728 867 729 869 b 922 1008 767 925 854 996 b 935 1013 926 1008 931 1008 b 865 1089 946 1025 892 1086 b 694 917 844 1090 740 1003 z "},"Ľ":{"ha":1056,"x_min":0,"x_max":0,"o":"m 1014 -28 b 1006 -12 1013 -22 1008 -17 b 947 14 982 18 967 13 b 717 10 888 15 799 19 b 858 499 763 133 843 326 b 786 746 868 596 856 682 b 549 785 721 807 639 803 b 168 557 390 754 261 668 b 182 207 -3 354 78 207 b 253 257 219 207 251 226 b 233 261 254 269 242 275 b 153 271 207 218 161 229 b 669 751 124 431 476 751 b 779 683 721 751 764 733 b 624 -10 835 488 658 97 b 539 -69 585 -22 554 -42 b 529 -97 533 -79 528 -94 b 539 -112 529 -104 535 -110 b 556 -110 554 -125 554 -115 b 610 -68 567 -90 590 -78 l 633 -60 b 690 -72 653 -82 683 -100 b 699 -44 693 -64 694 -54 b 1011 -36 832 -24 1000 -42 b 1014 -28 1014 -35 1014 -31 z m 1000 638 b 1047 617 1000 619 1032 600 b 1183 786 1075 669 1129 746 b 1093 818 1183 818 1118 832 b 1000 638 1047 778 1000 679 z "},"Ḽ":{"ha":1056,"x_min":0,"x_max":0,"o":"m 1014 -28 b 1006 -12 1013 -22 1008 -17 b 947 14 982 18 967 13 b 717 10 888 15 799 19 b 858 499 763 133 843 326 b 786 746 868 596 856 682 b 549 785 721 807 639 803 b 168 557 390 754 261 668 b 182 207 -3 354 78 207 b 253 257 219 207 251 226 b 233 261 254 269 242 275 b 153 271 207 218 161 229 b 669 751 124 431 476 751 b 779 683 721 751 764 733 b 624 -10 835 488 658 97 b 539 -69 585 -22 554 -42 b 529 -97 533 -79 528 -94 b 539 -112 529 -104 535 -110 b 556 -110 554 -125 554 -115 b 610 -68 567 -90 590 -78 l 633 -60 b 690 -72 653 -82 683 -100 b 699 -44 693 -64 694 -54 b 1011 -36 832 -24 1000 -42 b 1014 -28 1014 -35 1014 -31 z m 667 1056 b 713 960 665 1036 694 1022 b 725 894 724 926 715 914 b 824 839 744 857 808 819 b 825 864 825 840 825 851 b 936 968 840 886 874 928 b 954 990 949 976 961 976 b 903 1026 949 1003 921 1028 b 894 1019 900 1026 896 1022 b 807 935 858 997 832 968 b 738 1036 792 969 771 1007 b 678 1065 721 1051 700 1064 b 667 1056 671 1064 667 1061 z "},"Ļ":{"ha":1056,"x_min":0,"x_max":0,"o":"m 1014 -28 b 1006 -12 1013 -22 1008 -17 b 947 14 982 18 967 13 b 717 10 888 15 799 19 b 858 499 763 133 843 326 b 786 746 868 596 856 682 b 549 785 721 807 639 803 b 168 557 390 754 261 668 b 182 207 -3 354 78 207 b 253 257 219 207 251 226 b 233 261 254 269 242 275 b 153 271 207 218 161 229 b 669 751 124 431 476 751 b 779 683 721 751 764 733 b 624 -10 835 488 658 97 b 539 -69 585 -22 554 -42 b 529 -97 533 -79 528 -94 b 539 -112 529 -104 535 -110 b 556 -110 554 -125 554 -115 b 610 -68 567 -90 590 -78 l 633 -60 b 690 -72 653 -82 683 -100 b 699 -44 693 -64 694 -54 b 1011 -36 832 -24 1000 -42 b 1014 -28 1014 -35 1014 -31 z m 660 -296 b 682 -315 665 -304 674 -311 b 767 -290 693 -319 736 -325 b 803 -187 790 -262 800 -224 b 803 -147 804 -175 807 -160 b 735 -96 794 -118 746 -83 b 732 -107 732 -99 732 -104 b 713 -218 733 -144 726 -185 b 663 -275 703 -240 685 -268 b 660 -296 660 -276 644 -275 z "},"Ḷ":{"ha":1056,"x_min":0,"x_max":0,"o":"m 1014 -28 b 1006 -12 1013 -22 1008 -17 b 947 14 982 18 967 13 b 717 10 888 15 799 19 b 858 499 763 133 843 326 b 786 746 868 596 856 682 b 549 785 721 807 639 803 b 168 557 390 754 261 668 b 182 207 -3 354 78 207 b 253 257 219 207 251 226 b 233 261 254 269 242 275 b 153 271 207 218 161 229 b 669 751 124 431 476 751 b 779 683 721 751 764 733 b 624 -10 835 488 658 97 b 539 -69 585 -22 554 -42 b 529 -97 533 -79 528 -94 b 539 -112 529 -104 535 -110 b 556 -110 554 -125 554 -115 b 610 -68 567 -90 590 -78 l 633 -60 b 690 -72 653 -82 683 -100 b 699 -44 693 -64 694 -54 b 1011 -36 832 -24 1000 -42 b 1014 -28 1014 -35 1014 -31 z m 688 -201 b 732 -293 676 -249 696 -289 b 815 -215 768 -297 804 -262 b 771 -125 826 -169 807 -129 b 688 -201 735 -121 697 -156 z "},"Ḹ":{"ha":1056,"x_min":0,"x_max":0,"o":"m 1014 -28 b 1006 -12 1013 -22 1008 -17 b 947 14 982 18 967 13 b 717 10 888 15 799 19 b 858 499 763 133 843 326 b 786 746 868 596 856 682 b 549 785 721 807 639 803 b 168 557 390 754 261 668 b 182 207 -3 354 78 207 b 253 257 219 207 251 226 b 233 261 254 269 242 275 b 153 271 207 218 161 229 b 669 751 124 431 476 751 b 779 683 721 751 764 733 b 624 -10 835 488 658 97 b 539 -69 585 -22 554 -42 b 529 -97 533 -79 528 -94 b 539 -112 529 -104 535 -110 b 556 -110 554 -125 554 -115 b 610 -68 567 -90 590 -78 l 633 -60 b 690 -72 653 -82 683 -100 b 699 -44 693 -64 694 -54 b 1011 -36 832 -24 1000 -42 b 1014 -28 1014 -35 1014 -31 z m 607 899 b 960 911 615 899 824 922 b 1004 996 990 908 1036 993 b 678 986 972 999 817 983 b 607 899 632 988 582 899 z m 688 -201 b 732 -293 676 -249 696 -289 b 815 -215 768 -297 804 -262 b 771 -125 826 -169 807 -129 b 688 -201 735 -121 697 -156 z "},"Ḻ":{"ha":1056,"x_min":0,"x_max":0,"o":"m 1014 -28 b 1006 -12 1013 -22 1008 -17 b 947 14 982 18 967 13 b 717 10 888 15 799 19 b 858 499 763 133 843 326 b 786 746 868 596 856 682 b 549 785 721 807 639 803 b 168 557 390 754 261 668 b 182 207 -3 354 78 207 b 253 257 219 207 251 226 b 233 261 254 269 242 275 b 153 271 207 218 161 229 b 669 751 124 431 476 751 b 779 683 721 751 764 733 b 624 -10 835 488 658 97 b 539 -69 585 -22 554 -42 b 529 -97 533 -79 528 -94 b 539 -112 529 -104 535 -110 b 556 -110 554 -125 554 -115 b 610 -68 567 -90 590 -78 l 633 -60 b 690 -72 653 -82 683 -100 b 699 -44 693 -64 694 -54 b 1011 -36 832 -24 1000 -42 b 1014 -28 1014 -35 1014 -31 z m 551 -224 b 878 -214 583 -226 739 -211 b 949 -126 924 -215 974 -126 b 596 -139 940 -126 732 -150 b 551 -224 565 -136 519 -221 z "},"Ł":{"ha":1056,"x_min":0,"x_max":0,"o":"m 1014 -28 b 1006 -12 1013 -22 1008 -17 b 947 14 982 18 967 13 b 717 10 888 15 799 19 b 813 279 743 82 782 178 l 1007 350 b 1011 433 1022 356 1054 449 l 838 369 b 858 499 847 413 854 457 b 786 746 868 596 856 682 b 549 785 721 807 639 803 b 168 557 390 754 261 668 b 182 207 -3 354 78 207 b 253 257 219 207 251 226 b 233 261 254 269 242 275 b 153 271 207 218 161 229 b 669 751 124 431 476 751 b 779 683 721 751 764 733 b 744 336 804 593 781 463 l 650 301 b 646 219 613 286 624 211 l 717 244 b 624 -10 679 133 639 36 b 539 -69 585 -22 554 -42 b 529 -97 533 -79 528 -94 b 539 -112 529 -104 535 -110 b 556 -110 554 -125 554 -115 b 610 -68 567 -90 590 -78 l 633 -60 b 690 -72 653 -82 683 -100 b 699 -44 693 -64 694 -54 b 1011 -36 832 -24 1000 -42 b 1014 -28 1014 -35 1014 -31 z "},"M":{"ha":1433,"x_min":0,"x_max":0,"o":"m 1247 -12 b 1400 686 1256 200 1415 631 b 1344 739 1394 708 1361 735 b 999 164 1342 740 1015 186 b 1014 247 1003 192 1008 219 b 1140 721 1063 497 1139 689 b 1083 778 1142 747 1093 785 b 808 310 1071 767 908 524 b 790 746 853 432 956 629 b 549 782 735 786 665 804 b 168 554 390 751 261 664 b 182 204 -3 351 78 204 b 253 254 219 204 251 224 b 233 257 254 265 242 272 b 153 268 207 214 161 225 b 763 717 118 457 622 871 b 625 36 874 593 699 292 b 617 -37 618 14 607 -15 b 654 -79 624 -54 639 -69 b 700 -28 676 -94 669 -94 b 1028 626 751 89 847 364 b 928 219 986 494 949 354 b 940 110 918 153 921 135 b 1083 229 986 56 990 71 b 1306 604 1150 344 1231 497 b 1190 -67 1261 431 1133 49 b 1257 -107 1204 -97 1253 -126 b 1247 -12 1260 -99 1246 -85 z "},"Ḿ":{"ha":1433,"x_min":0,"x_max":0,"o":"m 1247 -12 b 1400 686 1256 200 1415 631 b 1344 739 1394 708 1361 735 b 999 164 1342 740 1015 186 b 1014 247 1003 192 1008 219 b 1140 721 1063 497 1139 689 b 1083 778 1142 747 1093 785 b 808 310 1071 767 908 524 b 790 746 853 432 956 629 b 549 782 735 786 665 804 b 168 554 390 751 261 664 b 182 204 -3 351 78 204 b 253 254 219 204 251 224 b 233 257 254 265 242 272 b 153 268 207 214 161 225 b 763 717 118 457 622 871 b 625 36 874 593 699 292 b 617 -37 618 14 607 -15 b 654 -79 624 -54 639 -69 b 700 -28 676 -94 669 -94 b 1028 626 751 89 847 364 b 928 219 986 494 949 354 b 940 110 918 153 921 135 b 1083 229 986 56 990 71 b 1306 604 1150 344 1231 497 b 1190 -67 1261 431 1133 49 b 1257 -107 1204 -97 1253 -126 b 1247 -12 1260 -99 1246 -85 z m 1158 839 b 1168 797 1151 826 1143 818 b 1189 788 1172 793 1181 785 b 1196 793 1192 789 1193 792 b 1386 931 1231 847 1318 918 b 1399 935 1390 931 1394 931 b 1329 1011 1410 947 1356 1008 b 1158 839 1308 1013 1204 925 z "},"Ṁ":{"ha":1433,"x_min":0,"x_max":0,"o":"m 1247 -12 b 1400 686 1256 200 1415 631 b 1344 739 1394 708 1361 735 b 999 164 1342 740 1015 186 b 1014 247 1003 192 1008 219 b 1140 721 1063 497 1139 689 b 1083 778 1142 747 1093 785 b 808 310 1071 767 908 524 b 790 746 853 432 956 629 b 549 782 735 786 665 804 b 168 554 390 751 261 664 b 182 204 -3 351 78 204 b 253 254 219 204 251 224 b 233 257 254 265 242 272 b 153 268 207 214 161 225 b 763 717 118 457 622 871 b 625 36 874 593 699 292 b 617 -37 618 14 607 -15 b 654 -79 624 -54 639 -69 b 700 -28 676 -94 669 -94 b 1028 626 751 89 847 364 b 928 219 986 494 949 354 b 940 110 918 153 921 135 b 1083 229 986 56 990 71 b 1306 604 1150 344 1231 497 b 1190 -67 1261 431 1133 49 b 1257 -107 1204 -97 1253 -126 b 1247 -12 1260 -99 1246 -85 z m 1204 910 b 1249 819 1193 864 1213 824 b 1332 896 1285 815 1322 850 b 1288 988 1343 943 1324 983 b 1204 910 1251 992 1215 957 z "},"Ṃ":{"ha":1433,"x_min":0,"x_max":0,"o":"m 1247 -12 b 1400 686 1256 200 1415 631 b 1344 739 1394 708 1361 735 b 999 164 1342 740 1015 186 b 1014 247 1003 192 1008 219 b 1140 721 1063 497 1139 689 b 1083 778 1142 747 1093 785 b 808 310 1071 767 908 524 b 790 746 853 432 956 629 b 549 782 735 786 665 804 b 168 554 390 751 261 664 b 182 204 -3 351 78 204 b 253 254 219 204 251 224 b 233 257 254 265 242 272 b 153 268 207 214 161 225 b 763 717 118 457 622 871 b 625 36 874 593 699 292 b 617 -37 618 14 607 -15 b 654 -79 624 -54 639 -69 b 700 -28 676 -94 669 -94 b 1028 626 751 89 847 364 b 928 219 986 494 949 354 b 940 110 918 153 921 135 b 1083 229 986 56 990 71 b 1306 604 1150 344 1231 497 b 1190 -67 1261 431 1133 49 b 1257 -107 1204 -97 1253 -126 b 1247 -12 1260 -99 1246 -85 z m 835 -171 b 879 -262 824 -218 843 -258 b 963 -185 915 -267 951 -232 b 918 -94 974 -139 954 -99 b 835 -171 882 -90 844 -125 z "},"N":{"ha":1250,"x_min":0,"x_max":0,"o":"m 1088 217 b 1154 463 1099 300 1118 385 b 1261 647 1181 522 1263 633 b 1207 700 1260 669 1218 704 b 819 325 1146 675 944 471 b 790 749 872 499 892 678 b 549 785 735 789 665 808 b 168 557 390 754 261 667 b 182 207 -3 354 78 207 b 253 257 219 207 251 226 b 233 260 254 268 242 275 b 153 271 207 218 161 228 b 758 722 119 458 606 857 b 583 -1 897 601 621 71 b 654 -76 575 -18 639 -67 b 1104 549 688 -99 696 242 b 1158 -117 974 342 969 -100 b 1167 -104 1167 -117 1168 -110 b 1088 217 1151 -57 1050 -76 z "},"Ń":{"ha":1250,"x_min":0,"x_max":0,"o":"m 1088 217 b 1154 463 1099 300 1118 385 b 1261 647 1181 522 1263 633 b 1207 700 1260 669 1218 704 b 819 325 1146 675 944 471 b 790 749 872 499 892 678 b 549 785 735 789 665 808 b 168 557 390 754 261 667 b 182 207 -3 354 78 207 b 253 257 219 207 251 226 b 233 260 254 268 242 275 b 153 271 207 218 161 228 b 758 722 119 458 606 857 b 583 -1 897 601 621 71 b 654 -76 575 -18 639 -67 b 1104 549 688 -99 696 242 b 1158 -117 974 342 969 -100 b 1167 -104 1167 -117 1168 -110 b 1088 217 1151 -57 1050 -76 z m 963 843 b 972 801 956 831 947 822 b 993 792 976 797 985 789 b 1000 797 996 793 997 796 b 1190 935 1035 851 1122 922 b 1203 939 1194 935 1199 935 b 1133 1015 1214 951 1160 1013 b 963 843 1113 1017 1008 929 z "},"Ň":{"ha":1250,"x_min":0,"x_max":0,"o":"m 1088 217 b 1154 463 1099 300 1118 385 b 1261 647 1181 522 1263 633 b 1207 700 1260 669 1218 704 b 819 325 1146 675 944 471 b 790 749 872 499 892 678 b 549 785 735 789 665 808 b 168 557 390 754 261 667 b 182 207 -3 354 78 207 b 253 257 219 207 251 226 b 233 260 254 268 242 275 b 153 271 207 218 161 228 b 758 722 119 458 606 857 b 583 -1 897 601 621 71 b 654 -76 575 -18 639 -67 b 1104 549 688 -99 696 242 b 1158 -117 974 342 969 -100 b 1167 -104 1167 -117 1168 -110 b 1088 217 1151 -57 1050 -76 z m 935 982 b 981 886 933 963 963 949 b 993 821 992 853 983 840 b 1092 765 1013 783 1076 746 b 1093 790 1093 767 1093 778 b 1204 894 1108 813 1142 854 b 1222 917 1217 903 1229 903 b 1171 953 1217 929 1189 954 b 1163 946 1168 953 1164 949 b 1075 861 1126 924 1100 894 b 1006 963 1060 896 1039 933 b 946 992 989 978 968 990 b 935 982 939 990 935 988 z "},"Ṋ":{"ha":1250,"x_min":0,"x_max":0,"o":"m 1088 217 b 1154 463 1099 300 1118 385 b 1261 647 1181 522 1263 633 b 1207 700 1260 669 1218 704 b 819 325 1146 675 944 471 b 790 749 872 499 892 678 b 549 785 735 789 665 808 b 168 557 390 754 261 667 b 182 207 -3 354 78 207 b 253 257 219 207 251 226 b 233 260 254 268 242 275 b 153 271 207 218 161 228 b 758 722 119 458 606 857 b 583 -1 897 601 621 71 b 654 -76 575 -18 639 -67 b 1104 549 688 -99 696 242 b 1158 -117 974 342 969 -100 b 1167 -104 1167 -117 1168 -110 b 1088 217 1151 -57 1050 -76 z m 935 982 b 981 886 933 963 963 949 b 993 821 992 853 983 840 b 1092 765 1013 783 1076 746 b 1093 790 1093 767 1093 778 b 1204 894 1108 813 1142 854 b 1222 917 1217 903 1229 903 b 1171 953 1217 929 1189 954 b 1163 946 1168 953 1164 949 b 1075 861 1126 924 1100 894 b 1006 963 1060 896 1039 933 b 946 992 989 978 968 990 b 935 982 939 990 935 988 z "},"Ņ":{"ha":1250,"x_min":0,"x_max":0,"o":"m 1088 217 b 1154 463 1099 300 1118 385 b 1261 647 1181 522 1263 633 b 1207 700 1260 669 1218 704 b 819 325 1146 675 944 471 b 790 749 872 499 892 678 b 549 785 735 789 665 808 b 168 557 390 754 261 667 b 182 207 -3 354 78 207 b 253 257 219 207 251 226 b 233 260 254 268 242 275 b 153 271 207 218 161 228 b 758 722 119 458 606 857 b 583 -1 897 601 621 71 b 654 -76 575 -18 639 -67 b 1104 549 688 -99 696 242 b 1158 -117 974 342 969 -100 b 1167 -104 1167 -117 1168 -110 b 1088 217 1151 -57 1050 -76 z m 758 -265 b 781 -285 764 -274 772 -281 b 865 -260 792 -289 835 -294 b 901 -157 889 -232 899 -193 b 901 -117 903 -144 906 -129 b 833 -65 893 -87 844 -53 b 831 -76 831 -68 831 -74 b 811 -187 832 -114 825 -154 b 761 -244 801 -210 783 -237 b 758 -265 758 -246 743 -244 z "},"Ṅ":{"ha":1250,"x_min":0,"x_max":0,"o":"m 1088 217 b 1154 463 1099 300 1118 385 b 1261 647 1181 522 1263 633 b 1207 700 1260 669 1218 704 b 819 325 1146 675 944 471 b 790 749 872 499 892 678 b 549 785 735 789 665 808 b 168 557 390 754 261 667 b 182 207 -3 354 78 207 b 253 257 219 207 251 226 b 233 260 254 268 242 275 b 153 271 207 218 161 228 b 758 722 119 458 606 857 b 583 -1 897 601 621 71 b 654 -76 575 -18 639 -67 b 1104 549 688 -99 696 242 b 1158 -117 974 342 969 -100 b 1167 -104 1167 -117 1168 -110 b 1088 217 1151 -57 1050 -76 z m 1008 914 b 1053 824 997 868 1017 828 b 1136 900 1089 819 1126 854 b 1092 992 1147 947 1128 988 b 1008 914 1056 996 1019 961 z "},"Ṇ":{"ha":1250,"x_min":0,"x_max":0,"o":"m 1088 217 b 1154 463 1099 300 1118 385 b 1261 647 1181 522 1263 633 b 1207 700 1260 669 1218 704 b 819 325 1146 675 944 471 b 790 749 872 499 892 678 b 549 785 735 789 665 808 b 168 557 390 754 261 667 b 182 207 -3 354 78 207 b 253 257 219 207 251 226 b 233 260 254 268 242 275 b 153 271 207 218 161 228 b 758 722 119 458 606 857 b 583 -1 897 601 621 71 b 654 -76 575 -18 639 -67 b 1104 549 688 -99 696 242 b 1158 -117 974 342 969 -100 b 1167 -104 1167 -117 1168 -110 b 1088 217 1151 -57 1050 -76 z m 786 -171 b 831 -262 775 -218 794 -258 b 914 -185 867 -267 903 -232 b 869 -94 925 -139 906 -99 b 786 -171 833 -90 796 -125 z "},"Ṉ":{"ha":1250,"x_min":0,"x_max":0,"o":"m 1088 217 b 1154 463 1099 300 1118 385 b 1261 647 1181 522 1263 633 b 1207 700 1260 669 1218 704 b 819 325 1146 675 944 471 b 790 749 872 499 892 678 b 549 785 735 789 665 808 b 168 557 390 754 261 667 b 182 207 -3 354 78 207 b 253 257 219 207 251 226 b 233 260 254 268 242 275 b 153 271 207 218 161 228 b 758 722 119 458 606 857 b 583 -1 897 601 621 71 b 654 -76 575 -18 639 -67 b 1104 549 688 -99 696 242 b 1158 -117 974 342 969 -100 b 1167 -104 1167 -117 1168 -110 b 1088 217 1151 -57 1050 -76 z m 650 -193 b 976 -183 682 -196 838 -181 b 1047 -96 1022 -185 1072 -96 b 694 -108 1039 -96 831 -119 b 650 -193 664 -106 618 -190 z "},"Ñ":{"ha":1250,"x_min":0,"x_max":0,"o":"m 1088 217 b 1154 463 1099 300 1118 385 b 1261 647 1181 522 1263 633 b 1207 700 1260 669 1218 704 b 819 325 1146 675 944 471 b 790 749 872 499 892 678 b 549 785 735 789 665 808 b 168 557 390 754 261 667 b 182 207 -3 354 78 207 b 253 257 219 207 251 226 b 233 260 254 268 242 275 b 153 271 207 218 161 228 b 758 722 119 458 606 857 b 583 -1 897 601 621 71 b 654 -76 575 -18 639 -67 b 1104 549 688 -99 696 242 b 1158 -117 974 342 969 -100 b 1167 -104 1167 -117 1168 -110 b 1088 217 1151 -57 1050 -76 z m 888 868 b 926 861 892 860 918 850 b 993 929 933 874 954 901 b 1028 832 994 886 994 850 b 1092 824 1047 824 1071 819 b 1274 951 1132 833 1244 932 b 1228 972 1296 965 1257 999 b 1094 868 1208 954 1126 886 b 1044 968 1094 908 1094 949 b 986 968 1025 974 1004 976 b 888 868 942 954 885 876 z "},"Ŋ":{"ha":1183,"x_min":0,"x_max":0,"o":"m 1088 217 b 1100 289 1090 240 1094 265 b 1138 414 1136 403 1138 408 b 1136 418 1138 415 1138 417 b 1154 463 1142 433 1147 449 b 1261 647 1181 522 1263 633 b 1207 700 1260 669 1218 704 b 819 325 1146 675 944 471 b 790 749 872 499 892 678 b 549 785 735 789 665 808 b 168 557 390 754 261 667 b 182 207 -3 354 78 207 b 253 257 219 207 251 226 b 233 260 254 268 242 275 b 153 271 207 218 161 228 b 758 722 119 458 606 857 b 583 -1 897 601 621 71 b 654 -76 575 -18 639 -67 b 1104 549 688 -99 696 242 b 1053 436 1083 517 1067 478 b 1046 424 1046 433 1047 429 b 1043 407 1044 418 1044 413 b 1026 338 1036 385 1031 361 b 896 -49 992 211 924 26 b 757 -140 836 -87 789 -110 b 788 -307 707 -187 667 -306 b 939 -172 829 -308 885 -282 b 1003 -18 964 -122 985 -71 l 1033 13 b 1158 -117 1056 -60 1097 -111 b 1167 -104 1167 -117 1168 -110 b 1081 69 1154 -67 1089 -71 b 1218 267 1126 129 1169 197 b 1210 286 1222 275 1232 279 b 1182 279 1188 292 1188 286 b 1079 129 1147 224 1111 172 b 1088 217 1081 154 1083 183 z m 782 -262 b 875 -104 728 -317 686 -218 b 782 -262 838 -197 804 -242 z "},"O":{"ha":1013,"x_min":0,"x_max":0,"o":"m 915 700 b 783 793 879 742 835 775 b 151 604 618 851 343 828 b 76 358 74 513 58 428 b 197 218 94 289 126 226 b 249 238 206 217 236 211 b 239 260 253 244 246 263 b 158 268 186 232 172 242 b 335 635 133 338 197 515 b 881 685 478 760 775 843 b 540 -79 979 538 692 17 b 540 288 376 -183 449 114 b 663 476 575 353 617 417 b 674 507 674 490 681 492 b 603 567 667 524 618 561 b 579 558 588 574 586 567 b 371 390 536 504 439 381 b 336 406 351 394 349 403 b 324 394 326 408 322 403 b 367 347 331 374 350 356 b 439 356 394 335 413 339 l 444 360 b 403 272 429 331 415 301 b 540 -140 292 8 414 -160 b 694 -43 601 -139 650 -96 b 738 7 710 -26 724 -11 b 915 700 889 196 1071 515 z "},"Ó":{"ha":1013,"x_min":0,"x_max":0,"o":"m 915 700 b 783 793 879 742 835 775 b 151 604 618 851 343 828 b 76 358 74 513 58 428 b 197 218 94 289 126 226 b 249 238 206 217 236 211 b 239 260 253 244 246 263 b 158 268 186 232 172 242 b 335 635 133 338 197 515 b 881 685 478 760 775 843 b 540 -79 979 538 692 17 b 540 288 376 -183 449 114 b 663 476 575 353 617 417 b 674 507 674 490 681 492 b 603 567 667 524 618 561 b 579 558 588 574 586 567 b 371 390 536 504 439 381 b 336 406 351 394 349 403 b 324 394 326 408 322 403 b 367 347 331 374 350 356 b 439 356 394 335 413 339 l 444 360 b 403 272 429 331 415 301 b 540 -140 292 8 414 -160 b 694 -43 601 -139 650 -96 b 738 7 710 -26 724 -11 b 915 700 889 196 1071 515 z m 715 907 b 725 865 708 894 700 886 b 746 856 729 861 738 853 b 753 861 749 857 750 860 b 943 999 788 915 875 986 b 956 1003 947 999 951 999 b 886 1079 967 1015 913 1076 b 715 907 865 1081 761 993 z "},"Ǒ":{"ha":1013,"x_min":0,"x_max":0,"o":"m 915 700 b 783 793 879 742 835 775 b 151 604 618 851 343 828 b 76 358 74 513 58 428 b 197 218 94 289 126 226 b 249 238 206 217 236 211 b 239 260 253 244 246 263 b 158 268 186 232 172 242 b 335 635 133 338 197 515 b 881 685 478 760 775 843 b 540 -79 979 538 692 17 b 540 288 376 -183 449 114 b 663 476 575 353 617 417 b 674 507 674 490 681 492 b 603 567 667 524 618 561 b 579 558 588 574 586 567 b 371 390 536 504 439 381 b 336 406 351 394 349 403 b 324 394 326 408 322 403 b 367 347 331 374 350 356 b 439 356 394 335 413 339 l 444 360 b 403 272 429 331 415 301 b 540 -140 292 8 414 -160 b 694 -43 601 -139 650 -96 b 738 7 710 -26 724 -11 b 915 700 889 196 1071 515 z m 688 1046 b 733 950 686 1026 715 1013 b 746 885 744 917 736 904 b 844 829 765 847 829 810 b 846 854 846 831 846 842 b 957 958 861 876 894 918 b 975 981 969 967 982 967 b 924 1017 969 993 942 1018 b 915 1010 921 1017 917 1013 b 828 925 879 988 853 958 b 758 1026 813 960 792 997 b 699 1056 742 1042 721 1054 b 688 1046 692 1054 688 1051 z "},"Ô":{"ha":1013,"x_min":0,"x_max":0,"o":"m 915 700 b 783 793 879 742 835 775 b 151 604 618 851 343 828 b 76 358 74 513 58 428 b 197 218 94 289 126 226 b 249 238 206 217 236 211 b 239 260 253 244 246 263 b 158 268 186 232 172 242 b 335 635 133 338 197 515 b 881 685 478 760 775 843 b 540 -79 979 538 692 17 b 540 288 376 -183 449 114 b 663 476 575 353 617 417 b 674 507 674 490 681 492 b 603 567 667 524 618 561 b 579 558 588 574 586 567 b 371 390 536 504 439 381 b 336 406 351 394 349 403 b 324 394 326 408 322 403 b 367 347 331 374 350 356 b 439 356 394 335 413 339 l 444 360 b 403 272 429 331 415 301 b 540 -140 292 8 414 -160 b 694 -43 601 -139 650 -96 b 738 7 710 -26 724 -11 b 915 700 889 196 1071 515 z m 653 892 b 703 854 658 876 686 851 b 713 860 707 854 708 858 b 800 946 746 885 775 913 b 867 846 813 910 836 872 b 928 814 883 829 904 817 b 938 825 936 817 938 821 b 892 922 942 843 911 858 b 882 985 883 954 890 967 b 783 1043 863 1022 796 1060 b 782 1017 782 1039 779 1029 b 671 913 765 993 733 951 b 653 892 657 904 646 904 z "},"Ố":{"ha":1013,"x_min":0,"x_max":0,"o":"m 915 700 b 783 793 879 742 835 775 b 151 604 618 851 343 828 b 76 358 74 513 58 428 b 197 218 94 289 126 226 b 249 238 206 217 236 211 b 239 260 253 244 246 263 b 158 268 186 232 172 242 b 335 635 133 338 197 515 b 881 685 478 760 775 843 b 540 -79 979 538 692 17 b 540 288 376 -183 449 114 b 663 476 575 353 617 417 b 674 507 674 490 681 492 b 603 567 667 524 618 561 b 579 558 588 574 586 567 b 371 390 536 504 439 381 b 336 406 351 394 349 403 b 324 394 326 408 322 403 b 367 347 331 374 350 356 b 439 356 394 335 413 339 l 444 360 b 403 272 429 331 415 301 b 540 -140 292 8 414 -160 b 694 -43 601 -139 650 -96 b 738 7 710 -26 724 -11 b 915 700 889 196 1071 515 z m 653 892 b 703 854 658 876 686 851 b 713 860 707 854 708 858 b 800 946 746 885 775 913 b 867 846 813 910 836 872 b 928 814 883 829 904 817 b 938 825 936 817 938 821 b 892 922 942 843 911 858 b 882 985 883 954 890 967 b 783 1043 863 1022 796 1060 b 782 1017 782 1039 779 1029 b 671 913 765 993 733 951 b 653 892 657 904 646 904 z m 779 1161 b 789 1119 772 1149 764 1140 b 810 1110 793 1115 801 1107 b 817 1115 813 1111 814 1114 b 1007 1253 851 1169 939 1240 b 1019 1257 1011 1253 1015 1253 b 950 1333 1031 1269 976 1331 b 779 1161 929 1335 825 1247 z "},"Ộ":{"ha":1013,"x_min":0,"x_max":0,"o":"m 915 700 b 783 793 879 742 835 775 b 151 604 618 851 343 828 b 76 358 74 513 58 428 b 197 218 94 289 126 226 b 249 238 206 217 236 211 b 239 260 253 244 246 263 b 158 268 186 232 172 242 b 335 635 133 338 197 515 b 881 685 478 760 775 843 b 540 -79 979 538 692 17 b 540 288 376 -183 449 114 b 663 476 575 353 617 417 b 674 507 674 490 681 492 b 603 567 667 524 618 561 b 579 558 588 574 586 567 b 371 390 536 504 439 381 b 336 406 351 394 349 403 b 324 394 326 408 322 403 b 367 347 331 374 350 356 b 439 356 394 335 413 339 l 444 360 b 403 272 429 331 415 301 b 540 -140 292 8 414 -160 b 694 -43 601 -139 650 -96 b 738 7 710 -26 724 -11 b 915 700 889 196 1071 515 z m 333 -250 b 378 -342 322 -297 342 -337 b 461 -264 414 -346 450 -311 b 417 -174 472 -218 453 -178 b 333 -250 381 -169 343 -204 z m 653 892 b 703 854 658 876 686 851 b 713 860 707 854 708 858 b 800 946 746 885 775 913 b 867 846 813 910 836 872 b 928 814 883 829 904 817 b 938 825 936 817 938 821 b 892 922 942 843 911 858 b 882 985 883 954 890 967 b 783 1043 863 1022 796 1060 b 782 1017 782 1039 779 1029 b 671 913 765 993 733 951 b 653 892 657 904 646 904 z "},"Ồ":{"ha":1013,"x_min":0,"x_max":0,"o":"m 915 700 b 783 793 879 742 835 775 b 151 604 618 851 343 828 b 76 358 74 513 58 428 b 197 218 94 289 126 226 b 249 238 206 217 236 211 b 239 260 253 244 246 263 b 158 268 186 232 172 242 b 335 635 133 338 197 515 b 881 685 478 760 775 843 b 540 -79 979 538 692 17 b 540 288 376 -183 449 114 b 663 476 575 353 617 417 b 674 507 674 490 681 492 b 603 567 667 524 618 561 b 579 558 588 574 586 567 b 371 390 536 504 439 381 b 336 406 351 394 349 403 b 324 394 326 408 322 403 b 367 347 331 374 350 356 b 439 356 394 335 413 339 l 444 360 b 403 272 429 331 415 301 b 540 -140 292 8 414 -160 b 694 -43 601 -139 650 -96 b 738 7 710 -26 724 -11 b 915 700 889 196 1071 515 z m 653 892 b 703 854 658 876 686 851 b 713 860 707 854 708 858 b 800 946 746 885 775 913 b 867 846 813 910 836 872 b 928 814 883 829 904 817 b 938 825 936 817 938 821 b 892 922 942 843 911 858 b 882 985 883 954 890 967 b 783 1043 863 1022 796 1060 b 782 1017 782 1039 779 1029 b 671 913 765 993 733 951 b 653 892 657 904 646 904 z m 747 1222 b 760 1218 751 1218 756 1218 b 951 1081 828 1206 915 1135 l 957 1075 b 978 1085 965 1072 974 1081 b 989 1126 1003 1106 994 1114 b 817 1299 943 1213 838 1300 b 747 1222 790 1296 736 1235 z "},"Ổ":{"ha":1013,"x_min":0,"x_max":0,"o":"m 915 700 b 783 793 879 742 835 775 b 151 604 618 851 343 828 b 76 358 74 513 58 428 b 197 218 94 289 126 226 b 249 238 206 217 236 211 b 239 260 253 244 246 263 b 158 268 186 232 172 242 b 335 635 133 338 197 515 b 881 685 478 760 775 843 b 540 -79 979 538 692 17 b 540 288 376 -183 449 114 b 663 476 575 353 617 417 b 674 507 674 490 681 492 b 603 567 667 524 618 561 b 579 558 588 574 586 567 b 371 390 536 504 439 381 b 336 406 351 394 349 403 b 324 394 326 408 322 403 b 367 347 331 374 350 356 b 439 356 394 335 413 339 l 444 360 b 403 272 429 331 415 301 b 540 -140 292 8 414 -160 b 694 -43 601 -139 650 -96 b 738 7 710 -26 724 -11 b 915 700 889 196 1071 515 z m 653 892 b 703 854 658 876 686 851 b 713 860 707 854 708 858 b 800 946 746 885 775 913 b 867 846 813 910 836 872 b 928 814 883 829 904 817 b 938 825 936 817 938 821 b 892 922 942 843 911 858 b 882 985 883 954 890 967 b 783 1043 863 1022 796 1060 b 782 1017 782 1039 779 1029 b 671 913 765 993 733 951 b 653 892 657 904 646 904 z m 768 1247 b 801 1235 774 1225 801 1233 b 860 1299 797 1264 831 1290 b 868 1151 889 1254 890 1199 b 836 1104 849 1114 838 1113 b 839 1096 836 1101 838 1099 b 858 1083 844 1090 851 1088 b 921 1094 896 1068 903 1079 b 947 1296 989 1160 993 1246 b 804 1336 917 1329 847 1354 b 768 1247 769 1321 757 1283 z "},"Ỗ":{"ha":1013,"x_min":0,"x_max":0,"o":"m 915 700 b 783 793 879 742 835 775 b 151 604 618 851 343 828 b 76 358 74 513 58 428 b 197 218 94 289 126 226 b 249 238 206 217 236 211 b 239 260 253 244 246 263 b 158 268 186 232 172 242 b 335 635 133 338 197 515 b 881 685 478 760 775 843 b 540 -79 979 538 692 17 b 540 288 376 -183 449 114 b 663 476 575 353 617 417 b 674 507 674 490 681 492 b 603 567 667 524 618 561 b 579 558 588 574 586 567 b 371 390 536 504 439 381 b 336 406 351 394 349 403 b 324 394 326 408 322 403 b 367 347 331 374 350 356 b 439 356 394 335 413 339 l 444 360 b 403 272 429 331 415 301 b 540 -140 292 8 414 -160 b 694 -43 601 -139 650 -96 b 738 7 710 -26 724 -11 b 915 700 889 196 1071 515 z m 653 892 b 703 854 658 876 686 851 b 713 860 707 854 708 858 b 800 946 746 885 775 913 b 867 846 813 910 836 872 b 928 814 883 829 904 817 b 938 825 936 817 938 821 b 892 922 942 843 911 858 b 882 985 883 954 890 967 b 783 1043 863 1022 796 1060 b 782 1017 782 1039 779 1029 b 671 913 765 993 733 951 b 653 892 657 904 646 904 z m 704 1186 b 743 1179 708 1178 735 1168 b 810 1247 750 1192 771 1219 b 844 1150 811 1204 811 1168 b 908 1142 864 1142 888 1138 b 1090 1269 949 1151 1061 1250 b 1044 1290 1113 1283 1074 1317 b 911 1186 1025 1272 943 1204 b 861 1286 911 1226 911 1267 b 803 1286 842 1292 821 1294 b 704 1186 758 1272 701 1194 z "},"Ö":{"ha":1013,"x_min":0,"x_max":0,"o":"m 915 700 b 783 793 879 742 835 775 b 151 604 618 851 343 828 b 76 358 74 513 58 428 b 197 218 94 289 126 226 b 249 238 206 217 236 211 b 239 260 253 244 246 263 b 158 268 186 232 172 242 b 335 635 133 338 197 515 b 881 685 478 760 775 843 b 540 -79 979 538 692 17 b 540 288 376 -183 449 114 b 663 476 575 353 617 417 b 674 507 674 490 681 492 b 603 567 667 524 618 561 b 579 558 588 574 586 567 b 371 390 536 504 439 381 b 336 406 351 394 349 403 b 324 394 326 408 322 403 b 367 347 331 374 350 356 b 439 356 394 335 413 339 l 444 360 b 403 272 429 331 415 301 b 540 -140 292 8 414 -160 b 694 -43 601 -139 650 -96 b 738 7 710 -26 724 -11 b 915 700 889 196 1071 515 z m 681 943 b 725 853 669 897 689 857 b 808 929 761 849 799 883 b 764 1021 819 976 800 1017 b 681 943 728 1025 692 990 z m 861 943 b 906 853 850 897 869 857 b 989 929 942 849 979 883 b 944 1021 1000 976 981 1017 b 861 943 908 1025 872 990 z "},"Ȫ":{"ha":1013,"x_min":0,"x_max":0,"o":"m 915 700 b 783 793 879 742 835 775 b 151 604 618 851 343 828 b 76 358 74 513 58 428 b 197 218 94 289 126 226 b 249 238 206 217 236 211 b 239 260 253 244 246 263 b 158 268 186 232 172 242 b 335 635 133 338 197 515 b 881 685 478 760 775 843 b 540 -79 979 538 692 17 b 540 288 376 -183 449 114 b 663 476 575 353 617 417 b 674 507 674 490 681 492 b 603 567 667 524 618 561 b 579 558 588 574 586 567 b 371 390 536 504 439 381 b 336 406 351 394 349 403 b 324 394 326 408 322 403 b 367 347 331 374 350 356 b 439 356 394 335 413 339 l 444 360 b 403 272 429 331 415 301 b 540 -140 292 8 414 -160 b 694 -43 601 -139 650 -96 b 738 7 710 -26 724 -11 b 915 700 889 196 1071 515 z m 681 943 b 725 853 669 897 689 857 b 808 929 761 849 799 883 b 764 1021 819 976 800 1017 b 681 943 728 1025 692 990 z m 696 1115 b 1049 1128 704 1115 913 1139 b 1093 1213 1079 1125 1125 1210 b 767 1203 1061 1215 906 1200 b 696 1115 721 1204 671 1115 z m 861 943 b 906 853 850 897 869 857 b 989 929 942 849 979 883 b 944 1021 1000 976 981 1017 b 861 943 908 1025 872 990 z "},"Ọ":{"ha":1013,"x_min":0,"x_max":0,"o":"m 915 700 b 783 793 879 742 835 775 b 151 604 618 851 343 828 b 76 358 74 513 58 428 b 197 218 94 289 126 226 b 249 238 206 217 236 211 b 239 260 253 244 246 263 b 158 268 186 232 172 242 b 335 635 133 338 197 515 b 881 685 478 760 775 843 b 540 -79 979 538 692 17 b 540 288 376 -183 449 114 b 663 476 575 353 617 417 b 674 507 674 490 681 492 b 603 567 667 524 618 561 b 579 558 588 574 586 567 b 371 390 536 504 439 381 b 336 406 351 394 349 403 b 324 394 326 408 322 403 b 367 347 331 374 350 356 b 439 356 394 335 413 339 l 444 360 b 403 272 429 331 415 301 b 540 -140 292 8 414 -160 b 694 -43 601 -139 650 -96 b 738 7 710 -26 724 -11 b 915 700 889 196 1071 515 z m 333 -250 b 378 -342 322 -297 342 -337 b 461 -264 414 -346 450 -311 b 417 -174 472 -218 453 -178 b 333 -250 381 -169 343 -204 z "},"Ò":{"ha":1013,"x_min":0,"x_max":0,"o":"m 915 700 b 783 793 879 742 835 775 b 151 604 618 851 343 828 b 76 358 74 513 58 428 b 197 218 94 289 126 226 b 249 238 206 217 236 211 b 239 260 253 244 246 263 b 158 268 186 232 172 242 b 335 635 133 338 197 515 b 881 685 478 760 775 843 b 540 -79 979 538 692 17 b 540 288 376 -183 449 114 b 663 476 575 353 617 417 b 674 507 674 490 681 492 b 603 567 667 524 618 561 b 579 558 588 574 586 567 b 371 390 536 504 439 381 b 336 406 351 394 349 403 b 324 394 326 408 322 403 b 367 347 331 374 350 356 b 439 356 394 335 413 339 l 444 360 b 403 272 429 331 415 301 b 540 -140 292 8 414 -160 b 694 -43 601 -139 650 -96 b 738 7 710 -26 724 -11 b 915 700 889 196 1071 515 z m 683 968 b 696 964 688 964 692 964 b 888 826 764 951 851 881 l 893 821 b 914 831 901 818 910 826 b 925 872 939 851 931 860 b 753 1044 879 958 774 1046 b 683 968 726 1042 672 981 z "},"Ỏ":{"ha":1013,"x_min":0,"x_max":0,"o":"m 915 700 b 783 793 879 742 835 775 b 151 604 618 851 343 828 b 76 358 74 513 58 428 b 197 218 94 289 126 226 b 249 238 206 217 236 211 b 239 260 253 244 246 263 b 158 268 186 232 172 242 b 335 635 133 338 197 515 b 881 685 478 760 775 843 b 540 -79 979 538 692 17 b 540 288 376 -183 449 114 b 663 476 575 353 617 417 b 674 507 674 490 681 492 b 603 567 667 524 618 561 b 579 558 588 574 586 567 b 371 390 536 504 439 381 b 336 406 351 394 349 403 b 324 394 326 408 322 403 b 367 347 331 374 350 356 b 439 356 394 335 413 339 l 444 360 b 403 272 429 331 415 301 b 540 -140 292 8 414 -160 b 694 -43 601 -139 650 -96 b 738 7 710 -26 724 -11 b 915 700 889 196 1071 515 z m 704 993 b 738 981 710 971 738 979 b 796 1044 733 1010 767 1036 b 804 897 825 1000 826 944 b 772 850 785 860 774 858 b 775 842 772 847 774 844 b 794 829 781 836 788 833 b 857 840 832 814 839 825 b 883 1042 925 906 929 992 b 740 1082 853 1075 783 1100 b 704 993 706 1067 693 1029 z "},"Ơ":{"ha":1013,"x_min":0,"x_max":0,"o":"m 915 700 b 783 793 879 742 835 775 b 151 604 618 851 343 828 b 76 358 74 513 58 428 b 197 218 94 289 126 226 b 249 238 206 217 236 211 b 239 260 253 244 246 263 b 158 268 186 232 172 242 b 335 635 133 338 197 515 b 881 685 478 760 775 843 b 540 -79 979 538 692 17 b 540 288 376 -183 449 114 b 663 476 575 353 617 417 b 674 507 674 490 681 492 b 603 567 667 524 618 561 b 579 558 588 574 586 567 b 371 390 536 504 439 381 b 336 406 351 394 349 403 b 324 394 326 408 322 403 b 367 347 331 374 350 356 b 439 356 394 335 413 339 l 444 360 b 403 272 429 331 415 301 b 540 -140 292 8 414 -160 b 694 -43 601 -139 650 -96 b 738 7 710 -26 724 -11 b 967 599 864 164 1011 413 b 997 607 976 600 988 603 b 1172 781 1090 651 1154 704 b 1024 781 1172 825 1024 822 b 957 631 1049 707 1021 657 b 915 700 947 656 933 679 z "},"Ớ":{"ha":1013,"x_min":0,"x_max":0,"o":"m 915 700 b 783 793 879 742 835 775 b 151 604 618 851 343 828 b 76 358 74 513 58 428 b 197 218 94 289 126 226 b 249 238 206 217 236 211 b 239 260 253 244 246 263 b 158 268 186 232 172 242 b 335 635 133 338 197 515 b 881 685 478 760 775 843 b 540 -79 979 538 692 17 b 540 288 376 -183 449 114 b 663 476 575 353 617 417 b 674 507 674 490 681 492 b 603 567 667 524 618 561 b 579 558 588 574 586 567 b 371 390 536 504 439 381 b 336 406 351 394 349 403 b 324 394 326 408 322 403 b 367 347 331 374 350 356 b 439 356 394 335 413 339 l 444 360 b 403 272 429 331 415 301 b 540 -140 292 8 414 -160 b 694 -43 601 -139 650 -96 b 738 7 710 -26 724 -11 b 967 599 864 164 1011 413 b 997 607 976 600 988 603 b 1172 781 1090 651 1154 704 b 1024 781 1172 825 1024 822 b 957 631 1049 707 1021 657 b 915 700 947 656 933 679 z m 715 907 b 725 865 708 894 700 886 b 746 856 729 861 738 853 b 753 861 749 857 750 860 b 943 999 788 915 875 986 b 956 1003 947 999 951 999 b 886 1079 967 1015 913 1076 b 715 907 865 1081 761 993 z "},"Ợ":{"ha":1013,"x_min":0,"x_max":0,"o":"m 915 700 b 783 793 879 742 835 775 b 151 604 618 851 343 828 b 76 358 74 513 58 428 b 197 218 94 289 126 226 b 249 238 206 217 236 211 b 239 260 253 244 246 263 b 158 268 186 232 172 242 b 335 635 133 338 197 515 b 881 685 478 760 775 843 b 540 -79 979 538 692 17 b 540 288 376 -183 449 114 b 663 476 575 353 617 417 b 674 507 674 490 681 492 b 603 567 667 524 618 561 b 579 558 588 574 586 567 b 371 390 536 504 439 381 b 336 406 351 394 349 403 b 324 394 326 408 322 403 b 367 347 331 374 350 356 b 439 356 394 335 413 339 l 444 360 b 403 272 429 331 415 301 b 540 -140 292 8 414 -160 b 694 -43 601 -139 650 -96 b 738 7 710 -26 724 -11 b 967 599 864 164 1011 413 b 997 607 976 600 988 603 b 1172 781 1090 651 1154 704 b 1024 781 1172 825 1024 822 b 957 631 1049 707 1021 657 b 915 700 947 656 933 679 z m 333 -250 b 378 -342 322 -297 342 -337 b 461 -264 414 -346 450 -311 b 417 -174 472 -218 453 -178 b 333 -250 381 -169 343 -204 z "},"Ờ":{"ha":1013,"x_min":0,"x_max":0,"o":"m 915 700 b 783 793 879 742 835 775 b 151 604 618 851 343 828 b 76 358 74 513 58 428 b 197 218 94 289 126 226 b 249 238 206 217 236 211 b 239 260 253 244 246 263 b 158 268 186 232 172 242 b 335 635 133 338 197 515 b 881 685 478 760 775 843 b 540 -79 979 538 692 17 b 540 288 376 -183 449 114 b 663 476 575 353 617 417 b 674 507 674 490 681 492 b 603 567 667 524 618 561 b 579 558 588 574 586 567 b 371 390 536 504 439 381 b 336 406 351 394 349 403 b 324 394 326 408 322 403 b 367 347 331 374 350 356 b 439 356 394 335 413 339 l 444 360 b 403 272 429 331 415 301 b 540 -140 292 8 414 -160 b 694 -43 601 -139 650 -96 b 738 7 710 -26 724 -11 b 967 599 864 164 1011 413 b 997 607 976 600 988 603 b 1172 781 1090 651 1154 704 b 1024 781 1172 825 1024 822 b 957 631 1049 707 1021 657 b 915 700 947 656 933 679 z m 683 968 b 696 964 688 964 692 964 b 888 826 764 951 851 881 l 893 821 b 914 831 901 818 910 826 b 925 872 939 851 931 860 b 753 1044 879 958 774 1046 b 683 968 726 1042 672 981 z "},"Ở":{"ha":1013,"x_min":0,"x_max":0,"o":"m 915 700 b 783 793 879 742 835 775 b 151 604 618 851 343 828 b 76 358 74 513 58 428 b 197 218 94 289 126 226 b 249 238 206 217 236 211 b 239 260 253 244 246 263 b 158 268 186 232 172 242 b 335 635 133 338 197 515 b 881 685 478 760 775 843 b 540 -79 979 538 692 17 b 540 288 376 -183 449 114 b 663 476 575 353 617 417 b 674 507 674 490 681 492 b 603 567 667 524 618 561 b 579 558 588 574 586 567 b 371 390 536 504 439 381 b 336 406 351 394 349 403 b 324 394 326 408 322 403 b 367 347 331 374 350 356 b 439 356 394 335 413 339 l 444 360 b 403 272 429 331 415 301 b 540 -140 292 8 414 -160 b 694 -43 601 -139 650 -96 b 738 7 710 -26 724 -11 b 967 599 864 164 1011 413 b 997 607 976 600 988 603 b 1172 781 1090 651 1154 704 b 1024 781 1172 825 1024 822 b 957 631 1049 707 1021 657 b 915 700 947 656 933 679 z m 704 993 b 738 981 710 971 738 979 b 796 1044 733 1010 767 1036 b 804 897 825 1000 826 944 b 772 850 785 860 774 858 b 775 842 772 847 774 844 b 794 829 781 836 788 833 b 857 840 832 814 839 825 b 883 1042 925 906 929 992 b 740 1082 853 1075 783 1100 b 704 993 706 1067 693 1029 z "},"Ỡ":{"ha":1013,"x_min":0,"x_max":0,"o":"m 915 700 b 783 793 879 742 835 775 b 151 604 618 851 343 828 b 76 358 74 513 58 428 b 197 218 94 289 126 226 b 249 238 206 217 236 211 b 239 260 253 244 246 263 b 158 268 186 232 172 242 b 335 635 133 338 197 515 b 881 685 478 760 775 843 b 540 -79 979 538 692 17 b 540 288 376 -183 449 114 b 663 476 575 353 617 417 b 674 507 674 490 681 492 b 603 567 667 524 618 561 b 579 558 588 574 586 567 b 371 390 536 504 439 381 b 336 406 351 394 349 403 b 324 394 326 408 322 403 b 367 347 331 374 350 356 b 439 356 394 335 413 339 l 444 360 b 403 272 429 331 415 301 b 540 -140 292 8 414 -160 b 694 -43 601 -139 650 -96 b 738 7 710 -26 724 -11 b 967 599 864 164 1011 413 b 997 607 976 600 988 603 b 1172 781 1090 651 1154 704 b 1024 781 1172 825 1024 822 b 957 631 1049 707 1021 657 b 915 700 947 656 933 679 z m 640 932 b 679 925 644 924 671 914 b 746 993 686 938 707 965 b 781 896 747 950 747 914 b 844 888 800 888 824 883 b 1026 1015 885 897 997 996 b 981 1036 1049 1029 1010 1063 b 847 932 961 1018 879 950 b 797 1032 847 972 847 1013 b 739 1032 778 1038 757 1040 b 640 932 694 1018 638 940 z "},"Ő":{"ha":1013,"x_min":0,"x_max":0,"o":"m 915 700 b 783 793 879 742 835 775 b 151 604 618 851 343 828 b 76 358 74 513 58 428 b 197 218 94 289 126 226 b 249 238 206 217 236 211 b 239 260 253 244 246 263 b 158 268 186 232 172 242 b 335 635 133 338 197 515 b 881 685 478 760 775 843 b 540 -79 979 538 692 17 b 540 288 376 -183 449 114 b 663 476 575 353 617 417 b 674 507 674 490 681 492 b 603 567 667 524 618 561 b 579 558 588 574 586 567 b 371 390 536 504 439 381 b 336 406 351 394 349 403 b 324 394 326 408 322 403 b 367 347 331 374 350 356 b 439 356 394 335 413 339 l 444 360 b 403 272 429 331 415 301 b 540 -140 292 8 414 -160 b 694 -43 601 -139 650 -96 b 738 7 710 -26 724 -11 b 915 700 889 196 1071 515 z m 688 907 b 697 865 681 894 672 886 b 718 856 701 861 710 853 b 725 861 721 857 722 860 b 915 999 760 915 847 986 b 928 1003 919 999 924 999 b 858 1079 939 1015 885 1076 b 688 907 838 1081 733 993 z m 865 907 b 875 865 858 894 850 886 b 896 856 879 861 888 853 b 903 861 899 857 900 860 b 1093 999 938 915 1025 986 b 1106 1003 1097 999 1101 999 b 1036 1079 1117 1015 1063 1076 b 865 907 1015 1081 911 993 z "},"Ō":{"ha":1013,"x_min":0,"x_max":0,"o":"m 915 700 b 783 793 879 742 835 775 b 151 604 618 851 343 828 b 76 358 74 513 58 428 b 197 218 94 289 126 226 b 249 238 206 217 236 211 b 239 260 253 244 246 263 b 158 268 186 232 172 242 b 335 635 133 338 197 515 b 881 685 478 760 775 843 b 540 -79 979 538 692 17 b 540 288 376 -183 449 114 b 663 476 575 353 617 417 b 674 507 674 490 681 492 b 603 567 667 524 618 561 b 579 558 588 574 586 567 b 371 390 536 504 439 381 b 336 406 351 394 349 403 b 324 394 326 408 322 403 b 367 347 331 374 350 356 b 439 356 394 335 413 339 l 444 360 b 403 272 429 331 415 301 b 540 -140 292 8 414 -160 b 694 -43 601 -139 650 -96 b 738 7 710 -26 724 -11 b 915 700 889 196 1071 515 z m 628 889 b 981 901 636 889 844 913 b 1025 986 1011 899 1057 983 b 699 976 993 989 838 974 b 628 889 653 978 603 889 z "},"Ṓ":{"ha":1013,"x_min":0,"x_max":0,"o":"m 915 700 b 783 793 879 742 835 775 b 151 604 618 851 343 828 b 76 358 74 513 58 428 b 197 218 94 289 126 226 b 249 238 206 217 236 211 b 239 260 253 244 246 263 b 158 268 186 232 172 242 b 335 635 133 338 197 515 b 881 685 478 760 775 843 b 540 -79 979 538 692 17 b 540 288 376 -183 449 114 b 663 476 575 353 617 417 b 674 507 674 490 681 492 b 603 567 667 524 618 561 b 579 558 588 574 586 567 b 371 390 536 504 439 381 b 336 406 351 394 349 403 b 324 394 326 408 322 403 b 367 347 331 374 350 356 b 439 356 394 335 413 339 l 444 360 b 403 272 429 331 415 301 b 540 -140 292 8 414 -160 b 694 -43 601 -139 650 -96 b 738 7 710 -26 724 -11 b 915 700 889 196 1071 515 z m 628 889 b 981 901 636 889 844 913 b 1025 986 1011 899 1057 983 b 699 976 993 989 838 974 b 628 889 653 978 603 889 z m 800 1111 b 810 1069 793 1099 785 1090 b 831 1060 814 1065 822 1057 b 838 1065 833 1061 835 1064 b 1028 1203 872 1119 960 1190 b 1040 1207 1032 1203 1036 1203 b 971 1283 1051 1219 997 1281 b 800 1111 950 1285 846 1197 z "},"Ṑ":{"ha":1013,"x_min":0,"x_max":0,"o":"m 915 700 b 783 793 879 742 835 775 b 151 604 618 851 343 828 b 76 358 74 513 58 428 b 197 218 94 289 126 226 b 249 238 206 217 236 211 b 239 260 253 244 246 263 b 158 268 186 232 172 242 b 335 635 133 338 197 515 b 881 685 478 760 775 843 b 540 -79 979 538 692 17 b 540 288 376 -183 449 114 b 663 476 575 353 617 417 b 674 507 674 490 681 492 b 603 567 667 524 618 561 b 579 558 588 574 586 567 b 371 390 536 504 439 381 b 336 406 351 394 349 403 b 324 394 326 408 322 403 b 367 347 331 374 350 356 b 439 356 394 335 413 339 l 444 360 b 403 272 429 331 415 301 b 540 -140 292 8 414 -160 b 694 -43 601 -139 650 -96 b 738 7 710 -26 724 -11 b 915 700 889 196 1071 515 z m 628 889 b 981 901 636 889 844 913 b 1025 986 1011 899 1057 983 b 699 976 993 989 838 974 b 628 889 653 978 603 889 z m 768 1172 b 781 1168 772 1168 776 1168 b 972 1031 849 1156 936 1085 l 978 1025 b 999 1035 986 1022 994 1031 b 1010 1076 1024 1056 1015 1064 b 838 1249 964 1163 858 1250 b 768 1172 811 1246 757 1185 z "},"Ɔ":{"ha":843,"x_min":0,"x_max":0,"o":"m 111 439 b 125 435 114 436 121 432 b 433 824 131 438 203 750 b 719 483 622 883 736 707 b 301 90 688 63 211 -269 b 435 364 325 183 379 292 b 533 375 536 493 532 394 b 556 381 535 361 560 351 b 489 489 547 438 538 460 b 404 485 460 507 436 508 b 214 31 304 415 176 181 b 614 17 225 -89 414 -181 b 810 601 760 161 850 390 b 463 899 767 819 589 914 b 101 465 329 883 183 754 b 111 439 99 456 93 451 z "},"Ø":{"ha":1069,"x_min":0,"x_max":0,"o":"m 996 849 b 949 890 988 865 967 886 b 933 885 936 894 935 889 b 840 713 925 868 890 804 b 783 740 822 724 804 733 b 151 551 618 799 343 775 b 76 306 74 460 58 375 b 197 165 94 236 126 174 b 249 185 206 164 236 158 b 239 207 253 192 246 210 b 158 215 186 179 172 189 b 335 582 133 285 197 463 b 826 685 458 689 696 765 b 447 -124 708 461 524 103 b 540 235 425 -56 478 118 b 663 424 575 300 617 364 b 674 454 674 438 681 439 b 603 514 667 471 618 508 b 579 506 588 521 586 514 b 371 338 536 451 439 328 b 336 353 351 342 349 350 b 324 342 326 356 322 350 b 367 294 331 321 350 303 b 439 303 394 282 413 286 l 444 307 b 403 219 429 278 415 249 b 435 -164 325 33 363 -104 b 417 -239 426 -192 419 -217 b 428 -339 410 -274 408 -308 b 486 -356 457 -382 508 -396 b 483 -343 485 -346 485 -350 b 511 -194 481 -310 490 -258 b 540 -193 521 -196 531 -194 b 694 -96 601 -192 650 -149 b 738 -46 710 -79 724 -64 b 915 647 889 143 1071 463 b 907 657 913 650 910 654 l 989 811 b 996 849 999 829 1006 832 z m 529 -139 b 888 621 610 83 774 407 b 540 -132 964 458 688 -39 z "},"Ǿ":{"ha":1069,"x_min":0,"x_max":0,"o":"m 996 849 b 949 890 988 865 967 886 b 933 885 936 894 935 889 b 840 713 925 868 890 804 b 783 740 822 724 804 733 b 151 551 618 799 343 775 b 76 306 74 460 58 375 b 197 165 94 236 126 174 b 249 185 206 164 236 158 b 239 207 253 192 246 210 b 158 215 186 179 172 189 b 335 582 133 285 197 463 b 826 685 458 689 696 765 b 447 -124 708 461 524 103 b 540 235 425 -56 478 118 b 663 424 575 300 617 364 b 674 454 674 438 681 439 b 603 514 667 471 618 508 b 579 506 588 521 586 514 b 371 338 536 451 439 328 b 336 353 351 342 349 350 b 324 342 326 356 322 350 b 367 294 331 321 350 303 b 439 303 394 282 413 286 l 444 307 b 403 219 429 278 415 249 b 435 -164 325 33 363 -104 b 417 -239 426 -192 419 -217 b 428 -339 410 -274 408 -308 b 486 -356 457 -382 508 -396 b 483 -343 485 -346 485 -350 b 511 -194 481 -310 490 -258 b 540 -193 521 -196 531 -194 b 694 -96 601 -192 650 -149 b 738 -46 710 -79 724 -64 b 915 647 889 143 1071 463 b 907 657 913 650 910 654 l 989 811 b 996 849 999 829 1006 832 z m 529 -139 b 888 621 610 83 774 407 b 540 -132 964 458 688 -39 z m 678 876 b 688 835 671 864 663 856 b 708 825 692 831 700 822 b 715 831 711 826 713 829 b 906 968 750 885 838 956 b 918 972 910 968 914 968 b 849 1049 929 985 875 1046 b 678 876 828 1050 724 963 z "},"Õ":{"ha":1013,"x_min":0,"x_max":0,"o":"m 915 700 b 783 793 879 742 835 775 b 151 604 618 851 343 828 b 76 358 74 513 58 428 b 197 218 94 289 126 226 b 249 238 206 217 236 211 b 239 260 253 244 246 263 b 158 268 186 232 172 242 b 335 635 133 338 197 515 b 881 685 478 760 775 843 b 540 -79 979 538 692 17 b 540 288 376 -183 449 114 b 663 476 575 353 617 417 b 674 507 674 490 681 492 b 603 567 667 524 618 561 b 579 558 588 574 586 567 b 371 390 536 504 439 381 b 336 406 351 394 349 403 b 324 394 326 408 322 403 b 367 347 331 374 350 356 b 439 356 394 335 413 339 l 444 360 b 403 272 429 331 415 301 b 540 -140 292 8 414 -160 b 694 -43 601 -139 650 -96 b 738 7 710 -26 724 -11 b 915 700 889 196 1071 515 z m 640 932 b 679 925 644 924 671 914 b 746 993 686 938 707 965 b 781 896 747 950 747 914 b 844 888 800 888 824 883 b 1026 1015 885 897 997 996 b 981 1036 1049 1029 1010 1063 b 847 932 961 1018 879 950 b 797 1032 847 972 847 1013 b 739 1032 778 1038 757 1040 b 640 932 694 1018 638 940 z "},"Ṍ":{"ha":1013,"x_min":0,"x_max":0,"o":"m 915 700 b 783 793 879 742 835 775 b 151 604 618 851 343 828 b 76 358 74 513 58 428 b 197 218 94 289 126 226 b 249 238 206 217 236 211 b 239 260 253 244 246 263 b 158 268 186 232 172 242 b 335 635 133 338 197 515 b 881 685 478 760 775 843 b 540 -79 979 538 692 17 b 540 288 376 -183 449 114 b 663 476 575 353 617 417 b 674 507 674 490 681 492 b 603 567 667 524 618 561 b 579 558 588 574 586 567 b 371 390 536 504 439 381 b 336 406 351 394 349 403 b 324 394 326 408 322 403 b 367 347 331 374 350 356 b 439 356 394 335 413 339 l 444 360 b 403 272 429 331 415 301 b 540 -140 292 8 414 -160 b 694 -43 601 -139 650 -96 b 738 7 710 -26 724 -11 b 915 700 889 196 1071 515 z m 640 932 b 679 925 644 924 671 914 b 746 993 686 938 707 965 b 781 896 747 950 747 914 b 844 888 800 888 824 883 b 1026 1015 885 897 997 996 b 981 1036 1049 1029 1010 1063 b 847 932 961 1018 879 950 b 797 1032 847 972 847 1013 b 739 1032 778 1038 757 1040 b 640 932 694 1018 638 940 z m 783 1143 b 793 1101 776 1131 768 1122 b 814 1092 797 1097 806 1089 b 821 1097 817 1093 818 1096 b 1011 1235 856 1151 943 1222 b 1024 1239 1015 1235 1019 1235 b 954 1315 1035 1251 981 1313 b 783 1143 933 1317 829 1229 z "},"Œ":{"ha":1507,"x_min":0,"x_max":0,"o":"m 1521 788 b 1457 818 1501 813 1485 813 b 1201 840 1368 835 1283 842 b 1128 850 1182 850 1144 857 b 1115 836 1126 850 1122 844 b 1068 831 1099 835 1083 833 b 1039 767 1035 828 1011 781 l 1063 771 b 960 617 1033 732 996 679 b 915 697 950 646 935 672 b 783 789 879 739 835 771 b 151 600 618 849 343 825 b 76 356 74 508 58 425 b 197 215 94 286 126 224 b 249 235 206 214 236 208 b 239 257 253 242 246 260 b 158 265 186 228 172 239 b 335 631 133 335 197 513 b 881 682 478 756 775 840 b 875 457 911 636 904 553 b 751 413 828 443 785 429 b 744 396 746 410 739 410 b 804 351 753 381 785 350 b 846 374 811 353 808 357 b 540 -83 769 183 631 -25 b 540 285 376 -187 449 111 b 663 474 575 350 617 414 b 674 504 674 486 681 489 b 603 564 667 521 618 558 b 579 554 588 571 586 564 b 371 388 536 501 439 378 b 336 403 351 390 349 400 b 324 392 326 404 322 400 b 367 344 331 371 350 353 b 439 353 394 332 413 336 l 444 357 b 403 269 429 328 415 299 b 540 -143 292 4 414 -162 b 694 -46 601 -142 650 -99 b 738 4 710 -29 724 -14 l 768 43 b 861 -104 768 -28 793 -82 b 975 -103 906 -118 940 -117 b 1031 -78 990 -99 1008 -92 b 1204 121 1100 -33 1154 46 b 1183 163 1219 142 1231 151 b 1114 147 1135 174 1125 164 b 1007 1 1094 122 1056 58 b 972 417 818 -215 903 240 b 1388 499 1078 446 1319 489 b 1451 507 1449 507 1447 504 b 1443 529 1457 513 1447 524 b 1411 551 1435 538 1422 547 b 1003 488 1390 556 1139 518 b 1188 790 1047 586 1110 689 b 1417 788 1261 797 1338 797 b 1525 772 1500 779 1519 769 b 1521 788 1531 775 1524 785 z "},"P":{"ha":879,"x_min":0,"x_max":0,"o":"m 835 746 b 94 485 633 904 193 749 b 303 186 0 235 201 106 b 294 214 310 192 313 229 b 231 183 276 199 253 183 b 701 751 65 183 190 751 b 851 617 792 751 856 713 b 743 433 847 547 794 485 b 461 236 661 354 557 283 b 601 572 507 353 554 468 b 607 585 603 576 607 582 b 518 624 607 585 546 682 b 460 483 500 589 492 560 b 251 -61 369 268 253 -54 b 332 -129 235 -124 313 -137 b 338 -119 335 -128 336 -124 b 433 150 376 -8 418 142 b 488 174 450 160 469 168 b 531 185 501 179 515 183 l 533 188 b 921 514 718 269 875 397 b 835 746 953 599 910 686 z "},"Þ":{"ha":1035,"x_min":0,"x_max":0,"o":"m 840 621 b 690 442 792 608 738 531 b 701 514 696 467 699 490 b 497 818 719 717 624 818 b 225 682 403 818 301 760 b 226 681 225 681 225 681 b 149 588 197 651 172 621 b 194 240 -3 369 90 231 b 260 296 231 243 260 265 b 240 297 260 308 247 313 b 160 300 218 253 171 260 b 611 674 111 476 543 978 b 431 -75 663 450 424 -40 b 506 -115 433 -96 494 -156 b 640 254 517 -68 586 90 b 663 175 642 226 649 199 b 749 114 679 143 713 118 b 965 464 867 99 963 289 b 840 621 965 581 893 633 z m 661 264 b 851 571 663 346 779 551 b 804 224 946 597 872 313 b 675 182 771 181 701 119 b 661 264 664 208 661 238 z "},"Q":{"ha":1013,"x_min":0,"x_max":0,"o":"m 996 -97 b 743 14 974 -33 861 1 b 915 700 893 203 1068 518 b 783 793 879 742 835 775 b 151 604 618 851 343 828 b 76 358 74 513 58 428 b 197 218 94 289 126 226 b 249 238 206 217 236 211 b 239 260 253 244 246 263 b 158 268 186 232 172 242 b 335 635 133 338 197 515 b 881 685 478 760 775 843 b 640 18 960 567 789 206 b 479 -3 575 18 515 11 b 472 -7 476 -3 474 -4 b 489 -40 468 -15 482 -32 b 526 -58 497 -49 514 -64 b 597 -31 536 -44 563 -36 b 540 -79 578 -51 558 -68 b 540 288 376 -183 449 114 b 663 476 575 353 617 417 b 674 507 674 490 681 492 b 603 567 667 524 618 561 b 579 558 588 574 586 567 b 371 390 536 504 439 381 b 336 406 351 394 349 403 b 324 394 326 408 322 403 b 367 347 331 374 350 356 b 439 356 394 335 413 339 l 444 360 b 403 272 429 331 415 301 b 540 -140 292 8 414 -160 b 694 -43 601 -139 650 -96 l 713 -24 b 954 -67 804 -25 904 -39 b 989 -108 986 -85 965 -92 b 992 -110 989 -108 990 -110 b 996 -97 1001 -114 997 -101 z "},"R":{"ha":911,"x_min":0,"x_max":0,"o":"m 921 563 b 835 794 953 647 910 735 b 94 533 633 953 193 797 b 303 235 0 283 201 154 b 294 263 310 240 313 278 b 231 232 276 247 253 232 b 701 800 65 232 190 800 b 851 665 792 800 856 761 b 743 483 847 596 794 533 b 461 285 661 403 557 332 b 601 622 507 401 554 517 b 607 633 603 625 607 631 b 518 672 607 633 546 731 b 460 532 500 638 492 608 b 251 -12 369 317 253 -6 b 332 -81 235 -75 313 -89 b 338 -71 335 -78 336 -74 b 426 194 361 -3 399 121 b 429 196 428 194 428 194 b 769 -176 469 24 619 -139 b 867 -124 831 -192 864 -160 b 838 -67 872 -67 838 -21 b 836 -64 836 -65 836 -65 b 826 -72 835 -64 829 -69 b 693 -60 790 -99 733 -81 b 533 236 593 -8 469 207 b 921 563 718 318 875 446 z "},"Ŕ":{"ha":911,"x_min":0,"x_max":0,"o":"m 921 563 b 835 794 953 647 910 735 b 94 533 633 953 193 797 b 303 235 0 283 201 154 b 294 263 310 240 313 278 b 231 232 276 247 253 232 b 701 800 65 232 190 800 b 851 665 792 800 856 761 b 743 483 847 596 794 533 b 461 285 661 403 557 332 b 601 622 507 401 554 517 b 607 633 603 625 607 631 b 518 672 607 633 546 731 b 460 532 500 638 492 608 b 251 -12 369 317 253 -6 b 332 -81 235 -75 313 -89 b 338 -71 335 -78 336 -74 b 426 194 361 -3 399 121 b 429 196 428 194 428 194 b 769 -176 469 24 619 -139 b 867 -124 831 -192 864 -160 b 838 -67 872 -67 838 -21 b 836 -64 836 -65 836 -65 b 826 -72 835 -64 829 -69 b 693 -60 790 -99 733 -81 b 533 236 593 -8 469 207 b 921 563 718 318 875 446 z m 560 951 b 569 910 553 939 544 931 b 590 900 574 906 582 897 b 597 906 593 901 594 904 b 788 1043 632 960 719 1031 b 800 1047 792 1043 796 1043 b 731 1124 811 1060 757 1121 b 560 951 710 1125 606 1038 z "},"Ř":{"ha":911,"x_min":0,"x_max":0,"o":"m 921 563 b 835 794 953 647 910 735 b 94 533 633 953 193 797 b 303 235 0 283 201 154 b 294 263 310 240 313 278 b 231 232 276 247 253 232 b 701 800 65 232 190 800 b 851 665 792 800 856 761 b 743 483 847 596 794 533 b 461 285 661 403 557 332 b 601 622 507 401 554 517 b 607 633 603 625 607 631 b 518 672 607 633 546 731 b 460 532 500 638 492 608 b 251 -12 369 317 253 -6 b 332 -81 235 -75 313 -89 b 338 -71 335 -78 336 -74 b 426 194 361 -3 399 121 b 429 196 428 194 428 194 b 769 -176 469 24 619 -139 b 867 -124 831 -192 864 -160 b 838 -67 872 -67 838 -21 b 836 -64 836 -65 836 -65 b 826 -72 835 -64 829 -69 b 693 -60 790 -99 733 -81 b 533 236 593 -8 469 207 b 921 563 718 318 875 446 z m 532 1090 b 578 994 531 1071 560 1057 b 590 929 589 961 581 949 b 689 874 610 892 674 854 b 690 899 690 875 690 886 b 801 1003 706 921 739 963 b 819 1025 814 1011 826 1011 b 768 1061 814 1038 786 1063 b 760 1054 765 1061 761 1057 b 672 969 724 1032 697 1003 b 603 1071 657 1004 636 1042 b 543 1100 586 1086 565 1099 b 532 1090 536 1099 532 1096 z "},"Ŗ":{"ha":911,"x_min":0,"x_max":0,"o":"m 921 563 b 835 794 953 647 910 735 b 94 533 633 953 193 797 b 303 235 0 283 201 154 b 294 263 310 240 313 278 b 231 232 276 247 253 232 b 701 800 65 232 190 800 b 851 665 792 800 856 761 b 743 483 847 596 794 533 b 461 285 661 403 557 332 b 601 622 507 401 554 517 b 607 633 603 625 607 631 b 518 672 607 633 546 731 b 460 532 500 638 492 608 b 251 -12 369 317 253 -6 b 332 -81 235 -75 313 -89 b 338 -71 335 -78 336 -74 b 426 194 361 -3 399 121 b 429 196 428 194 428 194 b 769 -176 469 24 619 -139 b 867 -124 831 -192 864 -160 b 838 -67 872 -67 838 -21 b 836 -64 836 -65 836 -65 b 826 -72 835 -64 829 -69 b 693 -60 790 -99 733 -81 b 533 236 593 -8 469 207 b 921 563 718 318 875 446 z m 308 -307 b 331 -326 314 -315 322 -322 b 415 -301 342 -331 385 -336 b 451 -199 439 -274 449 -235 b 451 -158 453 -186 456 -171 b 383 -107 443 -129 394 -94 b 381 -118 381 -110 381 -115 b 361 -229 382 -156 375 -196 b 311 -286 351 -251 333 -279 b 308 -307 308 -287 293 -286 z "},"Ṝ":{"ha":911,"x_min":0,"x_max":0,"o":"m 921 563 b 835 794 953 647 910 735 b 94 533 633 953 193 797 b 303 235 0 283 201 154 b 294 263 310 240 313 278 b 231 232 276 247 253 232 b 701 800 65 232 190 800 b 851 665 792 800 856 761 b 743 483 847 596 794 533 b 461 285 661 403 557 332 b 601 622 507 401 554 517 b 607 633 603 625 607 631 b 518 672 607 633 546 731 b 460 532 500 638 492 608 b 251 -12 369 317 253 -6 b 332 -81 235 -75 313 -89 b 338 -71 335 -78 336 -74 b 426 194 361 -3 399 121 b 429 196 428 194 428 194 b 769 -176 469 24 619 -139 b 867 -124 831 -192 864 -160 b 838 -67 872 -67 838 -21 b 836 -64 836 -65 836 -65 b 826 -72 835 -64 829 -69 b 693 -60 790 -99 733 -81 b 533 236 593 -8 469 207 b 921 563 718 318 875 446 z m 336 -212 b 381 -304 325 -260 344 -300 b 464 -226 417 -308 453 -274 b 419 -136 475 -181 456 -140 b 336 -212 383 -132 346 -167 z m 472 933 b 825 946 481 933 689 957 b 869 1031 856 943 901 1028 b 543 1021 838 1033 682 1018 b 472 933 497 1022 447 933 z "},"Ṟ":{"ha":911,"x_min":0,"x_max":0,"o":"m 921 563 b 835 794 953 647 910 735 b 94 533 633 953 193 797 b 303 235 0 283 201 154 b 294 263 310 240 313 278 b 231 232 276 247 253 232 b 701 800 65 232 190 800 b 851 665 792 800 856 761 b 743 483 847 596 794 533 b 461 285 661 403 557 332 b 601 622 507 401 554 517 b 607 633 603 625 607 631 b 518 672 607 633 546 731 b 460 532 500 638 492 608 b 251 -12 369 317 253 -6 b 332 -81 235 -75 313 -89 b 338 -71 335 -78 336 -74 b 426 194 361 -3 399 121 b 429 196 428 194 428 194 b 769 -176 469 24 619 -139 b 867 -124 831 -192 864 -160 b 838 -67 872 -67 838 -21 b 836 -64 836 -65 836 -65 b 826 -72 835 -64 829 -69 b 693 -60 790 -99 733 -81 b 533 236 593 -8 469 207 b 921 563 718 318 875 446 z m 200 -235 b 526 -225 232 -237 388 -222 b 597 -137 572 -226 622 -137 b 244 -150 589 -137 381 -161 b 200 -235 214 -147 168 -232 z "},"S":{"ha":669,"x_min":0,"x_max":0,"o":"m 460 174 b 236 460 313 258 161 274 b 614 764 306 635 596 844 b 383 357 633 669 496 453 b 297 332 296 282 306 313 b 275 346 293 340 278 351 b 335 275 274 342 285 292 b 510 358 403 251 444 293 b 629 824 663 511 767 757 b 518 825 593 840 556 836 b 153 376 353 772 104 543 b 372 175 181 281 285 217 b 489 54 497 114 511 119 b 242 -115 453 -53 329 -115 b 265 115 39 -115 228 215 b 286 106 269 106 289 92 b 282 -157 231 399 -169 -157 b 558 1 393 -157 517 -103 b 554 88 569 31 574 53 b 460 174 533 125 497 153 z "},"Ś":{"ha":669,"x_min":0,"x_max":0,"o":"m 460 174 b 236 460 313 258 161 274 b 614 764 306 635 596 844 b 383 357 633 669 496 453 b 297 332 296 282 306 313 b 275 346 293 340 278 351 b 335 275 274 342 285 292 b 510 358 403 251 444 293 b 629 824 663 511 767 757 b 518 825 593 840 556 836 b 153 376 353 772 104 543 b 372 175 181 281 285 217 b 489 54 497 114 511 119 b 242 -115 453 -53 329 -115 b 265 115 39 -115 228 215 b 286 106 269 106 289 92 b 282 -157 231 399 -169 -157 b 558 1 393 -157 517 -103 b 554 88 569 31 574 53 b 460 174 533 125 497 153 z m 481 951 b 490 910 474 939 465 931 b 511 900 494 906 503 897 b 518 906 514 901 515 904 b 708 1043 553 960 640 1031 b 721 1047 713 1043 717 1043 b 651 1124 732 1060 678 1121 b 481 951 631 1125 526 1038 z "},"Ꞌ":{"ha":711,"x_min":0,"x_max":0,"o":"m 488 879 b 214 743 392 878 292 821 l 215 742 b 139 649 188 713 161 682 b 183 301 -14 431 79 292 b 249 357 219 304 250 326 b 229 358 249 369 238 374 b 149 361 207 314 160 321 b 603 733 100 538 533 1038 b 419 -14 653 511 414 21 b 496 -54 424 -35 485 -94 b 692 575 514 19 674 364 b 488 879 710 778 615 879 z "},"Š":{"ha":669,"x_min":0,"x_max":0,"o":"m 460 174 b 236 460 313 258 161 274 b 614 764 306 635 596 844 b 383 357 633 669 496 453 b 297 332 296 282 306 313 b 275 346 293 340 278 351 b 335 275 274 342 285 292 b 510 358 403 251 444 293 b 629 824 663 511 767 757 b 518 825 593 840 556 836 b 153 376 353 772 104 543 b 372 175 181 281 285 217 b 489 54 497 114 511 119 b 242 -115 453 -53 329 -115 b 265 115 39 -115 228 215 b 286 106 269 106 289 92 b 282 -157 231 399 -169 -157 b 558 1 393 -157 517 -103 b 554 88 569 31 574 53 b 460 174 533 125 497 153 z m 453 1090 b 499 994 451 1071 481 1057 b 511 929 510 961 501 949 b 610 874 531 892 594 854 b 611 899 611 875 611 886 b 722 1003 626 921 660 963 b 740 1025 735 1011 747 1011 b 689 1061 735 1038 707 1063 b 681 1054 686 1061 682 1057 b 593 969 644 1032 618 1003 b 524 1071 578 1004 557 1042 b 464 1100 507 1086 486 1099 b 453 1090 457 1099 453 1096 z "},"Ş":{"ha":669,"x_min":0,"x_max":0,"o":"m 460 174 b 236 460 313 258 161 274 b 614 764 306 635 596 844 b 383 357 633 669 496 453 b 297 332 296 282 306 313 b 275 346 293 340 278 351 b 335 275 274 342 285 292 b 510 358 403 251 444 293 b 629 824 663 511 767 757 b 518 825 593 840 556 836 b 153 376 353 772 104 543 b 372 175 181 281 285 217 b 489 54 497 114 511 119 b 242 -115 453 -53 329 -115 b 265 115 39 -115 228 215 b 286 106 269 106 289 92 b 238 -156 232 389 -142 -118 b 235 -158 236 -156 236 -157 b 182 -253 213 -194 188 -229 b 254 -289 168 -306 213 -274 b 278 -361 279 -299 285 -336 b 146 -332 231 -375 163 -357 b 124 -286 124 -300 129 -292 b 79 -349 119 -283 69 -317 b 238 -431 104 -431 179 -443 b 332 -335 278 -421 328 -376 b 238 -246 336 -283 288 -253 b 285 -158 239 -239 250 -200 l 285 -157 b 558 1 396 -156 517 -101 b 554 88 569 31 574 53 b 460 174 533 125 497 153 z "},"Ŝ":{"ha":669,"x_min":0,"x_max":0,"o":"m 460 174 b 236 460 313 258 161 274 b 614 764 306 635 596 844 b 383 357 633 669 496 453 b 297 332 296 282 306 313 b 275 346 293 340 278 351 b 335 275 274 342 285 292 b 510 358 403 251 444 293 b 629 824 663 511 767 757 b 518 825 593 840 556 836 b 153 376 353 772 104 543 b 372 175 181 281 285 217 b 489 54 497 114 511 119 b 242 -115 453 -53 329 -115 b 265 115 39 -115 228 215 b 286 106 269 106 289 92 b 282 -157 231 399 -169 -157 b 558 1 393 -157 517 -103 b 554 88 569 31 574 53 b 460 174 533 125 497 153 z m 418 936 b 468 899 424 921 451 896 b 478 904 472 899 474 903 b 565 990 511 929 540 957 b 632 890 578 954 601 917 b 693 858 649 874 669 861 b 703 869 701 861 703 865 b 657 967 707 888 676 903 b 647 1029 649 999 656 1011 b 549 1088 628 1067 561 1104 b 547 1061 547 1083 544 1074 b 436 957 531 1038 499 996 b 418 936 422 949 411 949 z "},"Ș":{"ha":669,"x_min":0,"x_max":0,"o":"m 460 174 b 236 460 313 258 161 274 b 614 764 306 635 596 844 b 383 357 633 669 496 453 b 297 332 296 282 306 313 b 275 346 293 340 278 351 b 335 275 274 342 285 292 b 510 358 403 251 444 293 b 629 824 663 511 767 757 b 518 825 593 840 556 836 b 153 376 353 772 104 543 b 372 175 181 281 285 217 b 489 54 497 114 511 119 b 242 -115 453 -53 329 -115 b 265 115 39 -115 228 215 b 286 106 269 106 289 92 b 282 -157 231 399 -169 -157 b 558 1 393 -157 517 -103 b 554 88 569 31 574 53 b 460 174 533 125 497 153 z m 114 -422 b 136 -442 119 -431 128 -437 b 221 -417 147 -446 190 -451 b 257 -314 244 -389 254 -350 b 257 -274 258 -301 261 -286 b 189 -222 249 -244 200 -210 b 186 -233 186 -225 186 -231 b 167 -344 188 -271 181 -311 b 117 -401 157 -367 139 -394 b 114 -422 114 -403 99 -401 z "},"Ṣ":{"ha":669,"x_min":0,"x_max":0,"o":"m 460 174 b 236 460 313 258 161 274 b 614 764 306 635 596 844 b 383 357 633 669 496 453 b 297 332 296 282 306 313 b 275 346 293 340 278 351 b 335 275 274 342 285 292 b 510 358 403 251 444 293 b 629 824 663 511 767 757 b 518 825 593 840 556 836 b 153 376 353 772 104 543 b 372 175 181 281 285 217 b 489 54 497 114 511 119 b 242 -115 453 -53 329 -115 b 265 115 39 -115 228 215 b 286 106 269 106 289 92 b 282 -157 231 399 -169 -157 b 558 1 393 -157 517 -103 b 554 88 569 31 574 53 b 460 174 533 125 497 153 z m 142 -328 b 186 -419 131 -375 150 -415 b 269 -342 222 -424 258 -389 b 225 -251 281 -296 261 -256 b 142 -328 189 -247 151 -282 z "},"ẞ":{"ha":754,"x_min":0,"x_max":0,"o":"m 390 321 b 629 735 563 460 733 593 b -10 156 399 1047 100 588 b -40 0 -15 139 -44 18 b 39 -67 -35 -33 24 -82 b 42 -54 42 -64 42 -60 b 258 565 65 108 147 381 b 406 451 485 946 765 757 b 226 311 221 297 226 313 b 265 251 222 299 250 264 b 500 243 293 231 358 286 b 350 -137 651 197 526 -67 b 231 -144 317 -151 256 -168 b 303 63 199 -118 188 -32 b 304 99 313 69 329 72 b 268 104 281 125 275 111 b 188 -100 213 53 168 -25 b 357 -206 207 -175 288 -217 b 610 -37 457 -193 553 -129 b 390 321 718 143 583 315 z "},"T":{"ha":750,"x_min":0,"x_max":0,"o":"m 865 728 b 633 813 842 788 746 813 b 136 410 138 813 -42 489 b 221 428 169 396 207 400 b 206 439 226 438 218 449 b 136 481 164 410 126 439 b 685 719 167 608 442 724 b 674 706 676 717 676 713 b 475 -76 625 574 506 121 b 472 -112 469 -110 471 -110 b 560 -128 482 -129 549 -142 b 567 -92 563 -125 561 -125 b 747 685 594 99 696 539 b 742 706 750 693 756 697 b 717 718 733 710 726 715 b 771 711 736 717 753 714 b 847 663 886 693 857 682 b 850 638 842 654 844 635 b 865 728 853 639 885 679 z "},"Ŧ":{"ha":750,"x_min":0,"x_max":0,"o":"m 865 728 b 633 813 842 788 746 813 b 136 410 138 813 -42 489 b 221 428 169 396 207 400 b 206 439 226 438 218 449 b 136 481 164 410 126 439 b 685 719 167 608 442 724 b 674 706 676 717 676 713 b 569 346 650 640 608 497 l 454 346 b 426 269 419 344 407 269 l 550 269 b 475 -76 517 138 488 7 b 472 -112 469 -110 471 -110 b 560 -128 482 -129 549 -142 b 567 -92 563 -125 561 -125 b 638 269 579 -6 607 132 l 757 269 b 785 346 771 269 824 346 l 656 346 b 747 685 689 486 724 617 b 742 706 750 693 756 697 b 717 718 733 710 726 715 b 771 711 736 717 753 714 b 847 663 886 693 857 682 b 850 638 842 654 844 635 b 865 728 853 639 885 679 z "},"Ť":{"ha":750,"x_min":0,"x_max":0,"o":"m 865 728 b 633 813 842 788 746 813 b 136 410 138 813 -42 489 b 221 428 169 396 207 400 b 206 439 226 438 218 449 b 136 481 164 410 126 439 b 685 719 167 608 442 724 b 674 706 676 717 676 713 b 475 -76 625 574 506 121 b 472 -112 469 -110 471 -110 b 560 -128 482 -129 549 -142 b 567 -92 563 -125 561 -125 b 747 685 594 99 696 539 b 742 706 750 693 756 697 b 717 718 733 710 726 715 b 771 711 736 717 753 714 b 847 663 886 693 857 682 b 850 638 842 654 844 635 b 865 728 853 639 885 679 z m 593 1081 b 639 985 592 1061 621 1047 b 651 919 650 951 642 939 b 750 864 671 882 735 844 b 751 889 751 865 751 876 b 863 993 767 911 800 953 b 881 1015 875 1001 888 1001 b 829 1051 875 1028 847 1053 b 821 1044 826 1051 822 1047 b 733 960 785 1022 758 993 b 664 1061 718 994 697 1032 b 604 1090 647 1076 626 1089 b 593 1081 597 1089 593 1086 z "},"Ţ":{"ha":750,"x_min":0,"x_max":0,"o":"m 865 728 b 633 813 842 788 746 813 b 136 410 138 813 -42 489 b 221 428 169 396 207 400 b 206 439 226 438 218 449 b 136 481 164 410 126 439 b 685 719 167 608 442 724 b 674 706 676 717 676 713 b 475 -76 625 574 506 121 b 472 -112 469 -110 471 -110 b 486 -122 475 -117 479 -119 b 440 -206 465 -154 446 -185 b 513 -242 426 -258 471 -226 b 536 -314 538 -251 543 -289 b 404 -285 489 -328 421 -310 b 382 -239 382 -253 388 -244 b 338 -301 378 -236 328 -269 b 496 -383 363 -383 438 -396 b 590 -287 536 -374 586 -329 b 496 -199 594 -236 546 -206 b 526 -133 497 -193 504 -165 b 560 -128 542 -135 556 -133 b 567 -92 563 -125 561 -125 b 747 685 594 99 696 539 b 742 706 750 693 756 697 b 717 718 733 710 726 715 b 771 711 736 717 753 714 b 847 663 886 693 857 682 b 850 638 842 654 844 635 b 865 728 853 639 885 679 z "},"Ṱ":{"ha":750,"x_min":0,"x_max":0,"o":"m 865 728 b 633 813 842 788 746 813 b 136 410 138 813 -42 489 b 221 428 169 396 207 400 b 206 439 226 438 218 449 b 136 481 164 410 126 439 b 685 719 167 608 442 724 b 674 706 676 717 676 713 b 475 -76 625 574 506 121 b 472 -112 469 -110 471 -110 b 560 -128 482 -129 549 -142 b 567 -92 563 -125 561 -125 b 747 685 594 99 696 539 b 742 706 750 693 756 697 b 717 718 733 710 726 715 b 771 711 736 717 753 714 b 847 663 886 693 857 682 b 850 638 842 654 844 635 b 865 728 853 639 885 679 z m 593 1081 b 639 985 592 1061 621 1047 b 651 919 650 951 642 939 b 750 864 671 882 735 844 b 751 889 751 865 751 876 b 863 993 767 911 800 953 b 881 1015 875 1001 888 1001 b 829 1051 875 1028 847 1053 b 821 1044 826 1051 822 1047 b 733 960 785 1022 758 993 b 664 1061 718 994 697 1032 b 604 1090 647 1076 626 1089 b 593 1081 597 1089 593 1086 z "},"Ț":{"ha":750,"x_min":0,"x_max":0,"o":"m 865 728 b 633 813 842 788 746 813 b 136 410 138 813 -42 489 b 221 428 169 396 207 400 b 206 439 226 438 218 449 b 136 481 164 410 126 439 b 685 719 167 608 442 724 b 674 706 676 717 676 713 b 475 -76 625 574 506 121 b 472 -112 469 -110 471 -110 b 560 -128 482 -129 549 -142 b 567 -92 563 -125 561 -125 b 747 685 594 99 696 539 b 742 706 750 693 756 697 b 717 718 733 710 726 715 b 771 711 736 717 753 714 b 847 663 886 693 857 682 b 850 638 842 654 844 635 b 865 728 853 639 885 679 z m 372 -375 b 394 -394 378 -383 386 -390 b 479 -369 406 -399 449 -404 b 515 -267 503 -342 513 -303 b 515 -226 517 -254 519 -239 b 447 -175 507 -197 458 -162 b 444 -186 444 -178 444 -183 b 425 -297 446 -224 439 -264 b 375 -354 415 -319 397 -347 b 372 -375 372 -356 357 -354 z "},"Ṭ":{"ha":750,"x_min":0,"x_max":0,"o":"m 865 728 b 633 813 842 788 746 813 b 136 410 138 813 -42 489 b 221 428 169 396 207 400 b 206 439 226 438 218 449 b 136 481 164 410 126 439 b 685 719 167 608 442 724 b 674 706 676 717 676 713 b 475 -76 625 574 506 121 b 472 -112 469 -110 471 -110 b 560 -128 482 -129 549 -142 b 567 -92 563 -125 561 -125 b 747 685 594 99 696 539 b 742 706 750 693 756 697 b 717 718 733 710 726 715 b 771 711 736 717 753 714 b 847 663 886 693 857 682 b 850 638 842 654 844 635 b 865 728 853 639 885 679 z m 400 -281 b 444 -372 389 -328 408 -368 b 528 -294 481 -376 517 -342 b 483 -204 539 -249 519 -208 b 400 -281 447 -200 410 -235 z "},"Ṯ":{"ha":750,"x_min":0,"x_max":0,"o":"m 865 728 b 633 813 842 788 746 813 b 136 410 138 813 -42 489 b 221 428 169 396 207 400 b 206 439 226 438 218 449 b 136 481 164 410 126 439 b 685 719 167 608 442 724 b 674 706 676 717 676 713 b 475 -76 625 574 506 121 b 472 -112 469 -110 471 -110 b 560 -128 482 -129 549 -142 b 567 -92 563 -125 561 -125 b 747 685 594 99 696 539 b 742 706 750 693 756 697 b 717 718 733 710 726 715 b 771 711 736 717 753 714 b 847 663 886 693 857 682 b 850 638 842 654 844 635 b 865 728 853 639 885 679 z m 264 -303 b 590 -293 296 -306 451 -290 b 661 -206 636 -294 686 -206 b 308 -218 653 -206 444 -229 b 264 -303 278 -215 232 -300 z "},"U":{"ha":1369,"x_min":0,"x_max":0,"o":"m 1342 583 b 1276 639 1339 607 1292 647 b 1261 601 1272 638 1274 638 b 1224 486 1250 565 1233 519 b 1025 200 1165 382 1106 301 b 854 22 974 136 921 72 b 847 439 536 -210 789 250 b 790 722 881 544 892 657 b 549 758 733 760 665 781 b 168 531 390 728 261 640 b 182 179 -3 326 78 179 b 253 229 219 179 251 199 b 233 233 254 242 242 247 b 153 243 207 190 161 201 b 783 661 114 457 700 889 b 668 204 822 556 772 471 b 806 -64 560 -75 713 -108 b 1026 138 896 -19 965 61 b 1179 344 1079 204 1132 272 b 1096 -32 1131 172 1094 -22 b 1164 -87 1100 -60 1150 -99 b 1168 -67 1168 -83 1168 -72 b 1333 558 1217 210 1260 333 b 1342 583 1336 565 1342 575 z "},"Ú":{"ha":1369,"x_min":0,"x_max":0,"o":"m 1342 583 b 1276 639 1339 607 1292 647 b 1261 601 1272 638 1274 638 b 1224 486 1250 565 1233 519 b 1025 200 1165 382 1106 301 b 854 22 974 136 921 72 b 847 439 536 -210 789 250 b 790 722 881 544 892 657 b 549 758 733 760 665 781 b 168 531 390 728 261 640 b 182 179 -3 326 78 179 b 253 229 219 179 251 199 b 233 233 254 242 242 247 b 153 243 207 190 161 201 b 783 661 114 457 700 889 b 668 204 822 556 772 471 b 806 -64 560 -75 713 -108 b 1026 138 896 -19 965 61 b 1179 344 1079 204 1132 272 b 1096 -32 1131 172 1094 -22 b 1164 -87 1100 -60 1150 -99 b 1168 -67 1168 -83 1168 -72 b 1333 558 1217 210 1260 333 b 1342 583 1336 565 1342 575 z m 997 775 b 1007 733 990 763 982 754 b 1028 724 1011 729 1019 721 b 1035 729 1031 725 1032 728 b 1225 867 1069 783 1157 854 b 1238 871 1229 867 1233 867 b 1168 947 1249 883 1194 944 b 997 775 1147 949 1043 861 z "},"Ŭ":{"ha":1369,"x_min":0,"x_max":0,"o":"m 1342 583 b 1276 639 1339 607 1292 647 b 1261 601 1272 638 1274 638 b 1224 486 1250 565 1233 519 b 1025 200 1165 382 1106 301 b 854 22 974 136 921 72 b 847 439 536 -210 789 250 b 790 722 881 544 892 657 b 549 758 733 760 665 781 b 168 531 390 728 261 640 b 182 179 -3 326 78 179 b 253 229 219 179 251 199 b 233 233 254 242 242 247 b 153 243 207 190 161 201 b 783 661 114 457 700 889 b 668 204 822 556 772 471 b 806 -64 560 -75 713 -108 b 1026 138 896 -19 965 61 b 1179 344 1079 204 1132 272 b 1096 -32 1131 172 1094 -22 b 1164 -87 1100 -60 1150 -99 b 1168 -67 1168 -83 1168 -72 b 1333 558 1217 210 1260 333 b 1342 583 1336 565 1342 575 z m 982 851 b 1114 696 936 769 1028 696 b 1292 854 1197 696 1292 785 b 1201 822 1292 922 1254 901 b 1082 760 1185 797 1126 760 b 1053 843 1053 760 1028 796 b 982 851 1069 875 1025 928 z "},"Ǔ":{"ha":1369,"x_min":0,"x_max":0,"o":"m 1342 583 b 1276 639 1339 607 1292 647 b 1261 601 1272 638 1274 638 b 1224 486 1250 565 1233 519 b 1025 200 1165 382 1106 301 b 854 22 974 136 921 72 b 847 439 536 -210 789 250 b 790 722 881 544 892 657 b 549 758 733 760 665 781 b 168 531 390 728 261 640 b 182 179 -3 326 78 179 b 253 229 219 179 251 199 b 233 233 254 242 242 247 b 153 243 207 190 161 201 b 783 661 114 457 700 889 b 668 204 822 556 772 471 b 806 -64 560 -75 713 -108 b 1026 138 896 -19 965 61 b 1179 344 1079 204 1132 272 b 1096 -32 1131 172 1094 -22 b 1164 -87 1100 -60 1150 -99 b 1168 -67 1168 -83 1168 -72 b 1333 558 1217 210 1260 333 b 1342 583 1336 565 1342 575 z m 969 914 b 1015 818 968 894 997 881 b 1028 753 1026 785 1018 772 b 1126 697 1047 715 1111 678 b 1128 722 1128 699 1128 710 b 1239 826 1143 744 1176 786 b 1257 849 1251 835 1264 835 b 1206 885 1251 861 1224 886 b 1197 878 1203 885 1199 881 b 1110 793 1161 856 1135 826 b 1040 894 1094 828 1074 865 b 981 924 1024 910 1003 922 b 969 914 974 922 969 919 z "},"Û":{"ha":1369,"x_min":0,"x_max":0,"o":"m 1342 583 b 1276 639 1339 607 1292 647 b 1261 601 1272 638 1274 638 b 1224 486 1250 565 1233 519 b 1025 200 1165 382 1106 301 b 854 22 974 136 921 72 b 847 439 536 -210 789 250 b 790 722 881 544 892 657 b 549 758 733 760 665 781 b 168 531 390 728 261 640 b 182 179 -3 326 78 179 b 253 229 219 179 251 199 b 233 233 254 242 242 247 b 153 243 207 190 161 201 b 783 661 114 457 700 889 b 668 204 822 556 772 471 b 806 -64 560 -75 713 -108 b 1026 138 896 -19 965 61 b 1179 344 1079 204 1132 272 b 1096 -32 1131 172 1094 -22 b 1164 -87 1100 -60 1150 -99 b 1168 -67 1168 -83 1168 -72 b 1333 558 1217 210 1260 333 b 1342 583 1336 565 1342 575 z m 935 760 b 985 722 940 744 968 719 b 994 728 989 722 990 726 b 1082 814 1028 753 1057 781 b 1149 714 1094 778 1118 740 b 1210 682 1165 697 1186 685 b 1219 693 1218 685 1219 689 b 1174 790 1224 711 1193 726 b 1164 853 1165 822 1172 835 b 1065 911 1144 890 1078 928 b 1064 885 1064 907 1061 897 b 953 781 1047 861 1015 819 b 935 760 939 772 928 772 z "},"Ü":{"ha":1369,"x_min":0,"x_max":0,"o":"m 1342 583 b 1276 639 1339 607 1292 647 b 1261 601 1272 638 1274 638 b 1224 486 1250 565 1233 519 b 1025 200 1165 382 1106 301 b 854 22 974 136 921 72 b 847 439 536 -210 789 250 b 790 722 881 544 892 657 b 549 758 733 760 665 781 b 168 531 390 728 261 640 b 182 179 -3 326 78 179 b 253 229 219 179 251 199 b 233 233 254 242 242 247 b 153 243 207 190 161 201 b 783 661 114 457 700 889 b 668 204 822 556 772 471 b 806 -64 560 -75 713 -108 b 1026 138 896 -19 965 61 b 1179 344 1079 204 1132 272 b 1096 -32 1131 172 1094 -22 b 1164 -87 1100 -60 1150 -99 b 1168 -67 1168 -83 1168 -72 b 1333 558 1217 210 1260 333 b 1342 583 1336 565 1342 575 z m 963 811 b 1007 721 951 765 971 725 b 1090 797 1043 717 1081 751 b 1046 889 1101 844 1082 885 b 963 811 1010 893 974 858 z m 1143 811 b 1188 721 1132 765 1151 725 b 1271 797 1224 717 1261 751 b 1226 889 1282 844 1263 885 b 1143 811 1190 893 1154 858 z "},"Ǘ":{"ha":1369,"x_min":0,"x_max":0,"o":"m 1342 583 b 1276 639 1339 607 1292 647 b 1261 601 1272 638 1274 638 b 1224 486 1250 565 1233 519 b 1025 200 1165 382 1106 301 b 854 22 974 136 921 72 b 847 439 536 -210 789 250 b 790 722 881 544 892 657 b 549 758 733 760 665 781 b 168 531 390 728 261 640 b 182 179 -3 326 78 179 b 253 229 219 179 251 199 b 233 233 254 242 242 247 b 153 243 207 190 161 201 b 783 661 114 457 700 889 b 668 204 822 556 772 471 b 806 -64 560 -75 713 -108 b 1026 138 896 -19 965 61 b 1179 344 1079 204 1132 272 b 1096 -32 1131 172 1094 -22 b 1164 -87 1100 -60 1150 -99 b 1168 -67 1168 -83 1168 -72 b 1333 558 1217 210 1260 333 b 1342 583 1336 565 1342 575 z m 963 811 b 1007 721 951 765 971 725 b 1090 797 1043 717 1081 751 b 1046 889 1101 844 1082 885 b 963 811 1010 893 974 858 z m 1065 1001 b 1075 960 1058 989 1050 981 b 1096 950 1079 956 1088 947 b 1103 956 1099 951 1100 954 b 1293 1093 1138 1010 1225 1081 b 1306 1097 1297 1093 1301 1093 b 1236 1174 1317 1110 1263 1171 b 1065 1001 1215 1175 1111 1088 z m 1143 811 b 1188 721 1132 765 1151 725 b 1271 797 1224 717 1261 751 b 1226 889 1282 844 1263 885 b 1143 811 1190 893 1154 858 z "},"Ǚ":{"ha":1369,"x_min":0,"x_max":0,"o":"m 1342 583 b 1276 639 1339 607 1292 647 b 1261 601 1272 638 1274 638 b 1224 486 1250 565 1233 519 b 1025 200 1165 382 1106 301 b 854 22 974 136 921 72 b 847 439 536 -210 789 250 b 790 722 881 544 892 657 b 549 758 733 760 665 781 b 168 531 390 728 261 640 b 182 179 -3 326 78 179 b 253 229 219 179 251 199 b 233 233 254 242 242 247 b 153 243 207 190 161 201 b 783 661 114 457 700 889 b 668 204 822 556 772 471 b 806 -64 560 -75 713 -108 b 1026 138 896 -19 965 61 b 1179 344 1079 204 1132 272 b 1096 -32 1131 172 1094 -22 b 1164 -87 1100 -60 1150 -99 b 1168 -67 1168 -83 1168 -72 b 1333 558 1217 210 1260 333 b 1342 583 1336 565 1342 575 z m 963 811 b 1007 721 951 765 971 725 b 1090 797 1043 717 1081 751 b 1046 889 1101 844 1082 885 b 963 811 1010 893 974 858 z m 1038 1140 b 1083 1044 1036 1121 1065 1107 b 1096 979 1094 1011 1086 999 b 1194 924 1115 942 1179 904 b 1196 949 1196 925 1196 936 b 1307 1053 1211 971 1244 1013 b 1325 1075 1319 1061 1332 1061 b 1274 1111 1319 1088 1292 1113 b 1265 1104 1271 1111 1267 1107 b 1178 1019 1229 1082 1203 1053 b 1108 1121 1163 1054 1142 1092 b 1049 1150 1092 1136 1071 1149 b 1038 1140 1042 1149 1038 1146 z m 1143 811 b 1188 721 1132 765 1151 725 b 1271 797 1224 717 1261 751 b 1226 889 1282 844 1263 885 b 1143 811 1190 893 1154 858 z "},"Ǜ":{"ha":1369,"x_min":0,"x_max":0,"o":"m 1342 583 b 1276 639 1339 607 1292 647 b 1261 601 1272 638 1274 638 b 1224 486 1250 565 1233 519 b 1025 200 1165 382 1106 301 b 854 22 974 136 921 72 b 847 439 536 -210 789 250 b 790 722 881 544 892 657 b 549 758 733 760 665 781 b 168 531 390 728 261 640 b 182 179 -3 326 78 179 b 253 229 219 179 251 199 b 233 233 254 242 242 247 b 153 243 207 190 161 201 b 783 661 114 457 700 889 b 668 204 822 556 772 471 b 806 -64 560 -75 713 -108 b 1026 138 896 -19 965 61 b 1179 344 1079 204 1132 272 b 1096 -32 1131 172 1094 -22 b 1164 -87 1100 -60 1150 -99 b 1168 -67 1168 -83 1168 -72 b 1333 558 1217 210 1260 333 b 1342 583 1336 565 1342 575 z m 963 811 b 1007 721 951 765 971 725 b 1090 797 1043 717 1081 751 b 1046 889 1101 844 1082 885 b 963 811 1010 893 974 858 z m 1033 1063 b 1046 1058 1038 1058 1042 1058 b 1238 921 1114 1046 1201 975 l 1243 915 b 1264 925 1251 913 1260 921 b 1275 967 1289 946 1281 954 b 1103 1139 1229 1053 1124 1140 b 1033 1063 1076 1136 1022 1075 z m 1143 811 b 1188 721 1132 765 1151 725 b 1271 797 1224 717 1261 751 b 1226 889 1282 844 1263 885 b 1143 811 1190 893 1154 858 z "},"Ǖ":{"ha":1369,"x_min":0,"x_max":0,"o":"m 1342 583 b 1276 639 1339 607 1292 647 b 1261 601 1272 638 1274 638 b 1224 486 1250 565 1233 519 b 1025 200 1165 382 1106 301 b 854 22 974 136 921 72 b 847 439 536 -210 789 250 b 790 722 881 544 892 657 b 549 758 733 760 665 781 b 168 531 390 728 261 640 b 182 179 -3 326 78 179 b 253 229 219 179 251 199 b 233 233 254 242 242 247 b 153 243 207 190 161 201 b 783 661 114 457 700 889 b 668 204 822 556 772 471 b 806 -64 560 -75 713 -108 b 1026 138 896 -19 965 61 b 1179 344 1079 204 1132 272 b 1096 -32 1131 172 1094 -22 b 1164 -87 1100 -60 1150 -99 b 1168 -67 1168 -83 1168 -72 b 1333 558 1217 210 1260 333 b 1342 583 1336 565 1342 575 z m 963 811 b 1007 721 951 765 971 725 b 1090 797 1043 717 1081 751 b 1046 889 1101 844 1082 885 b 963 811 1010 893 974 858 z m 978 983 b 1331 996 986 983 1194 1007 b 1375 1081 1361 993 1407 1078 b 1049 1071 1343 1083 1188 1068 b 978 983 1003 1072 953 983 z m 1143 811 b 1188 721 1132 765 1151 725 b 1271 797 1224 717 1261 751 b 1226 889 1282 844 1263 885 b 1143 811 1190 893 1154 858 z "},"Ụ":{"ha":1369,"x_min":0,"x_max":0,"o":"m 1342 583 b 1276 639 1339 607 1292 647 b 1261 601 1272 638 1274 638 b 1224 486 1250 565 1233 519 b 1025 200 1165 382 1106 301 b 854 22 974 136 921 72 b 847 439 536 -210 789 250 b 790 722 881 544 892 657 b 549 758 733 760 665 781 b 168 531 390 728 261 640 b 182 179 -3 326 78 179 b 253 229 219 179 251 199 b 233 233 254 242 242 247 b 153 243 207 190 161 201 b 783 661 114 457 700 889 b 668 204 822 556 772 471 b 806 -64 560 -75 713 -108 b 1026 138 896 -19 965 61 b 1179 344 1079 204 1132 272 b 1096 -32 1131 172 1094 -22 b 1164 -87 1100 -60 1150 -99 b 1168 -67 1168 -83 1168 -72 b 1333 558 1217 210 1260 333 b 1342 583 1336 565 1342 575 z m 700 -235 b 744 -326 689 -282 708 -322 b 828 -249 781 -331 817 -296 b 783 -158 839 -203 819 -162 b 700 -235 747 -154 710 -189 z "},"Ù":{"ha":1369,"x_min":0,"x_max":0,"o":"m 1342 583 b 1276 639 1339 607 1292 647 b 1261 601 1272 638 1274 638 b 1224 486 1250 565 1233 519 b 1025 200 1165 382 1106 301 b 854 22 974 136 921 72 b 847 439 536 -210 789 250 b 790 722 881 544 892 657 b 549 758 733 760 665 781 b 168 531 390 728 261 640 b 182 179 -3 326 78 179 b 253 229 219 179 251 199 b 233 233 254 242 242 247 b 153 243 207 190 161 201 b 783 661 114 457 700 889 b 668 204 822 556 772 471 b 806 -64 560 -75 713 -108 b 1026 138 896 -19 965 61 b 1179 344 1079 204 1132 272 b 1096 -32 1131 172 1094 -22 b 1164 -87 1100 -60 1150 -99 b 1168 -67 1168 -83 1168 -72 b 1333 558 1217 210 1260 333 b 1342 583 1336 565 1342 575 z m 965 836 b 978 832 969 832 974 832 b 1169 694 1046 819 1133 749 l 1175 689 b 1196 699 1183 686 1192 694 b 1207 740 1221 719 1213 728 b 1035 913 1161 826 1056 914 b 965 836 1008 910 954 849 z "},"Ủ":{"ha":1369,"x_min":0,"x_max":0,"o":"m 1342 583 b 1276 639 1339 607 1292 647 b 1261 601 1272 638 1274 638 b 1224 486 1250 565 1233 519 b 1025 200 1165 382 1106 301 b 854 22 974 136 921 72 b 847 439 536 -210 789 250 b 790 722 881 544 892 657 b 549 758 733 760 665 781 b 168 531 390 728 261 640 b 182 179 -3 326 78 179 b 253 229 219 179 251 199 b 233 233 254 242 242 247 b 153 243 207 190 161 201 b 783 661 114 457 700 889 b 668 204 822 556 772 471 b 806 -64 560 -75 713 -108 b 1026 138 896 -19 965 61 b 1179 344 1079 204 1132 272 b 1096 -32 1131 172 1094 -22 b 1164 -87 1100 -60 1150 -99 b 1168 -67 1168 -83 1168 -72 b 1333 558 1217 210 1260 333 b 1342 583 1336 565 1342 575 z m 986 861 b 1019 849 992 839 1019 847 b 1078 913 1015 878 1049 904 b 1086 765 1107 868 1108 813 b 1054 718 1067 728 1056 726 b 1057 710 1054 715 1056 713 b 1076 697 1063 704 1069 701 b 1139 708 1114 682 1121 693 b 1165 910 1207 774 1211 860 b 1022 950 1135 943 1065 968 b 986 861 988 935 975 897 z "},"Ư":{"ha":1369,"x_min":0,"x_max":0,"o":"m 1538 732 b 1389 732 1538 776 1389 774 b 1340 590 1411 665 1390 618 b 1276 639 1331 614 1290 646 b 1261 601 1272 638 1274 638 b 1224 486 1250 565 1233 519 b 1025 200 1165 382 1106 301 b 854 22 974 136 921 72 b 847 439 536 -210 789 250 b 790 722 881 544 892 657 b 549 758 733 760 665 781 b 168 531 390 728 261 640 b 182 179 -3 326 78 179 b 253 229 219 179 251 199 b 233 233 254 242 242 247 b 153 243 207 190 161 201 b 783 661 114 457 700 889 b 668 204 822 556 772 471 b 806 -64 560 -75 713 -108 b 1026 138 896 -19 965 61 b 1179 344 1079 204 1132 272 b 1096 -32 1131 172 1094 -22 b 1164 -87 1100 -60 1150 -99 b 1168 -67 1168 -83 1168 -72 b 1331 550 1217 206 1258 331 b 1363 558 1342 551 1353 554 b 1538 732 1456 603 1519 656 z "},"Ứ":{"ha":1369,"x_min":0,"x_max":0,"o":"m 1538 732 b 1389 732 1538 776 1389 774 b 1340 590 1411 665 1390 618 b 1276 639 1331 614 1290 646 b 1261 601 1272 638 1274 638 b 1224 486 1250 565 1233 519 b 1025 200 1165 382 1106 301 b 854 22 974 136 921 72 b 847 439 536 -210 789 250 b 790 722 881 544 892 657 b 549 758 733 760 665 781 b 168 531 390 728 261 640 b 182 179 -3 326 78 179 b 253 229 219 179 251 199 b 233 233 254 242 242 247 b 153 243 207 190 161 201 b 783 661 114 457 700 889 b 668 204 822 556 772 471 b 806 -64 560 -75 713 -108 b 1026 138 896 -19 965 61 b 1179 344 1079 204 1132 272 b 1096 -32 1131 172 1094 -22 b 1164 -87 1100 -60 1150 -99 b 1168 -67 1168 -83 1168 -72 b 1331 550 1217 206 1258 331 b 1363 558 1342 551 1353 554 b 1538 732 1456 603 1519 656 z m 997 775 b 1007 733 990 763 982 754 b 1028 724 1011 729 1019 721 b 1035 729 1031 725 1032 728 b 1225 867 1069 783 1157 854 b 1238 871 1229 867 1233 867 b 1168 947 1249 883 1194 944 b 997 775 1147 949 1043 861 z "},"Ự":{"ha":1369,"x_min":0,"x_max":0,"o":"m 1538 732 b 1389 732 1538 776 1389 774 b 1340 590 1411 665 1390 618 b 1276 639 1331 614 1290 646 b 1261 601 1272 638 1274 638 b 1224 486 1250 565 1233 519 b 1025 200 1165 382 1106 301 b 854 22 974 136 921 72 b 847 439 536 -210 789 250 b 790 722 881 544 892 657 b 549 758 733 760 665 781 b 168 531 390 728 261 640 b 182 179 -3 326 78 179 b 253 229 219 179 251 199 b 233 233 254 242 242 247 b 153 243 207 190 161 201 b 783 661 114 457 700 889 b 668 204 822 556 772 471 b 806 -64 560 -75 713 -108 b 1026 138 896 -19 965 61 b 1179 344 1079 204 1132 272 b 1096 -32 1131 172 1094 -22 b 1164 -87 1100 -60 1150 -99 b 1168 -67 1168 -83 1168 -72 b 1331 550 1217 206 1258 331 b 1363 558 1342 551 1353 554 b 1538 732 1456 603 1519 656 z m 700 -235 b 744 -326 689 -282 708 -322 b 828 -249 781 -331 817 -296 b 783 -158 839 -203 819 -162 b 700 -235 747 -154 710 -189 z "},"Ừ":{"ha":1369,"x_min":0,"x_max":0,"o":"m 1538 732 b 1389 732 1538 776 1389 774 b 1340 590 1411 665 1390 618 b 1276 639 1331 614 1290 646 b 1261 601 1272 638 1274 638 b 1224 486 1250 565 1233 519 b 1025 200 1165 382 1106 301 b 854 22 974 136 921 72 b 847 439 536 -210 789 250 b 790 722 881 544 892 657 b 549 758 733 760 665 781 b 168 531 390 728 261 640 b 182 179 -3 326 78 179 b 253 229 219 179 251 199 b 233 233 254 242 242 247 b 153 243 207 190 161 201 b 783 661 114 457 700 889 b 668 204 822 556 772 471 b 806 -64 560 -75 713 -108 b 1026 138 896 -19 965 61 b 1179 344 1079 204 1132 272 b 1096 -32 1131 172 1094 -22 b 1164 -87 1100 -60 1150 -99 b 1168 -67 1168 -83 1168 -72 b 1331 550 1217 206 1258 331 b 1363 558 1342 551 1353 554 b 1538 732 1456 603 1519 656 z m 965 836 b 978 832 969 832 974 832 b 1169 694 1046 819 1133 749 l 1175 689 b 1196 699 1183 686 1192 694 b 1207 740 1221 719 1213 728 b 1035 913 1161 826 1056 914 b 965 836 1008 910 954 849 z "}}}
